<svg version="1.1" xmlns="http://www.w3.org/2000/svg" viewBox="0 0 625.0566628362226 453.6154794025251" width="1250.1133256724452" height="907.2309588050502" filter="invert(93%) hue-rotate(180deg)">
  <!-- svg-source:excalidraw -->
  
  <defs>
    <style class="style-fonts">
      @font-face {
        font-family: "Virgil";
        src: url("https://excalidraw.com/Virgil.woff2");
      }
      @font-face {
        font-family: "Cascadia";
        src: url("https://excalidraw.com/Cascadia.woff2");
      }
    </style>
    
  </defs>
  <rect x="0" y="0" width="625.0566628362226" height="453.6154794025251" fill="#f1f3f5"></rect><g stroke-linecap="round" transform="translate(413.15137969568514 22.978708301154256) rotate(0 21.818221521628857 21.818221521628857)"><path d="M25.53 0.41 C29.94 0.94, 35.38 3.79, 38.33 7.42 C41.27 11.05, 43.07 17.53, 43.2 22.21 C43.32 26.88, 41.9 31.82, 39.08 35.47 C36.26 39.13, 30.85 43.28, 26.25 44.12 C21.65 44.96, 15.77 42.97, 11.46 40.52 C7.15 38.07, 2.18 33.91, 0.38 29.39 C-1.41 24.88, -1.12 17.99, 0.69 13.41 C2.5 8.84, 6.08 3.9, 11.24 1.92 C16.4 -0.05, 27.52 0.87, 31.66 1.57 C35.8 2.26, 36.37 5.75, 36.08 6.08 M29.75 -0.06 C34.14 0.78, 39.14 5.37, 41.46 9.42 C43.78 13.48, 44.61 19.4, 43.69 24.27 C42.77 29.14, 39.23 35.43, 35.94 38.64 C32.65 41.85, 28.6 43.45, 23.97 43.53 C19.33 43.61, 11.84 42.05, 8.13 39.12 C4.42 36.18, 2.63 30.23, 1.72 25.92 C0.8 21.61, 0.76 17.51, 2.64 13.26 C4.52 9.02, 8.55 2.51, 12.99 0.45 C17.44 -1.6, 26.93 0.94, 29.31 0.93 C31.69 0.93, 27.32 0.11, 27.28 0.4" stroke="#1e1e1e" stroke-width="1" fill="none"></path></g><g transform="translate(429.5937907790649 34.869117431408995) rotate(0 5.447998046875 10)"><text x="5.447998046875" y="0" font-family="Virgil, Segoe UI Emoji" font-size="16px" fill="#1e1e1e" text-anchor="middle" style="white-space: pre;" direction="ltr" dominant-baseline="text-before-edge">3</text></g><g stroke-linecap="round" transform="translate(440.2668789353761 94.82426864314311) rotate(0 26.5 25.5)"><path d="M20.35 1.01 C25.4 -0.51, 33.11 1.11, 38.22 3.53 C43.34 5.95, 48.7 10.67, 51.04 15.54 C53.37 20.42, 53.74 27.47, 52.23 32.78 C50.72 38.1, 46.74 44.43, 41.98 47.42 C37.21 50.42, 29.37 51.48, 23.65 50.73 C17.92 49.98, 11.62 46.89, 7.65 42.93 C3.68 38.96, 0.1 32.51, -0.19 26.96 C-0.48 21.42, 1.52 14.1, 5.94 9.64 C10.35 5.18, 22.08 1.53, 26.29 0.19 C30.49 -1.15, 31.17 1.13, 31.16 1.6 M22.41 0.46 C27.81 -0.86, 34.78 -0.31, 39.56 2.47 C44.35 5.26, 49.02 12.09, 51.14 17.16 C53.26 22.23, 54.22 27.72, 52.3 32.91 C50.37 38.1, 44.78 45.58, 39.6 48.3 C34.41 51.02, 26.71 50.26, 21.19 49.21 C15.67 48.17, 9.94 46.14, 6.48 42.03 C3.02 37.92, 0.28 30.16, 0.41 24.55 C0.54 18.93, 3.74 12.36, 7.28 8.34 C10.81 4.33, 19.15 1.77, 21.6 0.47 C24.05 -0.84, 21.66 -0.08, 21.97 0.52" stroke="#1e1e1e" stroke-width="1" fill="none"></path></g><g transform="translate(455.3285522856904 110.29304572288584) rotate(0 11.199996948242188 10)"><text x="11.199996948242188" y="0" font-family="Virgil, Segoe UI Emoji" font-size="16px" fill="#1e1e1e" text-anchor="middle" style="white-space: pre;" direction="ltr" dominant-baseline="text-before-edge">20</text></g><g stroke-linecap="round" transform="translate(287.09986383348587 192.0297763922772) rotate(0 21.818221521628857 21.818221521628857)"><path d="M24.66 -0.62 C29.13 -0.41, 33.94 3.02, 37 6.47 C40.06 9.92, 42.71 15.36, 43.04 20.07 C43.37 24.78, 41.54 31.09, 38.96 34.75 C36.38 38.41, 32.13 40.76, 27.58 42.03 C23.02 43.3, 16.01 44.41, 11.62 42.37 C7.22 40.33, 3.01 34.12, 1.2 29.76 C-0.6 25.41, -0.52 20.48, 0.79 16.22 C2.1 11.97, 4.37 6.75, 9.07 4.23 C13.78 1.71, 25.21 1.27, 29.03 1.12 C32.86 0.97, 32.15 3.13, 32.03 3.34 M13.08 1.1 C16.62 -0.75, 21.38 0.49, 25.91 1.73 C30.44 2.97, 37.44 4.83, 40.28 8.55 C43.12 12.27, 43.62 19.37, 42.96 24.06 C42.31 28.74, 39.24 33.65, 36.35 36.65 C33.45 39.66, 30.07 41.41, 25.6 42.06 C21.13 42.72, 13.81 43.12, 9.54 40.6 C5.26 38.07, 1.27 31.42, -0.05 26.91 C-1.36 22.39, -0.3 17.75, 1.66 13.48 C3.62 9.22, 9.95 3.07, 11.74 1.32 C13.52 -0.43, 12.29 2.45, 12.35 3" stroke="#1e1e1e" stroke-width="1" fill="none"></path></g><g transform="translate(301.8782810814164 203.92018552253194) rotate(0 7.111991882324219 10)"><text x="7.111991882324219" y="0" font-family="Virgil, Segoe UI Emoji" font-size="16px" fill="#1e1e1e" text-anchor="middle" style="white-space: pre;" direction="ltr" dominant-baseline="text-before-edge">15</text></g><g stroke-linecap="round" transform="translate(220.8876973682377 291.34243826468446) rotate(0 21.818221521628857 21.818221521628857)"><path d="M26.41 0.25 C30.85 1.23, 37.15 5.73, 39.97 9.58 C42.78 13.42, 43.63 18.61, 43.29 23.31 C42.95 28.01, 41.23 34.35, 37.92 37.78 C34.61 41.22, 28.28 43.56, 23.42 43.92 C18.56 44.28, 12.46 42.67, 8.77 39.92 C5.09 37.17, 2.39 32.01, 1.29 27.44 C0.19 22.87, 0.33 16.81, 2.18 12.51 C4.03 8.21, 7.84 3.58, 12.41 1.63 C16.98 -0.33, 26.72 0.66, 29.62 0.78 C32.52 0.9, 29.88 1.95, 29.81 2.36 M27.4 0.08 C31.72 1.2, 39.08 4.62, 41.53 8.94 C43.98 13.26, 42.79 21.14, 42.11 25.99 C41.42 30.84, 40.54 35.15, 37.42 38.03 C34.31 40.91, 28.45 42.87, 23.41 43.27 C18.37 43.67, 10.99 43.21, 7.16 40.43 C3.34 37.65, 1.19 31.26, 0.46 26.57 C-0.27 21.88, 0.5 16.62, 2.78 12.27 C5.05 7.93, 9.98 2.63, 14.11 0.52 C18.24 -1.59, 25.16 -0.77, 27.55 -0.38 C29.94 0.02, 28.44 2.31, 28.45 2.89" stroke="#1e1e1e" stroke-width="1" fill="none"></path></g><g transform="translate(235.66611461616822 303.2328473949392) rotate(0 7.111991882324219 10)"><text x="7.111991882324219" y="0" font-family="Virgil, Segoe UI Emoji" font-size="16px" fill="#1e1e1e" text-anchor="middle" style="white-space: pre;" direction="ltr" dominant-baseline="text-before-edge">15</text></g><g stroke-linecap="round" transform="translate(151.05735067210026 395.56350255589587) rotate(0 21.818221521628857 21.818221521628857)"><path d="M12.74 2.73 C16.47 0.46, 22.41 0.03, 26.96 1.09 C31.51 2.15, 37.33 5.58, 40.04 9.08 C42.74 12.58, 43.45 17.55, 43.18 22.1 C42.91 26.64, 41.57 32.91, 38.44 36.37 C35.31 39.83, 29.03 42.24, 24.39 42.86 C19.75 43.47, 14.43 42.48, 10.61 40.05 C6.79 37.61, 2.79 32.81, 1.46 28.24 C0.13 23.67, 0.34 16.98, 2.65 12.6 C4.96 8.22, 12.55 3.99, 15.32 1.95 C18.1 -0.09, 19.27 0.1, 19.28 0.38 M17.75 -0.57 C22.14 -2.02, 28.81 -1.07, 33.05 1.5 C37.29 4.06, 41.79 10.13, 43.19 14.82 C44.59 19.52, 43.42 25.34, 41.46 29.67 C39.51 34, 35.4 38.61, 31.44 40.79 C27.48 42.97, 22.12 43.71, 17.7 42.76 C13.28 41.81, 7.81 38.73, 4.9 35.09 C1.99 31.44, 0.09 25.43, 0.25 20.88 C0.4 16.34, 3.02 11.27, 5.84 7.81 C8.65 4.36, 15.34 1.08, 17.15 0.14 C18.96 -0.8, 16.78 1.99, 16.71 2.16" stroke="#1e1e1e" stroke-width="1" fill="none"></path></g><g transform="translate(165.83576792003078 407.4539116861506) rotate(0 7.111991882324219 10)"><text x="7.111991882324219" y="0" font-family="Virgil, Segoe UI Emoji" font-size="16px" fill="#1e1e1e" text-anchor="middle" style="white-space: pre;" direction="ltr" dominant-baseline="text-before-edge">15</text></g><g stroke-linecap="round" transform="translate(392.04640065624426 191.22005323990925) rotate(0 21.818221521628857 21.818221521628857)"><path d="M31.37 2.22 C35.39 3.82, 40.34 8.31, 42.14 12.55 C43.93 16.8, 43.5 22.94, 42.14 27.71 C40.78 32.47, 37.75 38.54, 33.98 41.16 C30.22 43.78, 24.4 44.15, 19.54 43.44 C14.67 42.73, 8.14 40.37, 4.8 36.9 C1.46 33.44, -0.54 27.27, -0.52 22.64 C-0.49 18.02, 1.91 13.01, 4.96 9.16 C8.01 5.31, 13.12 0.51, 17.79 -0.46 C22.46 -1.42, 30.15 2.6, 32.98 3.35 C35.82 4.11, 34.89 3.77, 34.79 4.06 M22.55 1.41 C27.17 1.31, 32.37 3.8, 35.89 6.59 C39.41 9.39, 43.03 14.01, 43.65 18.18 C44.27 22.34, 42.16 27.68, 39.61 31.58 C37.05 35.48, 32.78 39.55, 28.32 41.57 C23.85 43.59, 17.31 45.37, 12.82 43.73 C8.33 42.08, 3.27 36.26, 1.39 31.72 C-0.49 27.18, 0.3 21.05, 1.55 16.49 C2.79 11.93, 5.5 6.95, 8.85 4.37 C12.21 1.79, 19.29 1.9, 21.67 1.02 C24.05 0.13, 23.23 -0.98, 23.12 -0.94" stroke="#1e1e1e" stroke-width="1" fill="none"></path></g><g transform="translate(409.63281656140134 203.110462370164) rotate(0 4.303993225097656 10)"><text x="4.303993225097656" y="0" font-family="Virgil, Segoe UI Emoji" font-size="16px" fill="#1e1e1e" text-anchor="middle" style="white-space: pre;" direction="ltr" dominant-baseline="text-before-edge">7</text></g><g stroke-linecap="round" transform="translate(325.8342341909961 290.5327151123165) rotate(0 21.818221521628857 21.818221521628857)"><path d="M16.51 1.43 C20.77 0.04, 26.33 0.02, 30.56 1.99 C34.78 3.97, 39.93 8.99, 41.87 13.27 C43.81 17.55, 43.58 23.3, 42.2 27.68 C40.82 32.06, 37.21 36.98, 33.6 39.55 C29.99 42.13, 25 43.56, 20.54 43.12 C16.09 42.67, 10.22 40.2, 6.85 36.89 C3.48 33.59, 0.7 27.95, 0.31 23.31 C-0.08 18.67, 1.37 12.92, 4.51 9.05 C7.66 5.19, 15.77 1.53, 19.18 0.11 C22.59 -1.3, 24.69 0.06, 24.96 0.54 M13.5 0.74 C17.38 -1.1, 21.38 0.32, 25.9 1.69 C30.42 3.07, 37.52 5.43, 40.63 9 C43.73 12.57, 45.25 18.17, 44.53 23.1 C43.81 28.02, 39.73 35.09, 36.31 38.55 C32.89 42.01, 28.43 43.51, 24 43.86 C19.56 44.21, 13.5 43.51, 9.69 40.65 C5.89 37.79, 2.65 31.58, 1.16 26.7 C-0.32 21.82, -1.05 15.22, 0.8 11.36 C2.65 7.5, 10.37 5.01, 12.26 3.53 C14.15 2.06, 11.87 2.27, 12.14 2.5" stroke="#1e1e1e" stroke-width="1" fill="none"></path></g><g transform="translate(343.42065009615317 302.42312424257125) rotate(0 4.303993225097656 10)"><text x="4.303993225097656" y="0" font-family="Virgil, Segoe UI Emoji" font-size="16px" fill="#1e1e1e" text-anchor="middle" style="white-space: pre;" direction="ltr" dominant-baseline="text-before-edge">7</text></g><g stroke-linecap="round" transform="translate(256.00388749485865 394.7537794035279) rotate(0 21.818221521628857 21.818221521628857)"><path d="M27.37 1.19 C31.74 2.01, 37.66 5.86, 40.29 9.42 C42.92 12.98, 43.51 17.98, 43.16 22.52 C42.8 27.06, 41.34 33.28, 38.15 36.68 C34.95 40.08, 28.62 42.38, 23.97 42.91 C19.32 43.43, 14.02 42.33, 10.25 39.81 C6.48 37.3, 2.58 32.43, 1.34 27.83 C0.1 23.23, 0.99 16.32, 2.82 12.21 C4.66 8.09, 7.76 4.98, 12.35 3.15 C16.94 1.33, 27.11 1.17, 30.36 1.26 C33.61 1.34, 32.15 3.28, 31.87 3.67 M28.23 -0.51 C32.75 0.69, 38.4 6.01, 40.8 10.19 C43.19 14.37, 43.48 20.01, 42.61 24.58 C41.74 29.15, 38.87 34.55, 35.59 37.62 C32.31 40.7, 27.39 42.84, 22.91 43 C18.44 43.17, 12.4 41.45, 8.74 38.62 C5.07 35.8, 1.87 30.46, 0.91 26.06 C-0.04 21.65, 1.14 16.27, 3.02 12.21 C4.89 8.15, 8.25 3.36, 12.17 1.7 C16.09 0.03, 24.21 2.49, 26.54 2.19 C28.87 1.89, 25.89 -0.3, 26.14 -0.11" stroke="#1e1e1e" stroke-width="1" fill="none"></path></g><g transform="translate(273.5903034000157 406.64418853378265) rotate(0 4.303993225097656 10)"><text x="4.303993225097656" y="0" font-family="Virgil, Segoe UI Emoji" font-size="16px" fill="#1e1e1e" text-anchor="middle" style="white-space: pre;" direction="ltr" dominant-baseline="text-before-edge">7</text></g><g stroke-linecap="round" transform="translate(349.35145771220095 92.68309359821524) rotate(0 21.818221521628857 21.818221521628857)"><path d="M26.07 0.15 C30.63 0.78, 36.28 5, 39.34 8.8 C42.39 12.61, 44.61 18.54, 44.4 22.98 C44.18 27.43, 41.21 32, 38.06 35.47 C34.9 38.93, 29.96 43.02, 25.45 43.79 C20.94 44.56, 14.95 42.48, 10.99 40.11 C7.04 37.73, 3.18 33.84, 1.71 29.53 C0.25 25.22, 0.69 18.88, 2.21 14.26 C3.73 9.63, 5.85 3.7, 10.84 1.8 C15.84 -0.1, 27.8 2.01, 32.15 2.84 C36.51 3.68, 37.12 6.64, 36.98 6.81 M22.25 -0.71 C26.45 -0.83, 32.2 1.13, 35.76 4.37 C39.33 7.61, 42.86 13.98, 43.65 18.74 C44.43 23.5, 43.2 28.88, 40.48 32.95 C37.77 37.02, 32.04 41.55, 27.33 43.16 C22.63 44.77, 16.32 44.31, 12.27 42.6 C8.22 40.88, 5.25 36.95, 3.03 32.87 C0.82 28.79, -1.82 23.08, -1.01 18.13 C-0.2 13.18, 3.95 6.29, 7.9 3.19 C11.86 0.09, 20.26 0.11, 22.71 -0.46 C25.15 -1.03, 22.59 -0.46, 22.57 -0.24" stroke="#1e1e1e" stroke-width="1" fill="none"></path></g><g transform="translate(366.369872823901 104.57350272846998) rotate(0 4.8719940185546875 10)"><text x="4.8719940185546875" y="0" font-family="Virgil, Segoe UI Emoji" font-size="16px" fill="#1e1e1e" text-anchor="middle" style="white-space: pre;" direction="ltr" dominant-baseline="text-before-edge">9</text></g><g stroke-linecap="round"><g transform="translate(417.4705257162759 59.30356795543139) rotate(0 -14.591841727624342 19.08358660809745)"><path d="M-0.03 -0.53 C-4.78 5.97, -24.37 32.13, -29.15 38.7 M-1.51 1.81 C-5.8 8.02, -22.06 31.22, -26.75 37.11" stroke="#1e1e1e" stroke-width="1" fill="none"></path></g></g><mask></mask><g stroke-linecap="round"><g transform="translate(357.7419404375278 136.09139961094752) rotate(0 -18.448703893179527 31.677449352741405)"><path d="M-0.66 0.3 C-6.88 10.58, -32.09 52.2, -38.1 62.87 M1.2 -0.58 C-4.61 10.33, -29.58 53.46, -36 63.94" stroke="#1e1e1e" stroke-width="1" fill="none"></path></g></g><mask></mask><g stroke-linecap="round"><g transform="translate(291.5297739722796 235.40406148335478) rotate(0 -18.681984365948892 31.8207649944261)"><path d="M-0.65 -0.75 C-6.98 9.95, -31.46 53.7, -37.38 64.39 M1.21 1.47 C-5.37 11.8, -32.28 52.1, -38.57 62.61" stroke="#1e1e1e" stroke-width="1" fill="none"></path></g></g><mask></mask><g stroke-linecap="round"><g transform="translate(221.69942727614216 339.6251257745662) rotate(0 -18.371156064554498 32.40276872368577)"><path d="M0.58 1.11 C-5.32 11.63, -30.42 53.55, -36.56 64.16 M-0.58 0.64 C-6.51 11.32, -31.31 51.86, -37.32 62.25" stroke="#1e1e1e" stroke-width="1" fill="none"></path></g></g><mask></mask><g stroke-linecap="round"><g transform="translate(384.85266042803505 135.27075821838935) rotate(0 11.041524492582312 26.365363355682803)"><path d="M-0.67 -0.54 C2.8 8.4, 16.97 44.4, 20.53 53.27 M1.17 1.79 C5.05 10.46, 19.08 43.62, 22.76 51.76" stroke="#1e1e1e" stroke-width="1" fill="none"></path></g></g><mask></mask><g stroke-linecap="round"><g transform="translate(318.6404939627869 234.5834200907966) rotate(0 10.674487320697835 25.561897844172563)"><path d="M-0.75 -0.46 C2.9 8.46, 18.46 44.11, 22.1 52.88 M1.06 -1.75 C4.59 6.89, 18.31 41.95, 21.49 51.15" stroke="#1e1e1e" stroke-width="1" fill="none"></path></g></g><mask></mask><g stroke-linecap="round"><g transform="translate(248.81014726664944 338.804484382008) rotate(0 11.049723657957202 26.139766188667636)"><path d="M1.11 0.36 C4.59 9.06, 18.3 44.06, 21.87 52.78 M0.23 -0.5 C3.5 7.8, 17.46 42.48, 21.14 51.01" stroke="#1e1e1e" stroke-width="1" fill="none"></path></g></g><mask></mask><g stroke-linecap="round"><g transform="translate(448.74210128314735 64.51261883995085) rotate(0 6.184951668393069 15.36067370029059)"><path d="M1.15 0.31 C3.12 5.5, 10.21 26.2, 12.07 31.3 M0.3 -0.58 C2.08 4.29, 9.26 24.81, 11.17 29.73" stroke="#1e1e1e" stroke-width="1" fill="none"></path></g></g><mask></mask><g stroke-linecap="round" transform="translate(403.8960407326563 14.300950067769008) rotate(0 30.688947543003678 30.052593200474803)"><path d="M15.03 0 M15.03 0 C25.95 0.42, 39.4 0.77, 46.35 0 M15.03 0 C27.04 -1.16, 37.63 -0.74, 46.35 0 M46.35 0 C56.1 -0.23, 60.81 4.84, 61.38 15.03 M46.35 0 C54.39 -1.46, 63.61 3.09, 61.38 15.03 M61.38 15.03 C61.34 20.19, 60.68 30.25, 61.38 45.08 M61.38 15.03 C61.21 25.13, 61.57 37.56, 61.38 45.08 M61.38 45.08 C62.26 53.27, 58.24 59.78, 46.35 60.11 M61.38 45.08 C60.47 54.03, 54.74 62.04, 46.35 60.11 M46.35 60.11 C36.4 59.13, 27.79 61.28, 15.03 60.11 M46.35 60.11 C36.81 60.45, 26.99 59.11, 15.03 60.11 M15.03 60.11 C4.42 59.24, -0.58 53.45, 0 45.08 M15.03 60.11 C4.81 59.54, -0.37 55.06, 0 45.08 M0 45.08 C-0.27 36.61, -1.73 22.95, 0 15.03 M0 45.08 C-1.28 33.77, -0.01 21.77, 0 15.03 M0 15.03 C1.01 3.73, 5.55 1.09, 15.03 0 M0 15.03 C-1.75 6.49, 5.7 1.58, 15.03 0" stroke="#1e1e1e" stroke-width="1" fill="none"></path></g><g transform="translate(10 388.7187526522921) rotate(0 51.92797088623047 20)"><text x="0" y="0" font-family="Virgil, Segoe UI Emoji" font-size="16px" fill="#1e1e1e" text-anchor="start" style="white-space: pre;" direction="ltr" dominant-baseline="text-before-edge">height: 0</text><text x="0" y="20" font-family="Virgil, Segoe UI Emoji" font-size="16px" fill="#1e1e1e" text-anchor="start" style="white-space: pre;" direction="ltr" dominant-baseline="text-before-edge">balanced: yes</text></g><g transform="translate(347.13479588169866 403.6154794025251) rotate(0 51.92797088623047 20)"><text x="0" y="0" font-family="Virgil, Segoe UI Emoji" font-size="16px" fill="#1e1e1e" text-anchor="start" style="white-space: pre;" direction="ltr" dominant-baseline="text-before-edge">height: 0</text><text x="0" y="20" font-family="Virgil, Segoe UI Emoji" font-size="16px" fill="#1e1e1e" text-anchor="start" style="white-space: pre;" direction="ltr" dominant-baseline="text-before-edge">balanced: yes</text></g><g transform="translate(397.4122950228175 294.66765988645784) rotate(0 51.92797088623047 20)"><text x="0" y="0" font-family="Virgil, Segoe UI Emoji" font-size="16px" fill="#1e1e1e" text-anchor="start" style="white-space: pre;" direction="ltr" dominant-baseline="text-before-edge">height: 0</text><text x="0" y="20" font-family="Virgil, Segoe UI Emoji" font-size="16px" fill="#1e1e1e" text-anchor="start" style="white-space: pre;" direction="ltr" dominant-baseline="text-before-edge">balanced: yes</text></g><g transform="translate(461.0277252374344 202.15158037221954) rotate(0 51.92797088623047 20)"><text x="0" y="0" font-family="Virgil, Segoe UI Emoji" font-size="16px" fill="#1e1e1e" text-anchor="start" style="white-space: pre;" direction="ltr" dominant-baseline="text-before-edge">height: 0</text><text x="0" y="20" font-family="Virgil, Segoe UI Emoji" font-size="16px" fill="#1e1e1e" text-anchor="start" style="white-space: pre;" direction="ltr" dominant-baseline="text-before-edge">balanced: yes</text></g><g transform="translate(511.20072106376165 110.24981129500429) rotate(0 51.92797088623047 20)"><text x="0" y="0" font-family="Virgil, Segoe UI Emoji" font-size="16px" fill="#1e1e1e" text-anchor="start" style="white-space: pre;" direction="ltr" dominant-baseline="text-before-edge">height: 0</text><text x="0" y="20" font-family="Virgil, Segoe UI Emoji" font-size="16px" fill="#1e1e1e" text-anchor="start" style="white-space: pre;" direction="ltr" dominant-baseline="text-before-edge">balanced: yes</text></g><g transform="translate(87.97781269538655 284.50998025626086) rotate(0 51.92797088623047 20)"><text x="0" y="0" font-family="Virgil, Segoe UI Emoji" font-size="16px" fill="#1e1e1e" text-anchor="start" style="white-space: pre;" direction="ltr" dominant-baseline="text-before-edge">height: 1</text><text x="0" y="20" font-family="Virgil, Segoe UI Emoji" font-size="16px" fill="#1e1e1e" text-anchor="start" style="white-space: pre;" direction="ltr" dominant-baseline="text-before-edge">balanced: yes</text></g><g transform="translate(175.97732942444236 174.9829381196596) rotate(0 47.62397766113281 20)"><text x="0" y="0" font-family="Virgil, Segoe UI Emoji" font-size="16px" fill="#1e1e1e" text-anchor="start" style="white-space: pre;" direction="ltr" dominant-baseline="text-before-edge">height: 2</text><text x="0" y="20" font-family="Virgil, Segoe UI Emoji" font-size="16px" fill="#1e1e1e" text-anchor="start" style="white-space: pre;" direction="ltr" dominant-baseline="text-before-edge">balanced: no</text></g><g transform="translate(232.0000024346773 83.14441224720576) rotate(0 47.62397766113281 20)"><text x="0" y="0" font-family="Virgil, Segoe UI Emoji" font-size="16px" fill="#1e1e1e" text-anchor="start" style="white-space: pre;" direction="ltr" dominant-baseline="text-before-edge">height: 3</text><text x="0" y="20" font-family="Virgil, Segoe UI Emoji" font-size="16px" fill="#1e1e1e" text-anchor="start" style="white-space: pre;" direction="ltr" dominant-baseline="text-before-edge">balanced: no</text></g><g transform="translate(291.57543848587557 10) rotate(0 47.62397766113281 20)"><text x="0" y="0" font-family="Virgil, Segoe UI Emoji" font-size="16px" fill="#1e1e1e" text-anchor="start" style="white-space: pre;" direction="ltr" dominant-baseline="text-before-edge">height: 4</text><text x="0" y="20" font-family="Virgil, Segoe UI Emoji" font-size="16px" fill="#1e1e1e" text-anchor="start" style="white-space: pre;" direction="ltr" dominant-baseline="text-before-edge">balanced: no</text></g></svg>
