<svg version="1.1" xmlns="http://www.w3.org/2000/svg" viewBox="0 0 468.903981436154 333.8475630845742" width="937.807962872308" height="667.6951261691484" filter="invert(93%) hue-rotate(180deg)">
  <!-- svg-source:excalidraw -->
  
  <defs>
    <style class="style-fonts">
      @font-face {
        font-family: "Virgil";
        src: url("https://excalidraw.com/Virgil.woff2");
      }
      @font-face {
        font-family: "Cascadia";
        src: url("https://excalidraw.com/Cascadia.woff2");
      }
    </style>
    
  </defs>
  <rect x="0" y="0" width="468.903981436154" height="333.8475630845742" fill="#f1f3f5"></rect><g stroke-linecap="round" transform="translate(268.85297763163817 36.971546415776174) rotate(0 21.818221521628857 21.818221521628857)"><path d="M25.53 0.41 C29.94 0.94, 35.38 3.79, 38.33 7.42 C41.27 11.05, 43.07 17.53, 43.2 22.21 C43.32 26.88, 41.9 31.82, 39.08 35.47 C36.26 39.13, 30.85 43.28, 26.25 44.12 C21.65 44.96, 15.77 42.97, 11.46 40.52 C7.15 38.07, 2.18 33.91, 0.38 29.39 C-1.41 24.88, -1.12 17.99, 0.69 13.41 C2.5 8.84, 6.08 3.9, 11.24 1.92 C16.4 -0.05, 27.52 0.87, 31.66 1.57 C35.8 2.26, 36.37 5.75, 36.08 6.08 M29.75 -0.06 C34.14 0.78, 39.14 5.37, 41.46 9.42 C43.78 13.48, 44.61 19.4, 43.69 24.27 C42.77 29.14, 39.23 35.43, 35.94 38.64 C32.65 41.85, 28.6 43.45, 23.97 43.53 C19.33 43.61, 11.84 42.05, 8.13 39.12 C4.42 36.18, 2.63 30.23, 1.72 25.92 C0.8 21.61, 0.76 17.51, 2.64 13.26 C4.52 9.02, 8.55 2.51, 12.99 0.45 C17.44 -1.6, 26.93 0.94, 29.31 0.93 C31.69 0.93, 27.32 0.11, 27.28 0.4" stroke="#1e1e1e" stroke-width="1" fill="none"></path></g><g transform="translate(288.5753874943148 48.86195554603091) rotate(0 2.167999267578125 10)"><text x="2.167999267578125" y="0" font-family="Virgil, Segoe UI Emoji" font-size="16px" fill="#1e1e1e" text-anchor="middle" style="white-space: pre;" direction="ltr" dominant-baseline="text-before-edge">1</text></g><g stroke-linecap="round" transform="translate(307.6946762986322 106.48118250342213) rotate(0 21.818221521628857 21.818221521628857)"><path d="M16.8 0.9 C20.94 -0.39, 27.28 1.08, 31.49 3.16 C35.7 5.24, 40.15 9.21, 42.08 13.36 C44.01 17.52, 44.28 23.53, 43.05 28.09 C41.82 32.64, 38.61 38.14, 34.68 40.69 C30.74 43.24, 24.17 44.05, 19.45 43.39 C14.73 42.72, 9.61 40.08, 6.34 36.69 C3.06 33.29, 0.01 27.78, -0.2 23.02 C-0.42 18.26, 1.39 11.93, 5.04 8.12 C8.7 4.32, 18.29 1.3, 21.71 0.19 C25.12 -0.92, 25.57 1.04, 25.56 1.45 M18.52 0.41 C22.99 -0.74, 28.6 -0.41, 32.52 1.97 C36.45 4.36, 40.27 10.39, 42.05 14.72 C43.83 19.05, 44.8 23.5, 43.22 27.95 C41.65 32.4, 36.91 39.1, 32.59 41.42 C28.28 43.75, 21.88 42.81, 17.34 41.91 C12.81 41.01, 8.22 39.5, 5.4 36 C2.57 32.49, 0.28 25.71, 0.41 20.88 C0.54 16.06, 3.28 10.45, 6.17 7.04 C9.05 3.63, 15.73 1.52, 17.71 0.41 C19.7 -0.7, 17.77 -0.15, 18.07 0.39" stroke="#1e1e1e" stroke-width="1" fill="none"></path></g><g transform="translate(324.13708738201194 118.37159163367687) rotate(0 5.447998046875 10)"><text x="5.447998046875" y="0" font-family="Virgil, Segoe UI Emoji" font-size="16px" fill="#1e1e1e" text-anchor="middle" style="white-space: pre;" direction="ltr" dominant-baseline="text-before-edge">3</text></g><g stroke-linecap="round" transform="translate(142.8014617694389 206.02261450689912) rotate(0 21.818221521628857 21.818221521628857)"><path d="M24.66 -0.62 C29.13 -0.41, 33.94 3.02, 37 6.47 C40.06 9.92, 42.71 15.36, 43.04 20.07 C43.37 24.78, 41.54 31.09, 38.96 34.75 C36.38 38.41, 32.13 40.76, 27.58 42.03 C23.02 43.3, 16.01 44.41, 11.62 42.37 C7.22 40.33, 3.01 34.12, 1.2 29.76 C-0.6 25.41, -0.52 20.48, 0.79 16.22 C2.1 11.97, 4.37 6.75, 9.07 4.23 C13.78 1.71, 25.21 1.27, 29.03 1.12 C32.86 0.97, 32.15 3.13, 32.03 3.34 M13.08 1.1 C16.62 -0.75, 21.38 0.49, 25.91 1.73 C30.44 2.97, 37.44 4.83, 40.28 8.55 C43.12 12.27, 43.62 19.37, 42.96 24.06 C42.31 28.74, 39.24 33.65, 36.35 36.65 C33.45 39.66, 30.07 41.41, 25.6 42.06 C21.13 42.72, 13.81 43.12, 9.54 40.6 C5.26 38.07, 1.27 31.42, -0.05 26.91 C-1.36 22.39, -0.3 17.75, 1.66 13.48 C3.62 9.22, 9.95 3.07, 11.74 1.32 C13.52 -0.43, 12.29 2.45, 12.35 3" stroke="#1e1e1e" stroke-width="1" fill="none"></path></g><g transform="translate(159.57187578250614 217.91302363715386) rotate(0 5.1199951171875 10)"><text x="5.1199951171875" y="0" font-family="Virgil, Segoe UI Emoji" font-size="16px" fill="#1e1e1e" text-anchor="middle" style="white-space: pre;" direction="ltr" dominant-baseline="text-before-edge">4</text></g><g stroke-linecap="round" transform="translate(247.7479985921973 205.21289135453117) rotate(0 21.818221521628857 21.818221521628857)"><path d="M31.37 2.22 C35.39 3.82, 40.34 8.31, 42.14 12.55 C43.93 16.8, 43.5 22.94, 42.14 27.71 C40.78 32.47, 37.75 38.54, 33.98 41.16 C30.22 43.78, 24.4 44.15, 19.54 43.44 C14.67 42.73, 8.14 40.37, 4.8 36.9 C1.46 33.44, -0.54 27.27, -0.52 22.64 C-0.49 18.02, 1.91 13.01, 4.96 9.16 C8.01 5.31, 13.12 0.51, 17.79 -0.46 C22.46 -1.42, 30.15 2.6, 32.98 3.35 C35.82 4.11, 34.89 3.77, 34.79 4.06 M22.55 1.41 C27.17 1.31, 32.37 3.8, 35.89 6.59 C39.41 9.39, 43.03 14.01, 43.65 18.18 C44.27 22.34, 42.16 27.68, 39.61 31.58 C37.05 35.48, 32.78 39.55, 28.32 41.57 C23.85 43.59, 17.31 45.37, 12.82 43.73 C8.33 42.08, 3.27 36.26, 1.39 31.72 C-0.49 27.18, 0.3 21.05, 1.55 16.49 C2.79 11.93, 5.5 6.95, 8.85 4.37 C12.21 1.79, 19.29 1.9, 21.67 1.02 C24.05 0.13, 23.23 -0.98, 23.12 -0.94" stroke="#1e1e1e" stroke-width="1" fill="none"></path></g><g transform="translate(264.69441510770594 217.1033004847859) rotate(0 4.943992614746094 10)"><text x="4.943992614746094" y="0" font-family="Virgil, Segoe UI Emoji" font-size="16px" fill="#1e1e1e" text-anchor="middle" style="white-space: pre;" direction="ltr" dominant-baseline="text-before-edge">5</text></g><g stroke-linecap="round" transform="translate(205.053055648154 106.67593171283715) rotate(0 21.818221521628857 21.818221521628857)"><path d="M26.07 0.15 C30.63 0.78, 36.28 5, 39.34 8.8 C42.39 12.61, 44.61 18.54, 44.4 22.98 C44.18 27.43, 41.21 32, 38.06 35.47 C34.9 38.93, 29.96 43.02, 25.45 43.79 C20.94 44.56, 14.95 42.48, 10.99 40.11 C7.04 37.73, 3.18 33.84, 1.71 29.53 C0.25 25.22, 0.69 18.88, 2.21 14.26 C3.73 9.63, 5.85 3.7, 10.84 1.8 C15.84 -0.1, 27.8 2.01, 32.15 2.84 C36.51 3.68, 37.12 6.64, 36.98 6.81 M22.25 -0.71 C26.45 -0.83, 32.2 1.13, 35.76 4.37 C39.33 7.61, 42.86 13.98, 43.65 18.74 C44.43 23.5, 43.2 28.88, 40.48 32.95 C37.77 37.02, 32.04 41.55, 27.33 43.16 C22.63 44.77, 16.32 44.31, 12.27 42.6 C8.22 40.88, 5.25 36.95, 3.03 32.87 C0.82 28.79, -1.82 23.08, -1.01 18.13 C-0.2 13.18, 3.95 6.29, 7.9 3.19 C11.86 0.09, 20.26 0.11, 22.71 -0.46 C25.15 -1.03, 22.59 -0.46, 22.57 -0.24" stroke="#1e1e1e" stroke-width="1" fill="none"></path></g><g transform="translate(221.2474656329009 118.5663408430919) rotate(0 5.6959991455078125 10)"><text x="5.6959991455078125" y="0" font-family="Virgil, Segoe UI Emoji" font-size="16px" fill="#1e1e1e" text-anchor="middle" style="white-space: pre;" direction="ltr" dominant-baseline="text-before-edge">2</text></g><g stroke-linecap="round"><g transform="translate(273.17212365222895 73.29640607005331) rotate(0 -14.591841727624342 19.08358660809745)"><path d="M-0.03 -0.53 C-4.78 5.97, -24.37 32.13, -29.15 38.7 M-1.51 1.81 C-5.8 8.02, -22.06 31.22, -26.75 37.11" stroke="#1e1e1e" stroke-width="1" fill="none"></path></g></g><mask></mask><g stroke-linecap="round"><g transform="translate(213.4435383734808 150.08423772556944) rotate(0 -18.448703893179527 31.677449352741405)"><path d="M-0.66 0.3 C-6.88 10.58, -32.09 52.2, -38.1 62.87 M1.2 -0.58 C-4.61 10.33, -29.58 53.46, -36 63.94" stroke="#1e1e1e" stroke-width="1" fill="none"></path></g></g><mask></mask><g stroke-linecap="round"><g transform="translate(240.55425836398808 149.26359633301126) rotate(0 11.041524492582312 26.365363355682803)"><path d="M-0.67 -0.54 C2.8 8.4, 16.97 44.4, 20.53 53.27 M1.17 1.79 C5.05 10.46, 19.08 43.62, 22.76 51.76" stroke="#1e1e1e" stroke-width="1" fill="none"></path></g></g><mask></mask><g stroke-linecap="round"><g transform="translate(304.4436992191004 78.50545695457276) rotate(0 6.184951668393069 15.36067370029059)"><path d="M1.15 0.31 C3.12 5.5, 10.21 26.2, 12.07 31.3 M0.3 -0.58 C2.08 4.29, 9.26 24.81, 11.17 29.73" stroke="#1e1e1e" stroke-width="1" fill="none"></path></g></g><mask></mask><g stroke-linecap="round" transform="translate(258.0975585002775 25.923384219298896) rotate(0 30.688947543003678 30.052593200474803)"><path d="M15.03 0 M15.03 0 C25.95 0.42, 39.4 0.77, 46.35 0 M15.03 0 C27.04 -1.16, 37.63 -0.74, 46.35 0 M46.35 0 C56.1 -0.23, 60.81 4.84, 61.38 15.03 M46.35 0 C54.39 -1.46, 63.61 3.09, 61.38 15.03 M61.38 15.03 C61.34 20.19, 60.68 30.25, 61.38 45.08 M61.38 15.03 C61.21 25.13, 61.57 37.56, 61.38 45.08 M61.38 45.08 C62.26 53.27, 58.24 59.78, 46.35 60.11 M61.38 45.08 C60.47 54.03, 54.74 62.04, 46.35 60.11 M46.35 60.11 C36.4 59.13, 27.79 61.28, 15.03 60.11 M46.35 60.11 C36.81 60.45, 26.99 59.11, 15.03 60.11 M15.03 60.11 C4.42 59.24, -0.58 53.45, 0 45.08 M15.03 60.11 C4.81 59.54, -0.37 55.06, 0 45.08 M0 45.08 C-0.27 36.61, -1.73 22.95, 0 15.03 M0 45.08 C-1.28 33.77, -0.01 21.77, 0 15.03 M0 15.03 C1.01 3.73, 5.55 1.09, 15.03 0 M0 15.03 C-1.75 6.49, 5.7 1.58, 15.03 0" stroke="#1e1e1e" stroke-width="1" fill="none"></path></g><g transform="translate(50.99990072858827 303.8475630845742) rotate(0 38.27997589111328 10)"><text x="0" y="0" font-family="Virgil, Segoe UI Emoji" font-size="16px" fill="#1e1e1e" text-anchor="start" style="white-space: pre;" direction="ltr" dominant-baseline="text-before-edge">null ret -1</text></g><g transform="translate(167.60702505085874 303.2875897802387) rotate(0 38.27997589111328 10)"><text x="0" y="0" font-family="Virgil, Segoe UI Emoji" font-size="16px" fill="#1e1e1e" text-anchor="start" style="white-space: pre;" direction="ltr" dominant-baseline="text-before-edge">null ret -1</text></g><g transform="translate(20.452277423918076 201.76305763206165) rotate(0 33.999977111816406 10)"><text x="0" y="0" font-family="Virgil, Segoe UI Emoji" font-size="16px" fill="#1e1e1e" text-anchor="start" style="white-space: pre;" direction="ltr" dominant-baseline="text-before-edge">height: 0</text></g><g transform="translate(339.8348729585964 215.68784578449777) rotate(0 33.999977111816406 10)"><text x="0" y="0" font-family="Virgil, Segoe UI Emoji" font-size="16px" fill="#1e1e1e" text-anchor="start" style="white-space: pre;" direction="ltr" dominant-baseline="text-before-edge">height: 0</text></g><g transform="translate(379.644314279994 103.33441009739272) rotate(0 33.999977111816406 10)"><text x="0" y="0" font-family="Virgil, Segoe UI Emoji" font-size="16px" fill="#1e1e1e" text-anchor="start" style="white-space: pre;" direction="ltr" dominant-baseline="text-before-edge">height: 0</text></g><g transform="translate(338.4010211355235 10) rotate(0 34.191978454589844 10)"><text x="0" y="0" font-family="Virgil, Segoe UI Emoji" font-size="16px" fill="#1e1e1e" text-anchor="start" style="white-space: pre;" direction="ltr" dominant-baseline="text-before-edge">height: 2</text></g><g transform="translate(80.30413155375754 93.54235247481483) rotate(0 30.663978576660156 10)"><text x="0" y="0" font-family="Virgil, Segoe UI Emoji" font-size="16px" fill="#1e1e1e" text-anchor="start" style="white-space: pre;" direction="ltr" dominant-baseline="text-before-edge">height: 1</text></g><g transform="translate(10 228.502345416141) rotate(0 44.85597229003906 10)"><text x="0" y="0" font-family="Virgil, Segoe UI Emoji" font-size="16px" fill="#1e1e1e" text-anchor="start" style="white-space: pre;" direction="ltr" dominant-baseline="text-before-edge">diameter: 0</text></g><g transform="translate(329.38259553467833 242.42713356857712) rotate(0 44.85597229003906 10)"><text x="0" y="0" font-family="Virgil, Segoe UI Emoji" font-size="16px" fill="#1e1e1e" text-anchor="start" style="white-space: pre;" direction="ltr" dominant-baseline="text-before-edge">diameter: 0</text></g><g transform="translate(369.1920368560759 130.07369788147207) rotate(0 44.85597229003906 10)"><text x="0" y="0" font-family="Virgil, Segoe UI Emoji" font-size="16px" fill="#1e1e1e" text-anchor="start" style="white-space: pre;" direction="ltr" dominant-baseline="text-before-edge">diameter: 0</text></g><g transform="translate(327.9487437116054 36.73928778407935) rotate(0 44.79997253417969 10)"><text x="0" y="0" font-family="Virgil, Segoe UI Emoji" font-size="16px" fill="#1e1e1e" text-anchor="start" style="white-space: pre;" direction="ltr" dominant-baseline="text-before-edge">diameter: 3</text></g><g transform="translate(69.85185412983947 119.28164025889419) rotate(0 45.0479736328125 10)"><text x="0" y="0" font-family="Virgil, Segoe UI Emoji" font-size="16px" fill="#1e1e1e" text-anchor="start" style="white-space: pre;" direction="ltr" dominant-baseline="text-before-edge">diameter: 2</text></g><g transform="translate(75.63854114219384 30.779398156462776) rotate(0 61.38396453857422 10)"><text x="0" y="0" font-family="Virgil, Segoe UI Emoji" font-size="16px" fill="#1e1e1e" text-anchor="start" style="white-space: pre;" direction="ltr" dominant-baseline="text-before-edge">maxDiameter: 3</text></g></svg>
