<svg version="1.1" xmlns="http://www.w3.org/2000/svg" viewBox="0 0 778.5322500074271 530.9400052616083" width="1557.0645000148543" height="1061.8800105232167" filter="invert(93%) hue-rotate(180deg)">
  <!-- svg-source:excalidraw -->
  
  <defs>
    <style class="style-fonts">
      @font-face {
        font-family: "Virgil";
        src: url("https://excalidraw.com/Virgil.woff2");
      }
      @font-face {
        font-family: "Cascadia";
        src: url("https://excalidraw.com/Cascadia.woff2");
      }
    </style>
  </defs>
  <rect x="0" y="0" width="778.5322500074271" height="530.9400052616083" fill="#f1f3f5"></rect><g stroke-linecap="round" transform="translate(10 10) rotate(0 379.26612500371357 255.47000263080417)"><path d="M32 0 M32 0 C270.77 0.74, 509.37 -0.04, 726.53 0 M32 0 C263.9 -1.38, 496.63 -1.78, 726.53 0 M726.53 0 C748.04 -0.06, 760.25 9.14, 758.53 32 M726.53 0 C746.01 -1.9, 759.92 8.81, 758.53 32 M758.53 32 C760.71 131.08, 759.35 232.56, 758.53 478.94 M758.53 32 C758.63 181.38, 758.9 330.38, 758.53 478.94 M758.53 478.94 C760 500.24, 749.3 510.95, 726.53 510.94 M758.53 478.94 C760.7 498.16, 750.08 512.68, 726.53 510.94 M726.53 510.94 C546.92 512.72, 365.47 512.75, 32 510.94 M726.53 510.94 C463.63 513.43, 200.48 512.95, 32 510.94 M32 510.94 C9.37 512.44, -1 501.31, 0 478.94 M32 510.94 C9.31 513.08, -1 502.14, 0 478.94 M0 478.94 C0.53 330.47, 1.13 181.91, 0 32 M0 478.94 C1.3 354.6, 1.97 230.17, 0 32 M0 32 C-1.21 9.78, 10.88 -1.41, 32 0 M0 32 C1.33 12.64, 8.55 -1.23, 32 0" stroke="#1864ab" stroke-width="1" fill="none"></path></g><g transform="translate(57.00941755590566 47.10578316984265) rotate(0 47.369964599609375 12.5)"><text x="0" y="0" font-family="Virgil, Segoe UI Emoji" font-size="20px" fill="#1864ab" text-anchor="start" style="white-space: pre;" direction="ltr" dominant-baseline="text-before-edge">Car Fleet</text></g><g transform="translate(246.20999906164616 78.96503114913958) rotate(0 208.53988647460938 12.5)"><text x="0" y="0" font-family="Virgil, Segoe UI Emoji" font-size="20px" fill="#1864ab" text-anchor="start" style="white-space: pre;" direction="ltr" dominant-baseline="text-before-edge">pos: [10, 8, 0, 5, 3], speed: [2, 4, 1, 1, 3]</text></g><g transform="translate(595.3960842067622 123.40112576454885) rotate(0 53.8199462890625 12.5)"><text x="0" y="0" font-family="Virgil, Segoe UI Emoji" font-size="20px" fill="#0b7285" text-anchor="start" style="white-space: pre;" direction="ltr" dominant-baseline="text-before-edge">destination</text></g><g stroke-linecap="round"><g transform="translate(158.07903854585675 138.94427681648267) rotate(0 0.4764367497441526 161.31897034813665)"><path d="M-0.27 0.66 C-0.38 54.46, -1.03 269.11, -0.92 322.67 M1.79 -0.03 C2.08 53.43, 1.64 266.99, 1.32 320.9" stroke="#1864ab" stroke-width="1" fill="none"></path></g></g><mask></mask><g stroke-linecap="round"><g transform="translate(156.89460773002065 463.47798950897504) rotate(0 203.98812124213373 1.0154492506549104)"><path d="M-0.28 0.95 C67.25 0.85, 338.02 0.21, 405.89 0.18 M1.77 0.41 C69.64 0.46, 340.83 2.07, 408.26 1.82" stroke="#1864ab" stroke-width="1" fill="none"></path></g></g><mask></mask><g transform="translate(173.0491191795968 472.19006265510325) rotate(0 194.5799560546875 12.5)"><text x="0" y="0" font-family="Virgil, Segoe UI Emoji" font-size="20px" fill="#1864ab" text-anchor="start" style="white-space: pre;" direction="ltr" dominant-baseline="text-before-edge"> 1  2  3  4  5  6  7  8  9  10  11  12</text></g><g transform="translate(131.71433644785884 161.7511869532591) rotate(0 9.829994201660156 162.5)"><text x="0" y="0" font-family="Virgil, Segoe UI Emoji" font-size="20px" fill="#1864ab" text-anchor="start" style="white-space: pre;" direction="ltr" dominant-baseline="text-before-edge">12</text><text x="0" y="25" font-family="Virgil, Segoe UI Emoji" font-size="20px" fill="#1864ab" text-anchor="start" style="white-space: pre;" direction="ltr" dominant-baseline="text-before-edge">11</text><text x="0" y="50" font-family="Virgil, Segoe UI Emoji" font-size="20px" fill="#1864ab" text-anchor="start" style="white-space: pre;" direction="ltr" dominant-baseline="text-before-edge">10</text><text x="0" y="75" font-family="Virgil, Segoe UI Emoji" font-size="20px" fill="#1864ab" text-anchor="start" style="white-space: pre;" direction="ltr" dominant-baseline="text-before-edge">9</text><text x="0" y="100" font-family="Virgil, Segoe UI Emoji" font-size="20px" fill="#1864ab" text-anchor="start" style="white-space: pre;" direction="ltr" dominant-baseline="text-before-edge">8</text><text x="0" y="125" font-family="Virgil, Segoe UI Emoji" font-size="20px" fill="#1864ab" text-anchor="start" style="white-space: pre;" direction="ltr" dominant-baseline="text-before-edge">7</text><text x="0" y="150" font-family="Virgil, Segoe UI Emoji" font-size="20px" fill="#1864ab" text-anchor="start" style="white-space: pre;" direction="ltr" dominant-baseline="text-before-edge">6</text><text x="0" y="175" font-family="Virgil, Segoe UI Emoji" font-size="20px" fill="#1864ab" text-anchor="start" style="white-space: pre;" direction="ltr" dominant-baseline="text-before-edge">5</text><text x="0" y="200" font-family="Virgil, Segoe UI Emoji" font-size="20px" fill="#1864ab" text-anchor="start" style="white-space: pre;" direction="ltr" dominant-baseline="text-before-edge">4</text><text x="0" y="225" font-family="Virgil, Segoe UI Emoji" font-size="20px" fill="#1864ab" text-anchor="start" style="white-space: pre;" direction="ltr" dominant-baseline="text-before-edge">3</text><text x="0" y="250" font-family="Virgil, Segoe UI Emoji" font-size="20px" fill="#1864ab" text-anchor="start" style="white-space: pre;" direction="ltr" dominant-baseline="text-before-edge">2</text><text x="0" y="275" font-family="Virgil, Segoe UI Emoji" font-size="20px" fill="#1864ab" text-anchor="start" style="white-space: pre;" direction="ltr" dominant-baseline="text-before-edge">1</text><text x="0" y="300" font-family="Virgil, Segoe UI Emoji" font-size="20px" fill="#1864ab" text-anchor="start" style="white-space: pre;" direction="ltr" dominant-baseline="text-before-edge"></text></g><g stroke-linecap="round"><g stroke-opacity="0.3" fill-opacity="0.3" transform="translate(163.7407024425156 199.61609594882339) rotate(0 213.77341322285474 -0.29249914250249276)"><path d="M1.11 -0.36 C72.09 -0.35, 355.56 -0.14, 426.44 -0.26" stroke="#846358" stroke-width="1.5" fill="none" stroke-dasharray="1.5 7"></path></g></g><mask></mask><g stroke-linecap="round"><g stroke-opacity="0.3" fill-opacity="0.3" transform="translate(161.677561573375 223.27345098671685) rotate(0 213.1860221801453 -0.6633713766932487)"><path d="M-0.02 -0.26 C70.86 -0.38, 355.17 -1.06, 426.39 -1.07" stroke="#846358" stroke-width="1.5" fill="none" stroke-dasharray="1.5 7"></path></g></g><mask></mask><g stroke-linecap="round"><g stroke-opacity="0.3" fill-opacity="0.3" transform="translate(161.86007129668042 320.7169876941689) rotate(0 213.63098434788526 -0.6946657596899968)"><path d="M-0.07 -1.07 C71.16 -1.08, 356.29 -0.65, 427.33 -0.32" stroke="#846358" stroke-width="1.5" fill="none" stroke-dasharray="1.5 7"></path></g></g><mask></mask><g stroke-linecap="round"><g stroke-opacity="0.3" fill-opacity="0.3" transform="translate(161.38692498623186 370.92805106167543) rotate(0 213.52612199169926 0.2946321442723274)"><path d="M0.87 -0.32 C71.91 0.01, 355.27 0.76, 426.18 0.91" stroke="#846358" stroke-width="1.5" fill="none" stroke-dasharray="1.5 7"></path></g></g><mask></mask><g stroke-linecap="round"><g stroke-opacity="0.3" fill-opacity="0.3" transform="translate(162.94137331961429 394.90944373540515) rotate(0 213.01894487721256 0.7641848820699124)"><path d="M-0.28 0.91 C70.63 1.06, 355.37 0.63, 426.32 0.59" stroke="#846358" stroke-width="1.5" fill="none" stroke-dasharray="1.5 7"></path></g></g><mask></mask><g stroke-linecap="round"><g stroke-opacity="0.3" fill-opacity="0.3" transform="translate(161.71687403141323 420.4644351064071) rotate(0 212.63665027005027 0.6201181239980542)"><path d="M-0.14 0.59 C70.81 0.54, 354.17 0.74, 425.42 0.63" stroke="#846358" stroke-width="1.5" fill="none" stroke-dasharray="1.5 7"></path></g></g><mask></mask><g stroke-linecap="round"><g stroke-opacity="0.3" fill-opacity="0.3" transform="translate(163.51173326491153 248.3356904042539) rotate(0 213.13612293583697 0.25020660907011916)"><path d="M-1.04 0.63 C70.2 0.51, 355.9 0.14, 427.32 -0.12" stroke="#846358" stroke-width="1.5" fill="none" stroke-dasharray="1.5 7"></path></g></g><mask></mask><g stroke-linecap="round"><g stroke-opacity="0.3" fill-opacity="0.3" transform="translate(163.16179347454363 297.633492432441) rotate(0 214.15393514019775 -0.5493700410320344)"><path d="M0.85 -0.12 C72.27 -0.39, 356.41 -1.12, 427.45 -0.95" stroke="#846358" stroke-width="1.5" fill="none" stroke-dasharray="1.5 7"></path></g></g><mask></mask><g stroke-linecap="round"><g stroke-opacity="0.3" fill-opacity="0.3" transform="translate(162.41817261694723 272.6225870776616) rotate(0 214.05634664875788 -0.030946974456128373)"><path d="M0.99 -0.95 C72.04 -0.78, 356.27 0.61, 427.12 0.89" stroke="#846358" stroke-width="1.5" fill="none" stroke-dasharray="1.5 7"></path></g></g><mask></mask><g stroke-linecap="round"><g stroke-opacity="0.3" fill-opacity="0.3" transform="translate(161.49575558124843 345.7932202055363) rotate(0 213.38930472714242 0.8311031995240228)"><path d="M0.66 0.89 C71.51 1.16, 355 0.69, 426.12 0.69" stroke="#846358" stroke-width="1.5" fill="none" stroke-dasharray="1.5 7"></path></g></g><mask></mask><g stroke-linecap="round"><g stroke-opacity="0.3" fill-opacity="0.3" transform="translate(162.70302536009604 444.4319289748437) rotate(0 213.52844414097603 0.8259401314644492)"><path d="M-0.34 0.69 C70.78 0.69, 356.12 1.14, 427.4 0.88" stroke="#846358" stroke-width="1.5" fill="none" stroke-dasharray="1.5 7"></path></g></g><mask></mask><g stroke-linecap="round"><g stroke-opacity="0.3" fill-opacity="0.3" transform="translate(161.26561787625496 175.1135828913075) rotate(0 214.12908715588378 0.026072497665609262)"><path d="M0.94 0.88 C72.22 0.63, 356.23 -0.79, 427.32 -0.83" stroke="#846358" stroke-width="1.5" fill="none" stroke-dasharray="1.5 7"></path></g></g><mask></mask><g transform="translate(136.54959328788073 471.22685793019446) rotate(0 6.879997253417969 12.5)"><text x="0" y="0" font-family="Virgil, Segoe UI Emoji" font-size="20px" fill="#1971c2" text-anchor="start" style="white-space: pre;" direction="ltr" dominant-baseline="text-before-edge">0</text></g><g stroke-linecap="round"><g stroke-opacity="0.3" fill-opacity="0.3" transform="translate(187.09393216483886 174.22450066108013) rotate(0 -0.22043767422428573 141.10267412832854)"><path d="M0.38 0.46 C0.15 47.32, -0.79 234.66, -0.82 281.74" stroke="#f08c00" stroke-width="1.5" fill="none" stroke-dasharray="8 9"></path></g></g><mask></mask><g stroke-linecap="round"><g stroke-opacity="0.3" fill-opacity="0.3" transform="translate(220.88012614462468 174.77165399092883) rotate(0 -0.7314894511348484 140.98424165419283)"><path d="M-0.98 -0.09 C-1.11 46.94, -0.58 234.75, -0.46 282.05" stroke="#f08c00" stroke-width="1.5" fill="none" stroke-dasharray="8 9"></path></g></g><mask></mask><g stroke-linecap="round"><g stroke-opacity="0.3" fill-opacity="0.3" transform="translate(253.6842570120134 175.14758948284907) rotate(0 -0.4751673798114098 141.08686961403964)"><path d="M-0.09 -0.46 C-0.21 46.81, -1 235.37, -0.84 282.64" stroke="#f08c00" stroke-width="1.5" fill="none" stroke-dasharray="8 9"></path></g></g><mask></mask><g stroke-linecap="round"><g stroke-opacity="0.3" fill-opacity="0.3" transform="translate(351.8565091647315 175.5297199298784) rotate(0 -0.36277699917559403 141.44111941031133)"><path d="M-0.46 -0.84 C-0.34 46.46, -0.38 236.26, -0.26 283.73" stroke="#f08c00" stroke-width="1.5" fill="none" stroke-dasharray="8 9"></path></g></g><mask></mask><g stroke-linecap="round"><g stroke-opacity="0.3" fill-opacity="0.3" transform="translate(384.8401761551272 174.94852851826454) rotate(0 -0.00852720290436082 141.43303522339966)"><path d="M-0.84 -0.26 C-0.69 47, 0.51 235.98, 0.83 283.13" stroke="#f08c00" stroke-width="1.5" fill="none" stroke-dasharray="8 9"></path></g></g><mask></mask><g stroke-linecap="round"><g stroke-opacity="0.3" fill-opacity="0.3" transform="translate(418.3332817734813 173.85789847869182) rotate(0 -0.016611389815807343 142.40124881437896)"><path d="M-0.26 0.83 C-0.15 48.3, 0.23 236.82, 0.23 283.98" stroke="#f08c00" stroke-width="1.5" fill="none" stroke-dasharray="8 9"></path></g></g><mask></mask><g stroke-linecap="round"><g stroke-opacity="0.3" fill-opacity="0.3" transform="translate(450.13839756682546 174.45525826412904) rotate(0 0.9541053498589918 141.43949898949768)"><path d="M0.83 0.23 C1.15 47.38, 1.07 235.52, 1.08 282.65" stroke="#f08c00" stroke-width="1.5" fill="none" stroke-dasharray="8 9"></path></g></g><mask></mask><g stroke-linecap="round"><g stroke-opacity="0.3" fill-opacity="0.3" transform="translate(483.87201930732317 173.60946112174315) rotate(0 -0.010143855517753764 142.41370213202117)"><path d="M0.23 1.08 C0.23 48.23, -0.23 236.62, -0.25 283.75" stroke="#f08c00" stroke-width="1.5" fill="none" stroke-dasharray="8 9"></path></g></g><mask></mask><g stroke-linecap="round"><g stroke-opacity="0.3" fill-opacity="0.3" transform="translate(285.1480704432729 174.9356009860685) rotate(0 0.9640860436297771 141.3735948967087)"><path d="M1.08 -0.25 C1.08 46.88, 0.87 235.96, 0.85 283" stroke="#f08c00" stroke-width="1.5" fill="none" stroke-dasharray="8 9"></path></g></g><mask></mask><g stroke-linecap="round"><g stroke-opacity="0.3" fill-opacity="0.3" transform="translate(318.8774812664192 173.8329918434074) rotate(0 -0.06840423850803745 142.3572391288626)"><path d="M-0.25 0.85 C-0.27 47.98, 0.21 236.93, 0.1 283.86" stroke="#f08c00" stroke-width="1.5" fill="none" stroke-dasharray="8 9"></path></g></g><mask></mask><g stroke-linecap="round"><g stroke-opacity="0.3" fill-opacity="0.3" transform="translate(515.6529692305603 174.58706644970698) rotate(0 0.9441906847666814 141.04796942940857)"><path d="M0.85 0.1 C0.83 47.14, 1.19 234.81, 0.96 282" stroke="#f08c00" stroke-width="1.5" fill="none" stroke-dasharray="8 9"></path></g></g><mask></mask><g stroke-linecap="round"><g stroke-opacity="0.3" fill-opacity="0.3" transform="translate(549.9951439129454 173.7223871280603) rotate(0 -0.4023295557963138 141.69030707052843)"><path d="M0.1 0.96 C-0.01 47.89, -0.94 235.6, -0.9 282.42" stroke="#f08c00" stroke-width="1.5" fill="none" stroke-dasharray="8 9"></path></g></g><mask></mask><g stroke-linecap="round"><g transform="translate(161.86374715946795 227.42747867545495) rotate(0 11.930062634972273 -26.589036488377133)"><path d="M0.93 -0.27 C4.42 -9.16, 18 -44.28, 21.53 -52.91 M-0.04 -1.46 C3.8 -10.21, 20.33 -42.76, 23.9 -51.53" stroke="#0b7285" stroke-width="1" fill="none"></path></g><g transform="translate(161.86374715946795 227.42747867545495) rotate(0 11.930062634972273 -26.589036488377133)"><path d="M21.06 -24.19 C21.74 -33.1, 24.05 -43.99, 25.79 -49.61 M20.98 -22.19 C23.18 -33.14, 23.58 -44.64, 23.81 -50.67" stroke="#0b7285" stroke-width="1" fill="none"></path></g><g transform="translate(161.86374715946795 227.42747867545495) rotate(0 11.930062634972273 -26.589036488377133)"><path d="M3.33 -32.38 C10.23 -38.57, 18.72 -46.6, 25.79 -49.61 M3.25 -30.38 C11.96 -38.26, 18.94 -46.73, 23.81 -50.67" stroke="#0b7285" stroke-width="1" fill="none"></path></g></g><mask></mask><g stroke-linecap="round"><g transform="translate(161.5140202504199 275.495121986688) rotate(0 13.034895319092584 -48.62619611875061)"><path d="M-0.49 0.93 C3.96 -15.34, 22.04 -80.12, 26.56 -96.59 M1.46 0.38 C5.76 -15.69, 21.56 -82.01, 25.62 -98.19" stroke="#0b7285" stroke-width="1" fill="none"></path></g><g transform="translate(161.5140202504199 275.495121986688) rotate(0 13.034895319092584 -48.62619611875061)"><path d="M30.46 -68.33 C29.35 -76.91, 26.27 -86.91, 25.52 -97 M29.52 -68.9 C28.8 -74.52, 28.09 -81.03, 25.49 -98.62" stroke="#0b7285" stroke-width="1" fill="none"></path></g><g transform="translate(161.5140202504199 275.495121986688) rotate(0 13.034895319092584 -48.62619611875061)"><path d="M10.52 -73.2 C15.23 -80.29, 17.93 -88.88, 25.52 -97 M9.59 -73.77 C13.32 -78.48, 17.09 -83.9, 25.49 -98.62" stroke="#0b7285" stroke-width="1" fill="none"></path></g></g><mask></mask><g stroke-linecap="round"><g transform="translate(161.2068843265738 462.30785126611227) rotate(0 192.37599738901486 -143.70480490304362)"><path d="M-0.54 0.03 C63.38 -47.7, 318.92 -239.8, 382.95 -287.44 M1.38 -0.99 C65.74 -48.5, 321.72 -238.5, 385.29 -286.27" stroke="#6741d9" stroke-width="1" fill="none"></path></g><g transform="translate(161.2068843265738 462.30785126611227) rotate(0 192.37599738901486 -143.70480490304362)"><path d="M368.89 -262.35 C372.06 -267.55, 378.97 -272.97, 384.54 -284.99 M367.93 -262.07 C373.69 -266.74, 376.31 -272.72, 385.51 -287.1" stroke="#6741d9" stroke-width="1" fill="none"></path></g><g transform="translate(161.2068843265738 462.30785126611227) rotate(0 192.37599738901486 -143.70480490304362)"><path d="M356.62 -278.8 C362.75 -279.78, 372.78 -281.03, 384.54 -284.99 M355.66 -278.52 C364.06 -279.55, 369.48 -281.79, 385.51 -287.1" stroke="#6741d9" stroke-width="1" fill="none"></path></g></g><mask></mask><g stroke-linecap="round"><g transform="translate(162.22514192515655 346.583799352019) rotate(0 109.3364408648672 -84.59309207709475)"><path d="M-0.47 1.03 C36.11 -27.16, 182.58 -141.78, 219.14 -170.22 M1.49 0.53 C37.9 -27.39, 181.31 -140.74, 217.96 -168.85" stroke="#846358" stroke-width="1" fill="none"></path></g><g transform="translate(162.22514192515655 346.583799352019) rotate(0 109.3364408648672 -84.59309207709475)"><path d="M203.76 -144.15 C206.04 -151.41, 211.4 -158.61, 219.46 -168.32 M201.15 -142.77 C205.63 -148.27, 208.48 -154.24, 218.53 -169.73" stroke="#846358" stroke-width="1" fill="none"></path></g><g transform="translate(162.22514192515655 346.583799352019) rotate(0 109.3364408648672 -84.59309207709475)"><path d="M191.14 -160.33 C196.69 -163.16, 205.46 -165.99, 219.46 -168.32 M188.53 -158.96 C195.77 -161.12, 201.3 -163.66, 218.53 -169.73" stroke="#846358" stroke-width="1" fill="none"></path></g></g><mask></mask><g stroke-linecap="round"><g transform="translate(159.9829504271038 394.5513505395602) rotate(0 63.571871330400654 -108.24267875277701)"><path d="M0.66 0.87 C21.46 -35.01, 104.19 -179.63, 125.19 -215.77 M-0.45 0.28 C20.71 -35.87, 106.44 -180.99, 127.59 -217.35" stroke="#846358" stroke-width="1" fill="none"></path></g><g transform="translate(159.9829504271038 394.5513505395602) rotate(0 63.571871330400654 -108.24267875277701)"><path d="M123.62 -188.85 C125.84 -196.25, 127.27 -205.84, 128.32 -218.48 M123.13 -186.87 C123.71 -196.32, 124.88 -204.98, 127.42 -216.95" stroke="#846358" stroke-width="1" fill="none"></path></g><g transform="translate(159.9829504271038 394.5513505395602) rotate(0 63.571871330400654 -108.24267875277701)"><path d="M105.92 -199.23 C114.04 -203.25, 121.42 -209.35, 128.32 -218.48 M105.43 -197.25 C111.1 -203.9, 117.32 -209.6, 127.42 -216.95" stroke="#846358" stroke-width="1" fill="none"></path></g></g><mask></mask></svg>
