<svg version="1.1" xmlns="http://www.w3.org/2000/svg" viewBox="0 0 1411.4970927722825 875.2805879349762" width="2822.994185544565" height="1750.5611758699524" filter="invert(93%) hue-rotate(180deg)">
  <!-- svg-source:excalidraw -->
  
  <defs>
    <style class="style-fonts">
      @font-face {
        font-family: "Virgil";
        src: url("https://excalidraw.com/Virgil.woff2");
      }
      @font-face {
        font-family: "Cascadia";
        src: url("https://excalidraw.com/Cascadia.woff2");
      }
    </style>
  </defs>
  <rect x="0" y="0" width="1411.4970927722825" height="875.2805879349762" fill="#f1f3f5"></rect><g stroke-linecap="round" transform="translate(174.90171759633267 355.7421086314853) rotate(0 49.754817690995424 49.754817690995424)"><path d="M72.77 5.61 C80.11 8.61, 87.12 16.26, 91.73 23.3 C96.34 30.34, 100.29 39.44, 100.44 47.85 C100.6 56.26, 96.84 66.41, 92.69 73.74 C88.53 81.06, 82.49 87.66, 75.5 91.8 C68.5 95.94, 58.85 98.19, 50.71 98.58 C42.57 98.98, 33.71 97.89, 26.65 94.17 C19.58 90.45, 12.67 83.58, 8.33 76.27 C3.99 68.96, 0.87 58.74, 0.63 50.31 C0.39 41.87, 3.11 32.98, 6.91 25.68 C10.71 18.39, 16.63 10.9, 23.46 6.53 C30.29 2.15, 38.15 -1.55, 47.89 -0.56 C57.63 0.44, 75.1 9.2, 81.9 12.51 C88.69 15.82, 89.11 18.63, 88.64 19.32 M42.69 -0.54 C50.2 -2.09, 61.16 1.78, 68.85 4.93 C76.55 8.07, 83.61 12.18, 88.87 18.31 C94.12 24.45, 99.14 33.47, 100.37 41.73 C101.59 49.98, 99.69 59.95, 96.24 67.83 C92.78 75.71, 86.42 83.79, 79.64 88.99 C72.85 94.2, 63.49 97.85, 55.54 99.07 C47.58 100.3, 39.53 99.33, 31.93 96.35 C24.32 93.38, 15.37 87.71, 9.89 81.2 C4.42 74.69, -0.11 65.75, -0.93 57.3 C-1.74 48.84, 1.74 38.1, 5.01 30.45 C8.27 22.8, 12.58 16.16, 18.68 11.38 C24.78 6.61, 37.59 3.51, 41.6 1.8 C45.61 0.1, 42.54 0.41, 42.74 1.16" stroke="#1971c2" stroke-width="1" fill="none"></path></g><g transform="translate(221.7645672168519 392.81495733647716) rotate(0 2.7099990844726562 12.5)"><text x="2.7099990844726562" y="0" font-family="Virgil, Segoe UI Emoji" font-size="20px" fill="#1971c2" text-anchor="middle" style="white-space: pre;" direction="ltr" dominant-baseline="text-before-edge">1</text></g><g stroke-linecap="round" transform="translate(167.06898675601042 99.40155393025543) rotate(0 49.754817690995424 49.754817690995424)"><path d="M39.4 1.18 C47.11 -1.16, 57.52 -0.33, 65.3 2.1 C73.08 4.53, 80.42 9.58, 86.08 15.76 C91.74 21.95, 97.31 30.92, 99.26 39.19 C101.2 47.45, 100.51 57.48, 97.75 65.35 C94.99 73.22, 88.92 80.95, 82.67 86.4 C76.42 91.84, 68.23 96.33, 60.24 98.02 C52.25 99.7, 42.47 98.81, 34.73 96.51 C26.99 94.2, 19.48 90.13, 13.8 84.18 C8.12 78.22, 2.72 68.97, 0.64 60.78 C-1.43 52.6, -1.22 43.09, 1.35 35.07 C3.92 27.05, 8.74 18.53, 16.06 12.65 C23.38 6.78, 39.73 1.85, 45.29 -0.16 C50.85 -2.18, 49.63 -0.33, 49.41 0.56 M32.69 2.13 C39.84 -1.54, 48.53 -0.4, 56.66 1.03 C64.79 2.46, 74.94 5.7, 81.47 10.72 C88.01 15.74, 93.09 23.47, 95.88 31.17 C98.68 38.86, 99.58 48.76, 98.25 56.88 C96.91 65, 92.74 73.11, 87.88 79.88 C83.01 86.65, 76.94 94.55, 69.05 97.48 C61.16 100.41, 48.89 98.85, 40.54 97.44 C32.18 96.02, 25.17 93.81, 18.91 88.98 C12.66 84.15, 6.15 76.2, 3 68.46 C-0.15 60.72, -1.44 50.76, 0.01 42.56 C1.47 34.36, 6.37 25.86, 11.72 19.24 C17.06 12.62, 28.85 5.46, 32.07 2.84 C35.28 0.21, 30.9 2.51, 30.99 3.49" stroke="#e03131" stroke-width="1" fill="none"></path></g><g transform="translate(213.93183637652965 136.47440263524732) rotate(0 2.7099990844726562 12.5)"><text x="2.7099990844726562" y="0" font-family="Virgil, Segoe UI Emoji" font-size="20px" fill="#e03131" text-anchor="middle" style="white-space: pre;" direction="ltr" dominant-baseline="text-before-edge">1</text></g><g stroke-linecap="round" transform="translate(59.8184553883666 614.5335199388364) rotate(0 49.754817690995424 49.754817690995424)"><path d="M55.48 0.03 C63.38 0.18, 72.28 4.15, 78.95 9.06 C85.61 13.97, 92.19 21.92, 95.49 29.48 C98.78 37.04, 99.51 45.99, 98.74 54.42 C97.96 62.84, 95.79 73.18, 90.84 80.05 C85.89 86.93, 76.8 92.58, 69.03 95.67 C61.25 98.76, 52.4 99.6, 44.2 98.58 C35.99 97.56, 26.28 94.26, 19.79 89.52 C13.3 84.78, 8.45 77.64, 5.23 70.15 C2.01 62.66, -0.34 52.74, 0.48 44.58 C1.3 36.42, 5.32 27.79, 10.16 21.2 C15.01 14.6, 21.36 8.22, 29.56 5.01 C37.76 1.8, 53.53 2.16, 59.37 1.94 C65.21 1.72, 64.6 2.95, 64.58 3.69 M32.82 3.72 C39.86 0.24, 48.77 0.62, 57.11 1.76 C65.44 2.91, 76.4 5.51, 82.84 10.6 C89.27 15.69, 93.06 24.53, 95.71 32.31 C98.35 40.1, 99.74 48.91, 98.7 57.29 C97.66 65.68, 94.53 76.11, 89.46 82.63 C84.4 89.14, 76.42 93.62, 68.3 96.39 C60.18 99.15, 49.16 100.65, 40.76 99.23 C32.36 97.81, 24.22 93.38, 17.9 87.88 C11.58 82.38, 5.85 73.88, 2.84 66.23 C-0.16 58.58, -1.44 50.01, -0.13 41.98 C1.17 33.95, 5.15 24.52, 10.69 18.05 C16.24 11.59, 29.26 5.62, 33.13 3.2 C37 0.77, 33.73 2.79, 33.89 3.51" stroke="#e03131" stroke-width="1" fill="none"></path></g><g transform="translate(86.62132270908114 651.6063686438283) rotate(0 22.769981384277344 12.5)"><text x="22.769981384277344" y="0" font-family="Virgil, Segoe UI Emoji" font-size="20px" fill="#e03131" text-anchor="middle" style="white-space: pre;" direction="ltr" dominant-baseline="text-before-edge">head</text></g><g stroke-linecap="round" transform="translate(295.52496093506943 614.2098399535598) rotate(0 49.754817690995424 49.754817690995424)"><path d="M35.32 2.89 C42.71 -0.08, 53.17 -0.74, 61.14 0.86 C69.12 2.46, 77.08 6.86, 83.18 12.48 C89.28 18.11, 95.14 26.39, 97.75 34.61 C100.36 42.82, 100.74 53.52, 98.82 61.75 C96.89 69.97, 92.03 77.93, 86.2 83.96 C80.36 89.99, 71.83 95.44, 63.82 97.95 C55.8 100.46, 45.98 101.13, 38.11 99.02 C30.25 96.91, 22.75 91.11, 16.65 85.28 C10.55 79.46, 3.98 71.9, 1.51 64.07 C-0.95 56.24, -0.25 46.44, 1.87 38.31 C3.99 30.17, 8.18 21.48, 14.23 15.26 C20.28 9.04, 33.53 3.18, 38.18 0.99 C42.83 -1.21, 42.01 1.3, 42.14 2.1 M36.8 2.35 C44.45 -0.46, 55.26 -1.45, 63.42 0.6 C71.57 2.65, 79.83 8.72, 85.73 14.64 C91.63 20.55, 96.69 28.03, 98.82 36.09 C100.95 44.15, 100.7 54.56, 98.52 63 C96.34 71.45, 91.77 80.8, 85.77 86.76 C79.76 92.72, 70.6 96.83, 62.47 98.77 C54.35 100.71, 44.84 100.91, 37.02 98.39 C29.2 95.86, 21.62 89.95, 15.55 83.63 C9.47 77.32, 2.62 68.63, 0.56 60.5 C-1.49 52.37, 0.67 42.58, 3.23 34.85 C5.79 27.11, 10.09 19.7, 15.91 14.09 C21.72 8.49, 34.54 3.05, 38.11 1.21 C41.68 -0.63, 37.11 2, 37.35 3.07" stroke="#e03131" stroke-width="1" fill="none"></path></g><g transform="translate(342.38781055558866 651.2826886585517) rotate(0 2.7099990844726562 12.5)"><text x="2.7099990844726562" y="0" font-family="Virgil, Segoe UI Emoji" font-size="20px" fill="#e03131" text-anchor="middle" style="white-space: pre;" direction="ltr" dominant-baseline="text-before-edge">1</text></g><g stroke-linecap="round" transform="translate(363.1003534277006 360.20418063065426) rotate(0 49.754817690995424 49.754817690995424)"><path d="M47.45 0.88 C55.3 -0.23, 64.81 1.33, 72.3 4.83 C79.8 8.33, 87.85 14.9, 92.42 21.89 C97 28.88, 99.53 38.35, 99.73 46.77 C99.94 55.19, 97.57 64.92, 93.64 72.39 C89.7 79.85, 82.91 86.99, 76.12 91.56 C69.34 96.13, 61.14 99.29, 52.9 99.81 C44.67 100.33, 34.35 98.44, 26.7 94.68 C19.06 90.93, 11.33 84.42, 7.04 77.3 C2.74 70.17, 1.26 60.19, 0.93 51.92 C0.6 43.65, 1.6 34.88, 5.08 27.7 C8.55 20.52, 13.5 13.45, 21.8 8.86 C30.11 4.26, 48.19 1.03, 54.9 0.11 C61.62 -0.81, 62.03 2.6, 62.1 3.33 M33.86 1.84 C40.83 -1.1, 51.46 0.41, 59.68 2.18 C67.9 3.95, 76.85 7.05, 83.19 12.49 C89.53 17.92, 95.17 26.57, 97.72 34.78 C100.27 42.99, 100.35 53.61, 98.47 61.74 C96.59 69.88, 92.19 77.76, 86.44 83.58 C80.7 89.4, 71.75 94.18, 63.98 96.66 C56.21 99.13, 47.65 100.17, 39.83 98.44 C32 96.71, 23.16 91.72, 17.03 86.27 C10.89 80.82, 5.78 73.68, 3.03 65.73 C0.28 57.78, -1.04 46.95, 0.51 38.56 C2.06 30.17, 6.76 21.37, 12.33 15.4 C17.91 9.43, 30.21 4.9, 33.95 2.74 C37.69 0.59, 34.53 1.61, 34.77 2.46" stroke="#1971c2" stroke-width="1" fill="none"></path></g><g transform="translate(405.86320457409875 397.27702933564615) rotate(0 6.80999755859375 12.5)"><text x="6.80999755859375" y="0" font-family="Virgil, Segoe UI Emoji" font-size="20px" fill="#1971c2" text-anchor="middle" style="white-space: pre;" direction="ltr" dominant-baseline="text-before-edge">3</text></g><g stroke-linecap="round" transform="translate(878.5416255021455 624.3801761963487) rotate(0 49.754817690995424 49.754817690995424)"><path d="M37.06 1.34 C44.21 -1.7, 53.33 -0.78, 61.16 1.27 C68.98 3.32, 77.92 7.86, 83.99 13.64 C90.07 19.42, 95.28 27.98, 97.58 35.97 C99.88 43.96, 99.78 53.34, 97.78 61.58 C95.77 69.83, 91.13 79.5, 85.52 85.43 C79.92 91.35, 72.29 94.9, 64.17 97.13 C56.05 99.37, 44.83 100.8, 36.81 98.84 C28.78 96.88, 21.78 91.43, 16.02 85.37 C10.27 79.31, 4.68 70.52, 2.27 62.48 C-0.14 54.44, -0.52 45.19, 1.58 37.15 C3.68 29.11, 8.01 20.33, 14.87 14.25 C21.72 8.17, 37.46 2.78, 42.73 0.65 C47.99 -1.48, 46.4 0.59, 46.46 1.49 M56.06 1.85 C64.22 2.11, 75.13 5.12, 82 9.94 C88.87 14.76, 94.39 22.74, 97.28 30.75 C100.18 38.76, 100.77 49.57, 99.35 57.99 C97.93 66.42, 94.19 74.97, 88.75 81.29 C83.31 87.6, 74.46 92.97, 66.7 95.91 C58.93 98.85, 50.16 100.04, 42.17 98.93 C34.17 97.81, 25.16 94.35, 18.73 89.21 C12.3 84.07, 6.68 75.7, 3.57 68.08 C0.46 60.46, -1.27 51.51, 0.07 43.48 C1.4 35.45, 6.17 26.41, 11.58 19.92 C16.99 13.44, 24.96 7.9, 32.51 4.58 C40.07 1.25, 52.92 0.47, 56.91 -0.01 C60.9 -0.5, 56.38 0.58, 56.46 1.67" stroke="#1971c2" stroke-width="1" fill="none"></path></g><g transform="translate(921.3044766485436 661.4530249013405) rotate(0 6.80999755859375 12.5)"><text x="6.80999755859375" y="0" font-family="Virgil, Segoe UI Emoji" font-size="20px" fill="#1971c2" text-anchor="middle" style="white-space: pre;" direction="ltr" dominant-baseline="text-before-edge">3</text></g><g stroke-linecap="round" transform="translate(494.32797640661556 622.5843911835645) rotate(0 49.754817690995424 49.754817690995424)"><path d="M53.97 0.75 C61.98 1.05, 72.58 5.28, 79.41 9.91 C86.23 14.55, 91.72 21.19, 94.93 28.55 C98.14 35.91, 99.49 45.57, 98.66 54.07 C97.82 62.57, 94.73 72.77, 89.91 79.55 C85.08 86.33, 77.13 91.65, 69.69 94.76 C62.25 97.88, 53.4 99.09, 45.28 98.25 C37.16 97.41, 27.94 94.33, 20.99 89.74 C14.04 85.15, 6.96 78.17, 3.58 70.73 C0.2 63.28, -0.2 53.55, 0.72 45.08 C1.63 36.61, 4.15 26.59, 9.06 19.9 C13.97 13.22, 22.03 8.32, 30.18 4.97 C38.32 1.63, 52.74 0.26, 57.92 -0.19 C63.1 -0.63, 61.36 1.46, 61.26 2.29 M51.06 0.48 C59.07 0.06, 69.3 1.65, 76.23 6.23 C83.17 10.8, 88.96 20.13, 92.67 27.95 C96.39 35.77, 98.73 45.12, 98.54 53.14 C98.34 61.17, 95.58 69.53, 91.52 76.1 C87.47 82.67, 81.48 88.77, 74.21 92.55 C66.94 96.34, 56.57 98.94, 47.9 98.8 C39.23 98.66, 29.42 96.1, 22.22 91.74 C15.01 87.37, 8.24 79.85, 4.69 72.62 C1.14 65.39, 0.41 56.39, 0.93 48.35 C1.45 40.32, 3.47 31.66, 7.8 24.43 C12.14 17.2, 19.78 8.99, 26.92 4.97 C34.06 0.94, 46.34 1.15, 50.64 0.28 C54.93 -0.58, 52.74 -0.94, 52.69 -0.22" stroke="#1971c2" stroke-width="1" fill="none"></path></g><g transform="translate(541.1908260271348 659.6572398885564) rotate(0 2.7099990844726562 12.5)"><text x="2.7099990844726562" y="0" font-family="Virgil, Segoe UI Emoji" font-size="20px" fill="#1971c2" text-anchor="middle" style="white-space: pre;" direction="ltr" dominant-baseline="text-before-edge">1</text></g><g stroke-linecap="round" transform="translate(355.26762258737836 103.86362592942442) rotate(0 49.754817690995424 49.754817690995424)"><path d="M37.31 2.05 C44.8 -0.75, 54.88 -0.93, 62.79 1.36 C70.69 3.64, 78.89 9.68, 84.75 15.77 C90.62 21.85, 95.75 30.08, 97.99 37.86 C100.23 45.64, 100.46 54.57, 98.21 62.43 C95.96 70.3, 90.57 79.15, 84.51 85.08 C78.46 91, 70.01 95.74, 61.89 97.98 C53.77 100.22, 43.6 100.83, 35.82 98.53 C28.03 96.22, 20.83 90.35, 15.19 84.13 C9.55 77.92, 4.14 69.21, 1.98 61.24 C-0.18 53.26, 0.12 43.97, 2.21 36.3 C4.3 28.62, 8.13 21.16, 14.54 15.19 C20.94 9.21, 35.63 2.94, 40.64 0.45 C45.66 -2.03, 44.41 -0.47, 44.62 0.28 M29.06 3.1 C35.84 -0.72, 47.77 -0.34, 56.13 0.75 C64.5 1.84, 72.8 4.82, 79.24 9.63 C85.67 14.43, 91.53 21.98, 94.74 29.58 C97.94 37.17, 99.53 46.6, 98.47 55.19 C97.4 63.78, 93 74.62, 88.34 81.11 C83.69 87.59, 78.22 91.02, 70.55 94.1 C62.88 97.19, 50.68 100.44, 42.33 99.64 C33.98 98.83, 26.7 94.42, 20.46 89.26 C14.22 84.1, 8.14 76.16, 4.89 68.68 C1.64 61.21, -0.01 52.51, 0.97 44.4 C1.95 36.29, 5.97 26.96, 10.77 20.01 C15.57 13.06, 26.58 5.38, 29.77 2.68 C32.95 -0.02, 29.34 2.59, 29.88 3.81" stroke="#e03131" stroke-width="1" fill="none"></path></g><g transform="translate(397.72047617518274 140.9364746344163) rotate(0 7.1199951171875 12.5)"><text x="7.1199951171875" y="0" font-family="Virgil, Segoe UI Emoji" font-size="20px" fill="#e03131" text-anchor="middle" style="white-space: pre;" direction="ltr" dominant-baseline="text-before-edge">2</text></g><g stroke-linecap="round" transform="translate(689.3113983271414 631.8060622987232) rotate(0 49.754817690995424 49.754817690995424)"><path d="M26.04 6.75 C32.67 2.28, 42.57 -0.85, 50.8 -0.71 C59.03 -0.56, 68.23 3.12, 75.42 7.6 C82.62 12.09, 90 18.9, 93.96 26.21 C97.92 33.52, 99.49 43.32, 99.19 51.47 C98.9 59.62, 96.39 68.15, 92.2 75.12 C88 82.1, 81.48 89.41, 74.04 93.32 C66.61 97.23, 56.03 98.75, 47.57 98.59 C39.11 98.43, 30.23 96.53, 23.28 92.36 C16.33 88.19, 9.81 81.07, 5.89 73.58 C1.97 66.09, -0.58 55.66, -0.23 47.42 C0.12 39.19, 3.15 31.27, 8 24.18 C12.85 17.08, 24.68 8.18, 28.86 4.85 C33.05 1.53, 32.67 3.7, 33.09 4.25 M47.43 0.1 C55.16 -0.92, 64.58 2.41, 72.07 6.02 C79.56 9.63, 88.02 14.72, 92.35 21.75 C96.68 28.77, 97.7 39.84, 98.08 48.15 C98.45 56.46, 98.16 64.36, 94.59 71.62 C91.03 78.88, 83.45 87.08, 76.7 91.72 C69.94 96.35, 62.45 98.81, 54.08 99.44 C45.7 100.07, 34.18 99.35, 26.42 95.5 C18.65 91.64, 11.95 83.3, 7.48 76.33 C3.02 69.35, -0.17 61.93, -0.38 53.65 C-0.6 45.36, 2.4 34.05, 6.2 26.62 C9.99 19.19, 15.7 13.33, 22.39 9.06 C29.08 4.79, 42.31 2.5, 46.34 1 C50.37 -0.51, 46.43 -0.62, 46.58 0.03" stroke="#e03131" stroke-width="1" fill="none"></path></g><g transform="translate(731.7642519149458 668.8789110037151) rotate(0 7.1199951171875 12.5)"><text x="7.1199951171875" y="0" font-family="Virgil, Segoe UI Emoji" font-size="20px" fill="#e03131" text-anchor="middle" style="white-space: pre;" direction="ltr" dominant-baseline="text-before-edge">2</text></g><g stroke-linecap="round" transform="translate(551.5795830954185 346.5204692015286) rotate(0 49.754817690995424 49.754817690995424)"><path d="M44.83 0.18 C52.57 -1.32, 61.51 1.59, 68.84 4.96 C76.17 8.32, 83.84 13.91, 88.81 20.35 C93.78 26.8, 97.58 35.53, 98.67 43.62 C99.77 51.7, 98.57 61.08, 95.36 68.86 C92.16 76.65, 86.04 85.36, 79.46 90.35 C72.87 95.34, 64 98.13, 55.86 98.82 C47.73 99.52, 38.26 97.59, 30.67 94.51 C23.09 91.42, 15.49 86.88, 10.38 80.31 C5.27 73.74, 0.96 63.64, 0.02 55.1 C-0.92 46.56, 1.23 36.65, 4.72 29.06 C8.21 21.47, 13.37 14.49, 20.96 9.54 C28.56 4.6, 44.24 0.63, 50.32 -0.6 C56.4 -1.83, 57.54 1.34, 57.43 2.17 M63.39 0.77 C71.21 2.44, 81.01 8.66, 86.65 14.92 C92.3 21.19, 95.5 30.21, 97.24 38.38 C98.99 46.56, 99.16 56.03, 97.11 63.96 C95.06 71.9, 90.9 80.38, 84.95 86.01 C79 91.64, 69.75 95.62, 61.44 97.74 C53.13 99.86, 43.02 100.81, 35.1 98.73 C27.19 96.66, 19.57 91.35, 13.97 85.29 C8.37 79.23, 3.28 70.74, 1.51 62.36 C-0.25 53.98, 1.09 43.28, 3.4 35.01 C5.7 26.75, 9.66 18.57, 15.35 12.76 C21.04 6.96, 29.38 2.1, 37.54 0.19 C45.7 -1.72, 60.09 1.06, 64.3 1.31 C68.5 1.56, 62.95 1.01, 62.78 1.71" stroke="#1971c2" stroke-width="1" fill="none"></path></g><g transform="translate(594.752437903926 383.5933179065205) rotate(0 6.399993896484375 12.5)"><text x="6.399993896484375" y="0" font-family="Virgil, Segoe UI Emoji" font-size="20px" fill="#1971c2" text-anchor="middle" style="white-space: pre;" direction="ltr" dominant-baseline="text-before-edge">4</text></g><g stroke-linecap="round" transform="translate(1259.1302240725954 615.3692359860252) rotate(0 49.754817690995424 49.754817690995424)"><path d="M63.2 1.43 C71.27 2.75, 80.53 8.05, 86.24 14.08 C91.96 20.11, 95.56 29.31, 97.47 37.61 C99.39 45.91, 99.8 55.8, 97.74 63.88 C95.67 71.97, 90.88 80.43, 85.09 86.14 C79.3 91.85, 71.08 96.15, 62.99 98.14 C54.9 100.13, 44.86 100.31, 36.56 98.06 C28.26 95.81, 18.97 90.73, 13.21 84.63 C7.45 78.52, 3.82 69.33, 2 61.43 C0.17 53.53, -0.07 45.02, 2.25 37.21 C4.56 29.4, 9.98 20.54, 15.89 14.56 C21.79 8.57, 28.94 3.25, 37.68 1.32 C46.42 -0.6, 62.49 2.18, 68.33 3.01 C74.16 3.84, 72.88 5.32, 72.69 6.32 M41.36 0.78 C48.91 -1.37, 59.27 0.67, 67 3.5 C74.74 6.33, 82.61 11.34, 87.77 17.75 C92.93 24.17, 96.63 34.03, 97.96 42.01 C99.29 49.98, 98.25 58.06, 95.74 65.62 C93.23 73.18, 89.01 81.71, 82.89 87.35 C76.78 92.99, 67.6 97.83, 59.05 99.47 C50.5 101.12, 39.54 99.99, 31.6 97.2 C23.65 94.4, 16.51 89.26, 11.39 82.73 C6.26 76.19, 2.43 66.29, 0.85 57.98 C-0.73 49.66, -0.8 40.28, 1.89 32.83 C4.58 25.39, 10.51 18.78, 17 13.31 C23.49 7.84, 36.88 1.85, 40.83 0.04 C44.78 -1.77, 40.32 1.62, 40.71 2.46" stroke="#1971c2" stroke-width="1" fill="none"></path></g><g transform="translate(1302.303078881103 652.442084691017) rotate(0 6.399993896484375 12.5)"><text x="6.399993896484375" y="0" font-family="Virgil, Segoe UI Emoji" font-size="20px" fill="#1971c2" text-anchor="middle" style="white-space: pre;" direction="ltr" dominant-baseline="text-before-edge">4</text></g><g stroke-linecap="round" transform="translate(543.7468522550962 90.17991450029876) rotate(0 49.754817690995424 49.754817690995424)"><path d="M37.5 1.41 C44.81 -1.38, 54.27 -0.96, 62.35 1.26 C70.42 3.49, 79.94 8.71, 85.96 14.76 C91.97 20.81, 96.57 29.56, 98.44 37.54 C100.31 45.53, 99.47 54.8, 97.17 62.66 C94.88 70.53, 90.44 78.96, 84.66 84.71 C78.89 90.47, 70.39 94.87, 62.53 97.2 C54.68 99.52, 45.63 100.67, 37.54 98.68 C29.44 96.68, 20.09 91.18, 13.95 85.21 C7.8 79.24, 2.72 71.01, 0.66 62.88 C-1.41 54.74, -0.93 44.53, 1.56 36.39 C4.05 28.24, 9.28 19.97, 15.6 14 C21.92 8.04, 35.11 2.67, 39.47 0.58 C43.83 -1.51, 41.65 0.72, 41.75 1.47 M72.51 6.39 C79.72 9.63, 88.07 16.42, 92.51 23.29 C96.95 30.15, 99.1 39.33, 99.16 47.57 C99.22 55.81, 96.86 65.5, 92.88 72.72 C88.91 79.95, 82.02 86.24, 75.31 90.92 C68.61 95.59, 61.09 100.56, 52.65 100.76 C44.21 100.95, 32.16 96.13, 24.7 92.07 C17.23 88.02, 12.03 83.08, 7.87 76.41 C3.71 69.74, 0.14 60.34, -0.27 52.06 C-0.69 43.78, 1.28 34.03, 5.38 26.72 C9.47 19.41, 17.1 12.72, 24.28 8.2 C31.46 3.67, 40.5 0.06, 48.47 -0.44 C56.43 -0.93, 68.2 3.9, 72.09 5.24 C75.99 6.59, 71.77 7, 71.83 7.65" stroke="#e03131" stroke-width="1" fill="none"></path></g><g transform="translate(586.9197070636037 127.25276320529065) rotate(0 6.399993896484375 12.5)"><text x="6.399993896484375" y="0" font-family="Virgil, Segoe UI Emoji" font-size="20px" fill="#e03131" text-anchor="middle" style="white-space: pre;" direction="ltr" dominant-baseline="text-before-edge">4</text></g><g stroke-linecap="round" transform="translate(1068.9992031357615 625.6036524815809) rotate(0 49.754817690995424 49.754817690995424)"><path d="M41.48 -0.01 C48.86 -1.98, 58.58 0.94, 66.51 4.13 C74.45 7.33, 83.85 12.86, 89.12 19.17 C94.39 25.48, 96.81 33.85, 98.15 42 C99.49 50.14, 99.95 60.18, 97.17 68.05 C94.39 75.92, 88.14 84.08, 81.47 89.24 C74.81 94.39, 65.35 97.86, 57.18 98.98 C49.01 100.09, 40.14 98.76, 32.44 95.93 C24.75 93.09, 16.3 88.25, 11.02 81.96 C5.74 75.66, 2.04 66.65, 0.75 58.16 C-0.54 49.67, 0.47 38.89, 3.29 31.01 C6.11 23.13, 10 15.91, 17.68 10.88 C25.36 5.84, 42.81 2.52, 49.39 0.79 C55.96 -0.93, 57.07 -0.03, 57.16 0.53 M63.78 2.98 C71.29 4.87, 80.1 11.46, 86.02 17.74 C91.95 24.02, 97.39 32.81, 99.33 40.66 C101.28 48.5, 100.57 57.16, 97.67 64.82 C94.77 72.47, 88.18 81.16, 81.95 86.61 C75.71 92.06, 68.29 95.61, 60.25 97.52 C52.22 99.43, 41.57 100.55, 33.71 98.07 C25.86 95.58, 18.58 88.85, 13.13 82.61 C7.68 76.37, 2.81 68.79, 1 60.65 C-0.81 52.51, -0.28 41.81, 2.28 33.76 C4.84 25.72, 9.98 17.87, 16.34 12.39 C22.7 6.91, 32.58 2.54, 40.43 0.88 C48.28 -0.79, 59.53 1.88, 63.46 2.39 C67.4 2.91, 64.3 3.22, 64.06 3.96" stroke="#e03131" stroke-width="1" fill="none"></path></g><g transform="translate(1112.172057944269 662.6765011865728) rotate(0 6.399993896484375 12.5)"><text x="6.399993896484375" y="0" font-family="Virgil, Segoe UI Emoji" font-size="20px" fill="#e03131" text-anchor="middle" style="white-space: pre;" direction="ltr" dominant-baseline="text-before-edge">4</text></g><g stroke-linecap="round"><g transform="translate(284.7599272821053 398.8241268039674) rotate(0 29.92519407697455 4.94819286231359)"><path d="M0.44 0.39 C10.66 1.96, 50.7 8.63, 60.64 10.35 M-0.78 -0.45 C9.37 0.7, 49.87 7.06, 59.85 8.63" stroke="#1971c2" stroke-width="1" fill="none"></path></g><g transform="translate(284.7599272821053 398.8241268039674) rotate(0 29.92519407697455 4.94819286231359)"><path d="M31.07 14.95 C38.8 12.46, 46.54 10.89, 58.76 10.42 M30.38 15.23 C41.84 11.62, 53.4 10.92, 59.62 7.65" stroke="#1971c2" stroke-width="1" fill="none"></path></g><g transform="translate(284.7599272821053 398.8241268039674) rotate(0 29.92519407697455 4.94819286231359)"><path d="M34.24 -5.33 C41.36 -2.89, 48.33 0.45, 58.76 10.42 M33.55 -5.05 C43.63 -0.7, 53.93 6.58, 59.62 7.65" stroke="#1971c2" stroke-width="1" fill="none"></path></g></g><mask></mask><g stroke-linecap="round"><g transform="translate(800.2011993565502 663.0001223696618) rotate(0 30.412389209386674 5.267461214516516)"><path d="M-0.66 0.67 C9.63 2.38, 51.43 9.24, 61.49 10.56 M1.19 -0.02 C11.45 1.34, 51.59 7.39, 61.15 8.95" stroke="#1971c2" stroke-width="1" fill="none"></path></g><g transform="translate(800.2011993565502 663.0001223696618) rotate(0 30.412389209386674 5.267461214516516)"><path d="M32.83 16.71 C41.59 12.23, 46.51 11.16, 60.22 8.02 M31.31 14.88 C41.36 14, 48.56 10.69, 62.01 9.93" stroke="#1971c2" stroke-width="1" fill="none"></path></g><g transform="translate(800.2011993565502 663.0001223696618) rotate(0 30.412389209386674 5.267461214516516)"><path d="M35.99 -3.57 C43.91 -2.39, 47.95 2.21, 60.22 8.02 M34.47 -5.4 C43.54 -0.31, 49.8 2.34, 62.01 9.93" stroke="#1971c2" stroke-width="1" fill="none"></path></g></g><mask></mask><g stroke-linecap="round"><g transform="translate(471.21399502777876 407.4841306789376) rotate(0 33.85055073642707 -3.685509129149068)"><path d="M0.29 -0.36 C11.87 -1.27, 57.44 -4.34, 68.72 -5 M-1.02 -1.59 C10.49 -2.93, 56.6 -6.25, 67.94 -7.01" stroke="#1971c2" stroke-width="1" fill="none"></path></g><g transform="translate(471.21399502777876 407.4841306789376) rotate(0 33.85055073642707 -3.685509129149068)"><path d="M39.95 5.73 C47.36 1.53, 55.01 -1.49, 67.82 -5.41 M40.17 4.92 C47.72 1.22, 56.03 -0.93, 67.55 -6.3" stroke="#1971c2" stroke-width="1" fill="none"></path></g><g transform="translate(471.21399502777876 407.4841306789376) rotate(0 33.85055073642707 -3.685509129149068)"><path d="M38.49 -14.74 C46.34 -14.07, 54.33 -12.22, 67.82 -5.41 M38.71 -15.55 C46.5 -13.22, 55.23 -9.34, 67.55 -6.3" stroke="#1971c2" stroke-width="1" fill="none"></path></g></g><mask></mask><g stroke-linecap="round"><g transform="translate(1178.7646360049557 676.3328974634342) rotate(0 33.85152958860226 -2.2152789675642452)"><path d="M0.66 -1.14 C12.2 -2.19, 56.95 -4.79, 68.16 -5.3 M-0.45 0.87 C11 -0.07, 55.86 -2.66, 67.07 -3.81" stroke="#1971c2" stroke-width="1" fill="none"></path></g><g transform="translate(1178.7646360049557 676.3328974634342) rotate(0 33.85152958860226 -2.2152789675642452)"><path d="M37.85 8.16 C45.25 4.95, 52.84 1.29, 66.06 -3.62 M40.49 9.59 C48.31 4.9, 57.03 -0.17, 67.24 -3.34" stroke="#1971c2" stroke-width="1" fill="none"></path></g><g transform="translate(1178.7646360049557 676.3328974634342) rotate(0 33.85152958860226 -2.2152789675642452)"><path d="M36.27 -12.3 C44.17 -11.22, 52.09 -10.57, 66.06 -3.62 M38.91 -10.87 C47.34 -9.23, 56.56 -7.95, 67.24 -3.34" stroke="#1971c2" stroke-width="1" fill="none"></path></g></g><mask></mask><g stroke-linecap="round"><g transform="translate(274.5606364103769 152.32127913666682) rotate(0 35.72687106993817 -2.414316975526617)"><path d="M-0.65 -0.18 C10.95 -0.79, 57.88 -3.73, 69.77 -4.65 M1.21 -1.32 C13.18 -1.64, 60.63 -2.49, 72.1 -3.09" stroke="#c92a2a" stroke-width="1" fill="none"></path></g><g transform="translate(274.5606364103769 152.32127913666682) rotate(0 35.72687106993817 -2.414316975526617)"><path d="M43.96 6.86 C53.18 5.06, 60.2 1.7, 73.24 -3.52 M45.03 7.71 C54.94 4.71, 63.87 0.09, 71.66 -3.66" stroke="#c92a2a" stroke-width="1" fill="none"></path></g><g transform="translate(274.5606364103769 152.32127913666682) rotate(0 35.72687106993817 -2.414316975526617)"><path d="M43.3 -13.65 C52.56 -8.99, 59.79 -5.9, 73.24 -3.52 M44.36 -12.8 C54.35 -8.73, 63.5 -6.28, 71.66 -3.66" stroke="#c92a2a" stroke-width="1" fill="none"></path></g></g><mask></mask><g stroke-linecap="round"><g transform="translate(608.60441215014 680.2637155059656) rotate(0 34.52954615704539 -1.5842427224442872)"><path d="M-1.19 -0.71 C10.68 -1.53, 58.15 -3.98, 70.25 -4.7 M0.38 1.54 C12.16 0.9, 57.38 -2.27, 69.17 -3.17" stroke="#c92a2a" stroke-width="1" fill="none"></path></g><g transform="translate(608.60441215014 680.2637155059656) rotate(0 34.52954615704539 -1.5842427224442872)"><path d="M40.62 8.68 C47.74 8.16, 53.17 2.55, 68.45 -2.67 M42.17 9.14 C50.59 5.52, 60.55 -0.16, 68.27 -3.62" stroke="#c92a2a" stroke-width="1" fill="none"></path></g><g transform="translate(608.60441215014 680.2637155059656) rotate(0 34.52954615704539 -1.5842427224442872)"><path d="M39.13 -11.79 C46.62 -7.81, 52.37 -8.94, 68.45 -2.67 M40.68 -11.32 C49.65 -7.86, 60.12 -6.46, 68.27 -3.62" stroke="#c92a2a" stroke-width="1" fill="none"></path></g></g><mask></mask><g stroke-linecap="round"><g transform="translate(468.2948534148254 151.22067708609302) rotate(0 29.790467815415923 -2.70793374362529)"><path d="M-0.59 0.75 C9.6 -0.22, 50.1 -3.61, 60.17 -4.63 M1.31 0.1 C11.49 -0.67, 49.96 -4.9, 59.62 -6.17" stroke="#c92a2a" stroke-width="1" fill="none"></path></g><g transform="translate(468.2948534148254 151.22067708609302) rotate(0 29.790467815415923 -2.70793374362529)"><path d="M34.23 8.54 C40.53 5.13, 45.12 3.3, 59.24 -8.09 M33.26 7.52 C43.5 2.26, 51.54 -3.25, 60.45 -5.71" stroke="#c92a2a" stroke-width="1" fill="none"></path></g><g transform="translate(468.2948534148254 151.22067708609302) rotate(0 29.790467815415923 -2.70793374362529)"><path d="M31.83 -11.73 C38.86 -10.69, 43.97 -8.09, 59.24 -8.09 M30.86 -12.75 C42.18 -10.63, 51.08 -8.74, 60.45 -5.71" stroke="#c92a2a" stroke-width="1" fill="none"></path></g></g><mask></mask><g stroke-linecap="round"><g transform="translate(993.5472042954907 686.6444150673751) rotate(0 30.09451046766526 -2.697540823287909)"><path d="M-0.38 0.85 C9.78 -0.38, 50.73 -4.95, 60.57 -6.25 M1.62 0.25 C11.76 -0.3, 50.31 -3.88, 60.23 -4.97" stroke="#c92a2a" stroke-width="1" fill="none"></path></g><g transform="translate(993.5472042954907 686.6444150673751) rotate(0 30.09451046766526 -2.697540823287909)"><path d="M34.76 9.9 C39.58 3.33, 45.58 2.85, 61.72 -3.39 M33.87 8.31 C40.28 4.34, 45.61 2.29, 59.93 -5.08" stroke="#c92a2a" stroke-width="1" fill="none"></path></g><g transform="translate(993.5472042954907 686.6444150673751) rotate(0 30.09451046766526 -2.697540823287909)"><path d="M32.74 -10.41 C38.29 -11.55, 44.83 -6.6, 61.72 -3.39 M31.86 -12.01 C38.74 -11.38, 44.52 -8.83, 59.93 -5.08" stroke="#c92a2a" stroke-width="1" fill="none"></path></g></g><mask></mask><g stroke-linecap="round"><g transform="translate(145.5810043274878 248.43870030181643) rotate(0 29.906388803654863 -14.150103136858888)"><path d="M0.44 -0.66 C10.52 -5.35, 50.66 -23.68, 60.61 -28.42 M-0.79 1.61 C9.14 -3.36, 49.74 -24.45, 59.72 -29.91" stroke="#364fc7" stroke-width="1" fill="none"></path></g><g transform="translate(145.5810043274878 248.43870030181643) rotate(0 29.906388803654863 -14.150103136858888)"><path d="M38.54 -7.43 C47.83 -15.18, 52.89 -20.13, 59.32 -31.6 M38.91 -7.23 C45.99 -14.73, 51.93 -21.6, 60.1 -30.69" stroke="#364fc7" stroke-width="1" fill="none"></path></g><g transform="translate(145.5810043274878 248.43870030181643) rotate(0 29.906388803654863 -14.150103136858888)"><path d="M28.92 -25.55 C41.13 -27.78, 49.14 -27.15, 59.32 -31.6 M29.29 -25.36 C39.4 -27.46, 48.26 -28.83, 60.1 -30.69" stroke="#364fc7" stroke-width="1" fill="none"></path></g></g><mask></mask><g transform="translate(119.39814785944418 240.51737892591518) rotate(0 8.699996948242188 12.5)"><text x="0" y="0" font-family="Virgil, Segoe UI Emoji" font-size="20px" fill="#364fc7" text-anchor="start" style="white-space: pre;" direction="ltr" dominant-baseline="text-before-edge">L1</text></g><g stroke-linecap="round"><g transform="translate(132.30446086930442 503.34803242362705) rotate(0 28.2153710243565 -22.606443579392817)"><path d="M-0.28 -0.18 C9 -7.28, 47.22 -35.98, 56.71 -43.26 M1.77 -1.32 C10.83 -8.71, 46.88 -38.17, 55.91 -45.04" stroke="#364fc7" stroke-width="1" fill="none"></path></g><g transform="translate(132.30446086930442 503.34803242362705) rotate(0 28.2153710243565 -22.606443579392817)"><path d="M39.9 -19 C47.46 -28.89, 52.51 -40.46, 57.33 -44.88 M41.1 -20.27 C44.21 -24.54, 46.57 -30.34, 54.94 -44.19" stroke="#364fc7" stroke-width="1" fill="none"></path></g><g transform="translate(132.30446086930442 503.34803242362705) rotate(0 28.2153710243565 -22.606443579392817)"><path d="M27.15 -35.08 C39.53 -38.76, 49.48 -44.15, 57.33 -44.88 M28.35 -36.35 C34.3 -37.02, 39.55 -39.18, 54.94 -44.19" stroke="#364fc7" stroke-width="1" fill="none"></path></g></g><mask></mask><g transform="translate(105.88312646577833 496.17911921724954) rotate(0 13.109992980957031 12.5)"><text x="0" y="0" font-family="Virgil, Segoe UI Emoji" font-size="20px" fill="#364fc7" text-anchor="start" style="white-space: pre;" direction="ltr" dominant-baseline="text-before-edge">L2</text></g><g transform="translate(26.159982775389835 750.2395052694374) rotate(0 17.139984130859375 12.5)"><text x="0" y="0" font-family="Virgil, Segoe UI Emoji" font-size="20px" fill="#364fc7" text-anchor="start" style="white-space: pre;" direction="ltr" dominant-baseline="text-before-edge">tail</text></g><g stroke-linecap="round"><g transform="translate(66.86126281036559 757.7020486906313) rotate(0 20.958870703366756 -15.263412651485396)"><path d="M-1.13 -0.69 C6.22 -5.56, 36.01 -25.09, 43.04 -30.15 M0.48 1.56 C7.86 -3.6, 35.46 -26.83, 42.63 -32.09" stroke="#364fc7" stroke-width="1" fill="none"></path></g><g transform="translate(66.86126281036559 757.7020486906313) rotate(0 20.958870703366756 -15.263412651485396)"><path d="M27.87 -8.28 C32.66 -16.07, 34.08 -17.3, 42.8 -31.42 M28.15 -10.51 C34.88 -18.08, 39.49 -26.73, 42.15 -32.75" stroke="#364fc7" stroke-width="1" fill="none"></path></g><g transform="translate(66.86126281036559 757.7020486906313) rotate(0 20.958870703366756 -15.263412651485396)"><path d="M16.84 -22.2 C23.86 -26.94, 27.62 -25.22, 42.8 -31.42 M17.12 -24.43 C27.99 -26.81, 36.76 -30.2, 42.15 -32.75" stroke="#364fc7" stroke-width="1" fill="none"></path></g></g><mask></mask><g stroke-linecap="round"><g transform="translate(171.13337471400064 672.0620534044047) rotate(0 54.37960913556071 -3.0891030864572713)"><path d="M0.22 -0.9 C18.03 -1.66, 89.59 -4.62, 107.67 -5.68 M-1.12 1.25 C16.99 0.23, 91.69 -6.16, 109.88 -7.42" stroke="#364fc7" stroke-width="1" fill="none"></path></g><g transform="translate(171.13337471400064 672.0620534044047) rotate(0 54.37960913556071 -3.0891030864572713)"><path d="M81.08 3.4 C93.89 0.57, 101.32 -5.06, 110.37 -5.78 M83.15 4.92 C91.59 1.4, 101.44 -2.8, 109.03 -6.74" stroke="#364fc7" stroke-width="1" fill="none"></path></g><g transform="translate(171.13337471400064 672.0620534044047) rotate(0 54.37960913556071 -3.0891030864572713)"><path d="M79.48 -17.06 C92.69 -12.39, 100.71 -10.51, 110.37 -5.78 M81.54 -15.54 C90.69 -12.3, 101.08 -9.73, 109.03 -6.74" stroke="#364fc7" stroke-width="1" fill="none"></path></g></g><mask></mask><g stroke-linecap="round"><g transform="translate(409.271967045127 672.2499442327717) rotate(0 37.116325632022836 5.07778791940018)"><path d="M-0.24 0.62 C12.11 1.98, 61.12 7.48, 73.77 8.93 M-1.83 -0.1 C10.94 1.37, 63.18 8.47, 76.06 10.26" stroke="#364fc7" stroke-width="1" fill="none"></path></g><g transform="translate(409.271967045127 672.2499442327717) rotate(0 37.116325632022836 5.07778791940018)"><path d="M47.77 15.26 C54 16.71, 62.61 14.25, 74.44 8.27 M46.84 16.5 C54.76 15.22, 64.74 13.48, 75.25 9.4" stroke="#364fc7" stroke-width="1" fill="none"></path></g><g transform="translate(409.271967045127 672.2499442327717) rotate(0 37.116325632022836 5.07778791940018)"><path d="M50.55 -5.07 C56.15 1.89, 64.01 4.94, 74.44 8.27 M49.62 -3.83 C56.77 0.8, 65.94 4.96, 75.25 9.4" stroke="#364fc7" stroke-width="1" fill="none"></path></g></g><mask></mask><g stroke-linecap="round" transform="translate(10 10) rotate(0 695.7485463861412 427.6402939674881)"><path d="M32 0 M32 0 C476.38 -4.37, 919.38 -4.23, 1359.5 0 M32 0 C302.76 2.74, 574.01 3, 1359.5 0 M1359.5 0 C1379.22 1.87, 1391.47 11.11, 1391.5 32 M1359.5 0 C1383.06 -1.66, 1393.58 10.49, 1391.5 32 M1391.5 32 C1390.98 196.43, 1391.49 360.79, 1391.5 823.28 M1391.5 32 C1392.94 217.91, 1392.73 404.64, 1391.5 823.28 M1391.5 823.28 C1391.17 843.65, 1379.24 854.59, 1359.5 855.28 M1391.5 823.28 C1389.31 843.43, 1380.67 853.46, 1359.5 855.28 M1359.5 855.28 C1049.56 855.35, 738.03 854.15, 32 855.28 M1359.5 855.28 C1005.84 857.93, 653.16 858.27, 32 855.28 M32 855.28 C9.76 854.86, 1.31 844.44, 0 823.28 M32 855.28 C9.89 855.07, 0.94 845.47, 0 823.28 M0 823.28 C2.32 661.88, 3.62 499.13, 0 32 M0 823.28 C0.16 510.77, 0.12 197.71, 0 32 M0 32 C0.49 8.92, 11.84 -0.34, 32 0 M0 32 C1.29 11.08, 10.04 0.47, 32 0" stroke="#364fc7" stroke-width="1" fill="none"></path></g><g transform="translate(803.5496087925312 135.93607924162188) rotate(0 162.6998748779297 25)"><text x="0" y="0" font-family="Virgil, Segoe UI Emoji" font-size="20px" fill="#364fc7" text-anchor="start" style="white-space: pre;" direction="ltr" dominant-baseline="text-before-edge"> 0021&nbsp;- Merge Two Sorted Lists</text><text x="0" y="25" font-family="Virgil, Segoe UI Emoji" font-size="20px" fill="#364fc7" text-anchor="start" style="white-space: pre;" direction="ltr" dominant-baseline="text-before-edge"></text></g></svg>
