<svg version="1.1" xmlns="http://www.w3.org/2000/svg" viewBox="0 0 682.2130533148535 418.12584579981194" width="1364.426106629707" height="836.2516915996239" filter="invert(93%) hue-rotate(180deg)">
  <!-- svg-source:excalidraw -->
  
  <defs>
    <style class="style-fonts">
      @font-face {
        font-family: "Virgil";
        src: url("https://excalidraw.com/Virgil.woff2");
      }
      @font-face {
        font-family: "Cascadia";
        src: url("https://excalidraw.com/Cascadia.woff2");
      }
    </style>
  </defs>
  <rect x="0" y="0" width="682.2130533148535" height="418.12584579981194" fill="#f1f3f5"></rect><g transform="translate(207.69508252837727 299.4285782245197) rotate(0 19.29998016357422 12.5)"><text x="0" y="0" font-family="Virgil, Segoe UI Emoji" font-size="20px" fill="#1e1e1e" text-anchor="start" style="white-space: pre;" direction="ltr" dominant-baseline="text-before-edge">curr</text></g><g stroke-linecap="round"><g transform="translate(190.23897855581004 298.4065727533689) rotate(0 48.58520655575518 -0.5639344079631883)"><path d="M0.39 0.47 C16.29 0.71, 79.74 0.47, 95.64 0.28 M-0.86 -0.32 C15.41 -0.37, 82.09 -1.8, 98.03 -1.69" stroke="#1e1e1e" stroke-width="1" fill="none"></path></g></g><mask></mask><g transform="translate(336.5021406625493 175.80992677141148) rotate(0 16.719985961914062 12.5)"><text x="0" y="0" font-family="Virgil, Segoe UI Emoji" font-size="20px" fill="#1e1e1e" text-anchor="start" style="white-space: pre;" direction="ltr" dominant-baseline="text-before-edge">Kth</text></g><g stroke-linecap="round"><g transform="translate(319.0460366899822 174.78792130026068) rotate(0 48.30575435325812 0.18329045573045732)"><path d="M-0.63 -1.12 C15.05 -1.31, 79 -0.23, 95.12 -0.02 M1.23 0.9 C17.18 1.43, 81.57 1.4, 97.25 1.51" stroke="#1e1e1e" stroke-width="1" fill="none"></path></g></g><mask></mask><g transform="translate(215.1924465022638 344.31866162491315) rotate(0 16.90998077392578 12.5)"><text x="0" y="0" font-family="Virgil, Segoe UI Emoji" font-size="20px" fill="#1e1e1e" text-anchor="start" style="white-space: pre;" direction="ltr" dominant-baseline="text-before-edge">tmp</text></g><g stroke-linecap="round"><g transform="translate(197.7363425296968 343.29665615376234) rotate(0 47.939182714552885 -0.19553225174558975)"><path d="M-0.11 0.04 C15.77 0.11, 79.15 -0.46, 95.29 -0.62 M-1.62 -0.99 C14.62 -0.67, 81.2 0.45, 97.5 0.6" stroke="#1e1e1e" stroke-width="1" fill="none"></path></g></g><mask></mask><g transform="translate(205.62198643940246 383.12584579981194) rotate(0 19.929977416992188 12.5)"><text x="0" y="0" font-family="Virgil, Segoe UI Emoji" font-size="20px" fill="#1e1e1e" text-anchor="start" style="white-space: pre;" direction="ltr" dominant-baseline="text-before-edge">prev</text></g><g stroke-linecap="round"><g transform="translate(188.16588246683523 382.10384032866114) rotate(0 48.633879825690144 0.2544519833418235)"><path d="M-0.45 -0.61 C15.64 -0.98, 79.21 -1.34, 95.44 -1.15 M1.51 1.69 C18.08 1.94, 81.89 0.32, 97.72 -0.21" stroke="#1e1e1e" stroke-width="1" fill="none"></path></g></g><mask></mask><g transform="translate(28.62391444355069 174.8963338211488) rotate(0 47.0699462890625 12.5)"><text x="0" y="0" font-family="Virgil, Segoe UI Emoji" font-size="20px" fill="#1e1e1e" text-anchor="start" style="white-space: pre;" direction="ltr" dominant-baseline="text-before-edge">groupPrev</text></g><g stroke-linecap="round"><g transform="translate(11.167810470983397 173.874328349998) rotate(0 47.37583018447583 -0.7490985819417801)"><path d="M-1.17 -0.18 C14.87 -0.29, 79.64 -1.39, 95.92 -1.17 M0.42 -1.32 C16.29 -1.29, 78.88 -0.36, 94.8 -0.25" stroke="#1e1e1e" stroke-width="1" fill="none"></path></g></g><mask></mask><g transform="translate(458.004208507694 175.6120126976166) rotate(0 48.63994598388672 12.5)"><text x="0" y="0" font-family="Virgil, Segoe UI Emoji" font-size="20px" fill="#1e1e1e" text-anchor="start" style="white-space: pre;" direction="ltr" dominant-baseline="text-before-edge">groupNext</text></g><g stroke-linecap="round"><g transform="translate(440.54810453512675 174.5900072264658) rotate(0 48.71438098899398 0.28765340968948294)"><path d="M-0.44 0.08 C15.53 0.17, 79.27 0.1, 95.53 -0.02 M1.53 -0.93 C17.91 -0.58, 81.98 1.3, 97.87 1.5" stroke="#1e1e1e" stroke-width="1" fill="none"></path></g></g><mask></mask><g stroke-linecap="round" transform="translate(336.81101495163966 86.59315168825015) rotate(0 29.090855993393404 30.443495826711114)"><path d="M42.83 4.31 C48.14 6.71, 52.56 12.69, 54.96 18.43 C57.35 24.17, 58.81 32.38, 57.19 38.73 C55.57 45.08, 50.56 52.85, 45.22 56.53 C39.89 60.2, 31.41 61.72, 25.19 60.79 C18.97 59.86, 12.19 55.91, 7.89 50.95 C3.6 45.99, -0.29 37.4, -0.57 31.01 C-0.85 24.61, 2.43 17.78, 6.22 12.59 C10 7.39, 15.85 1.12, 22.14 -0.15 C28.42 -1.42, 40.25 3.95, 43.94 4.97 C47.64 5.99, 44.69 5.6, 44.28 6 M25.87 0.37 C31.63 -0.89, 38.45 1.45, 43.58 4.64 C48.71 7.83, 54.76 13.38, 56.62 19.5 C58.49 25.61, 56.99 35.19, 54.78 41.31 C52.57 47.43, 48.52 52.94, 43.37 56.21 C38.21 59.48, 29.8 62.04, 23.84 60.94 C17.89 59.83, 11.35 54.64, 7.62 49.6 C3.88 44.55, 1.31 37.11, 1.43 30.67 C1.54 24.23, 4.4 15.81, 8.3 10.96 C12.21 6.12, 22.06 3.48, 24.86 1.59 C27.67 -0.31, 25 -0.48, 25.13 -0.41" stroke="#1e1e1e" stroke-width="1" fill="none"></path></g><g stroke-linecap="round" transform="translate(170.7086872238956 79.89662466353548) rotate(0 29.090855993393404 30.443495826711114)"><path d="M28.9 0.18 C34.85 -0.02, 42.24 3.06, 47.11 7.34 C51.99 11.62, 56.93 19.34, 58.15 25.87 C59.36 32.4, 57.46 40.89, 54.38 46.53 C51.31 52.18, 45.5 57.63, 39.71 59.75 C33.91 61.86, 25.43 61.51, 19.61 59.22 C13.79 56.93, 8.11 51.6, 4.76 46 C1.41 40.4, -1.26 32.24, -0.48 25.63 C0.3 19.02, 3.82 10.61, 9.45 6.32 C15.07 2.04, 28.93 0.58, 33.27 -0.11 C37.61 -0.8, 35.58 1.73, 35.49 2.18 M24.88 -0.01 C31.11 -1.22, 39.97 1.82, 45.42 5.11 C50.88 8.4, 55.95 13.58, 57.59 19.72 C59.24 25.86, 57.62 35.58, 55.31 41.96 C52.99 48.34, 49.13 55.01, 43.7 58.01 C38.28 61.01, 28.85 61.2, 22.75 59.95 C16.65 58.71, 10.98 55.49, 7.08 50.53 C3.18 45.57, -0.5 36.78, -0.64 30.19 C-0.77 23.6, 2.21 15.76, 6.27 11.02 C10.34 6.28, 20.83 3.34, 23.75 1.76 C26.67 0.17, 23.49 1.05, 23.81 1.5" stroke="#1e1e1e" stroke-width="1" fill="none"></path></g><g stroke-linecap="round" transform="translate(40.584300069231176 80.3910261141582) rotate(0 29.090855993393404 30.443495826711114)"><path d="M43.18 4.47 C48.41 7.03, 53.76 13.1, 55.98 19.14 C58.2 25.18, 58.39 34.64, 56.5 40.72 C54.62 46.8, 49.83 52.37, 44.68 55.63 C39.52 58.88, 31.72 60.96, 25.57 60.26 C19.42 59.56, 12 56.11, 7.79 51.41 C3.59 46.72, 0.66 38.63, 0.35 32.08 C0.03 25.54, 2.24 17.32, 5.92 12.14 C9.61 6.96, 15.71 2.04, 22.44 0.99 C29.17 -0.06, 42.17 4.66, 46.29 5.86 C50.42 7.06, 47.61 7.97, 47.2 8.19 M34.92 -0.12 C40.86 0.42, 48.1 5.37, 52.09 10.87 C56.09 16.38, 59.22 26.31, 58.89 32.9 C58.56 39.49, 54.63 45.66, 50.11 50.39 C45.59 55.13, 37.66 60.37, 31.77 61.31 C25.87 62.25, 20 59.73, 14.74 56.04 C9.49 52.35, 2.55 45.46, 0.23 39.18 C-2.09 32.89, -1.67 24.5, 0.81 18.31 C3.28 12.13, 9.35 5.08, 15.06 2.07 C20.77 -0.94, 31.97 0.16, 35.09 0.26 C38.21 0.35, 33.84 1.92, 33.76 2.66" stroke="#1e1e1e" stroke-width="1" fill="none"></path></g><g stroke-linecap="round" transform="translate(469.52942708056 84.17199055878609) rotate(0 29.090855993393404 28.644960321794315)"><path d="M33.74 0.81 C39.64 1.44, 47.79 5.17, 51.9 9.69 C56 14.21, 58.38 21.8, 58.37 27.92 C58.36 34.04, 55.7 41.69, 51.84 46.42 C47.98 51.14, 41.35 55.02, 35.22 56.28 C29.08 57.53, 20.47 56.91, 15.03 53.95 C9.58 50.99, 4.66 44.49, 2.54 38.52 C0.42 32.54, 0.36 23.9, 2.33 18.09 C4.3 12.29, 8.31 6.54, 14.36 3.68 C20.42 0.83, 34.09 1.13, 38.66 0.95 C43.22 0.76, 42 2.12, 41.74 2.56 M25.58 1.47 C31.34 0.75, 40.13 2.23, 45.11 5.48 C50.1 8.73, 53.47 15.26, 55.49 20.96 C57.52 26.66, 59.29 34.04, 57.27 39.67 C55.24 45.29, 49.32 51.79, 43.35 54.71 C37.38 57.62, 27.55 58.52, 21.44 57.15 C15.34 55.77, 10.1 51.59, 6.73 46.44 C3.37 41.28, 1.21 32.42, 1.24 26.22 C1.26 20.02, 2.76 13.68, 6.87 9.25 C10.97 4.82, 22.52 0.97, 25.87 -0.38 C29.23 -1.73, 27.04 0.38, 26.99 1.14" stroke="#1e1e1e" stroke-width="1" fill="none"></path></g><g stroke-linecap="round" transform="translate(614.0313413280667 81.92245143699074) rotate(0 29.090855993393404 30.443495826711114)"><path d="M15.74 2.77 C20.93 -0.13, 30.26 0.06, 36.23 1.59 C42.2 3.11, 47.97 6.67, 51.56 11.9 C55.15 17.13, 58.03 26.44, 57.74 32.97 C57.46 39.5, 54.08 46.46, 49.85 51.09 C45.63 55.71, 38.59 59.97, 32.41 60.74 C26.23 61.52, 18.11 59.19, 12.78 55.76 C7.44 52.32, 2.25 46.44, 0.4 40.15 C-1.45 33.86, -1.6 24.51, 1.69 17.99 C4.98 11.47, 16.51 3.81, 20.13 1.02 C23.74 -1.77, 23.24 0.56, 23.39 1.24 M31.42 1.03 C37.21 1.5, 44.19 4.61, 48.89 9.32 C53.58 14.03, 58.91 22.74, 59.59 29.27 C60.28 35.8, 56.69 43.43, 53 48.5 C49.31 53.57, 43.56 58.15, 37.44 59.67 C31.31 61.19, 21.91 60.31, 16.25 57.62 C10.59 54.94, 6.21 49.28, 3.49 43.58 C0.76 37.87, -1.55 29.66, -0.09 23.4 C1.37 17.15, 6.71 9.84, 12.25 6.05 C17.8 2.26, 29.69 1.64, 33.18 0.65 C36.67 -0.33, 33.28 -0.06, 33.2 0.14" stroke="#1e1e1e" stroke-width="1" fill="none"></path></g><g stroke-linecap="round"><g transform="translate(236.69276659109835 114.05937272462234) rotate(0 51.00974670759655 0.49125162375639775)"><path d="M-0.41 -0.65 C16.61 -0.37, 85.38 1.32, 102.43 1.36 M1.57 1.63 C18.44 1.61, 85.08 -0.06, 101.66 -0.26" stroke="#1e1e1e" stroke-width="1" fill="none"></path></g><g transform="translate(236.69276659109835 114.05937272462234) rotate(0 51.00974670759655 0.49125162375639775)"><path d="M72.59 11.09 C84.34 6.81, 90.38 3.09, 101.46 -0.52 M74.28 10.99 C81.96 7.28, 90.45 3.09, 101.57 0.57" stroke="#1e1e1e" stroke-width="1" fill="none"></path></g><g transform="translate(236.69276659109835 114.05937272462234) rotate(0 51.00974670759655 0.49125162375639775)"><path d="M72.2 -9.42 C84.02 -7.08, 90.19 -4.16, 101.46 -0.52 M73.89 -9.53 C81.61 -6.91, 90.22 -4.79, 101.57 0.57" stroke="#1e1e1e" stroke-width="1" fill="none"></path></g></g><mask></mask><g stroke-linecap="round"><g transform="translate(101.70950870166985 124.85658655844964) rotate(0 30.1291314823373 -0.1768366966839494)"><path d="M1.09 -0.76 C11.22 -0.75, 50.34 -0.33, 60.05 -0.23 M0.21 1.46 C10.26 1.18, 49.5 -1.25, 59.18 -1.81" stroke="#1e1e1e" stroke-width="1" fill="none"></path></g><g transform="translate(101.70950870166985 124.85658655844964) rotate(0 30.1291314823373 -0.1768366966839494)"><path d="M30.43 10.35 C40.01 6.11, 46.7 5.14, 60.26 -2.01 M31.21 10.38 C40.09 7.12, 49.3 1.98, 59.22 -1.64" stroke="#1e1e1e" stroke-width="1" fill="none"></path></g><g transform="translate(101.70950870166985 124.85658655844964) rotate(0 30.1291314823373 -0.1768366966839494)"><path d="M29.21 -10.1 C39.03 -9.47, 46.01 -5.55, 60.26 -2.01 M29.99 -10.07 C39.1 -7.02, 48.68 -5.84, 59.22 -1.64" stroke="#1e1e1e" stroke-width="1" fill="none"></path></g></g><mask></mask><g stroke-linecap="round"><g transform="translate(395.02879968307616 117.90378694023639) rotate(0 33.481299190468405 1.5984551994069989)"><path d="M-0.43 0.49 C10.37 0.88, 54.04 1.68, 65.01 1.89 M1.54 -0.3 C12.72 0.35, 56.9 2.94, 67.39 3.49" stroke="#1e1e1e" stroke-width="1" fill="none"></path></g><g transform="translate(395.02879968307616 117.90378694023639) rotate(0 33.481299190468405 1.5984551994069989)"><path d="M39.49 11.12 C48 9.12, 56.87 7.22, 66.85 1.56 M39.61 11.79 C48.19 9.6, 57.33 6.75, 67.46 3.77" stroke="#1e1e1e" stroke-width="1" fill="none"></path></g><g transform="translate(395.02879968307616 117.90378694023639) rotate(0 33.481299190468405 1.5984551994069989)"><path d="M40.65 -9.37 C48.72 -4.88, 57.21 -0.28, 66.85 1.56 M40.76 -8.7 C49.02 -4.05, 57.77 -0.08, 67.46 3.77" stroke="#1e1e1e" stroke-width="1" fill="none"></path></g></g><mask></mask><g stroke-linecap="round"><g transform="translate(536.015406220689 119.44403955377948) rotate(0 39.2822686271723 1.4550154176872638)"><path d="M-0.31 0.05 C12.59 0.39, 63.53 2.07, 76.63 2.74 M1.73 -0.98 C15.08 -0.56, 66.17 3.38, 78.87 3.89" stroke="#1e1e1e" stroke-width="1" fill="none"></path></g><g transform="translate(536.015406220689 119.44403955377948) rotate(0 39.2822686271723 1.4550154176872638)"><path d="M50.19 10.92 C55.56 11.78, 64.57 9.7, 77.64 5.57 M50.96 13.31 C60.58 8.8, 72.02 6.82, 78.37 3.26" stroke="#1e1e1e" stroke-width="1" fill="none"></path></g><g transform="translate(536.015406220689 119.44403955377948) rotate(0 39.2822686271723 1.4550154176872638)"><path d="M51.43 -9.56 C56.63 -3.9, 65.35 -1.17, 77.64 5.57 M52.2 -7.17 C61.18 -3.77, 72.13 2.17, 78.37 3.26" stroke="#1e1e1e" stroke-width="1" fill="none"></path></g></g><mask></mask><g stroke-linecap="round" transform="translate(137.27974437872876 43.0529060850713) rotate(0 142.82071541900956 59.153325372976724)"><path d="M29.58 0 M29.58 0 C113.47 -0.13, 196.46 -1.05, 256.06 0 M29.58 0 C119.95 1.7, 209.02 1.7, 256.06 0 M256.06 0 C275.25 -0.86, 287.24 11.5, 285.64 29.58 M256.06 0 C278.01 -1.07, 286.11 7.77, 285.64 29.58 M285.64 29.58 C285.32 51.51, 283.86 76.96, 285.64 88.73 M285.64 29.58 C284.63 43.78, 285.38 58.48, 285.64 88.73 M285.64 88.73 C286.39 107.35, 276.63 116.38, 256.06 118.31 M285.64 88.73 C287.8 108.24, 275.54 116.31, 256.06 118.31 M256.06 118.31 C201.88 121.02, 145.61 118.92, 29.58 118.31 M256.06 118.31 C191.08 118.01, 127.12 117, 29.58 118.31 M29.58 118.31 C8.19 118.08, -0.01 108.41, 0 88.73 M29.58 118.31 C10.25 118.88, -1.06 107.43, 0 88.73 M0 88.73 C0.44 71.36, 0.38 54.22, 0 29.58 M0 88.73 C0.56 67, 0.57 44.96, 0 29.58 M0 29.58 C0.08 9.22, 8.12 1.95, 29.58 0 M0 29.58 C1.29 9.33, 9.75 1.96, 29.58 0" stroke="#1e1e1e" stroke-width="1" fill="none"></path></g><g transform="translate(240.00775074169485 10) rotate(0 35.32996368408203 12.5)"><text x="0" y="0" font-family="Virgil, Segoe UI Emoji" font-size="20px" fill="#1e1e1e" text-anchor="start" style="white-space: pre;" direction="ltr" dominant-baseline="text-before-edge">group k</text></g><g transform="translate(36.69726024608701 20.901578754505863) rotate(0 28.719970703125 12.5)"><text x="0" y="0" font-family="Virgil, Segoe UI Emoji" font-size="20px" fill="#1e1e1e" text-anchor="start" style="white-space: pre;" direction="ltr" dominant-baseline="text-before-edge">dummy</text></g></svg>
