<svg version="1.1" xmlns="http://www.w3.org/2000/svg" viewBox="0 0 825.5289222479796 586.8637088821506" width="1651.0578444959592" height="1173.7274177643012" filter="invert(93%) hue-rotate(180deg)">
  <!-- svg-source:excalidraw -->
  
  <defs>
    <style class="style-fonts">
      @font-face {
        font-family: "Virgil";
        src: url("https://excalidraw.com/Virgil.woff2");
      }
      @font-face {
        font-family: "Cascadia";
        src: url("https://excalidraw.com/Cascadia.woff2");
      }
    </style>
  </defs>
  <rect x="0" y="0" width="825.5289222479796" height="586.8637088821506" fill="#f1f3f5"></rect><g stroke-linecap="round" transform="translate(208.8221942090953 181.96909959222467) rotate(0 160.34675393953438 107.00272547539998)"><path d="M32 0 M32 0 C84.81 2.1, 136.53 1.74, 288.69 0 M32 0 C108.99 -0.97, 187.29 -1.62, 288.69 0 M288.69 0 C310.46 0.51, 321.53 11.33, 320.69 32 M288.69 0 C308.29 -1.21, 322.64 8.83, 320.69 32 M320.69 32 C320.89 84.57, 322.14 137.82, 320.69 182.01 M320.69 32 C322.73 69.32, 321.71 106.41, 320.69 182.01 M320.69 182.01 C319.59 204.77, 311.48 214.97, 288.69 214.01 M320.69 182.01 C319.76 202.38, 308.34 212.74, 288.69 214.01 M288.69 214.01 C208.59 212.07, 126.28 213.3, 32 214.01 M288.69 214.01 C188.04 213.42, 88.42 213.35, 32 214.01 M32 214.01 C12.66 212.82, 0.84 203.76, 0 182.01 M32 214.01 C10.87 213.79, 0.64 203.04, 0 182.01 M0 182.01 C-0.55 131.28, 1.83 77.02, 0 32 M0 182.01 C-0.3 143.54, 0.99 106.78, 0 32 M0 32 C-1.07 9.05, 12.01 1.61, 32 0 M0 32 C1.07 11.08, 11.09 1.47, 32 0" stroke="#1e1e1e" stroke-width="1" fill="none"></path></g><g stroke-linecap="round"><g transform="translate(210.05830464589144 249.7680381609116) rotate(0 159.24688779323816 0.33475335306457055)"><path d="M1.17 -0.72 C53.94 -0.54, 263.41 0.82, 316.04 0.84 M0.33 1.52 C53.51 1.38, 265.54 -0.65, 318.17 -0.85" stroke="#1e1e1e" stroke-width="1" fill="none"></path></g></g><mask></mask><g stroke-linecap="round"><g transform="translate(212.03386410959422 323.06274754527294) rotate(0 158.32096212747496 -0.3479435931167245)"><path d="M0.87 -0.28 C53.55 -0.13, 264.18 0.65, 316.77 0.8 M-0.13 -1.47 C52.29 -1.65, 262.44 -0.92, 315.61 -0.9" stroke="#1e1e1e" stroke-width="1" fill="none"></path></g></g><mask></mask><g stroke-linecap="round"><g transform="translate(275.0266631330735 183.25188080795488) rotate(0 -0.38329780075150666 104.92704328825084)"><path d="M0.2 -1.06 C0.25 34.14, 0.25 174.81, 0.39 209.99 M-1.15 1 C-1.23 36.41, -0.68 175.96, -0.36 210.91" stroke="#1e1e1e" stroke-width="1" fill="none"></path></g></g><mask></mask><g stroke-linecap="round"><g transform="translate(349.76987568297045 183.25188080795488) rotate(0 0.08396157008570526 105.84704281007271)"><path d="M0.66 0.44 C0.59 35.82, 0.68 176.94, 0.69 212.07 M-0.46 -0.38 C-0.72 34.7, -0.03 174.93, 0.1 210.43" stroke="#1e1e1e" stroke-width="1" fill="none"></path></g></g><mask></mask><g stroke-linecap="round"><g transform="translate(438.1309909114102 183.25188080795488) rotate(0 0.3418802787157347 105.17924358954042)"><path d="M-0.67 -1.04 C-0.7 33.82, -1.07 175.02, -0.76 210.3 M1.18 1.03 C1.58 36.52, 1.58 176.28, 1.56 211.4" stroke="#1e1e1e" stroke-width="1" fill="none"></path></g></g><mask></mask><g transform="translate(238.74163760998863 209.13984902794527) rotate(0 2.7099990844726562 12.5)"><text x="0" y="0" font-family="Virgil, Segoe UI Emoji" font-size="20px" fill="#1e1e1e" text-anchor="start" style="white-space: pre;" direction="ltr" dominant-baseline="text-before-edge">1</text></g><g transform="translate(235.8348940233924 277.9814490638546) rotate(0 9.589996337890625 12.5)"><text x="0" y="0" font-family="Virgil, Segoe UI Emoji" font-size="20px" fill="#1e1e1e" text-anchor="start" style="white-space: pre;" direction="ltr" dominant-baseline="text-before-edge">10</text></g><g transform="translate(237.53783700290796 348.5942526876761) rotate(0 13.92999267578125 12.5)"><text x="0" y="0" font-family="Virgil, Segoe UI Emoji" font-size="20px" fill="#1e1e1e" text-anchor="start" style="white-space: pre;" direction="ltr" dominant-baseline="text-before-edge">23</text></g><g transform="translate(310.0760127303149 207.51701790523384) rotate(0 6.80999755859375 12.5)"><text x="0" y="0" font-family="Virgil, Segoe UI Emoji" font-size="20px" fill="#1e1e1e" text-anchor="start" style="white-space: pre;" direction="ltr" dominant-baseline="text-before-edge">3</text></g><g transform="translate(307.1692691437187 276.35861794114317) rotate(0 5.4199981689453125 12.5)"><text x="0" y="0" font-family="Virgil, Segoe UI Emoji" font-size="20px" fill="#1e1e1e" text-anchor="start" style="white-space: pre;" direction="ltr" dominant-baseline="text-before-edge">11</text></g><g transform="translate(308.87221212323425 346.97142156496466) rotate(0 13.689994812011719 12.5)"><text x="0" y="0" font-family="Virgil, Segoe UI Emoji" font-size="20px" fill="#1e1e1e" text-anchor="start" style="white-space: pre;" direction="ltr" dominant-baseline="text-before-edge">30</text></g><g transform="translate(388.4129697562918 209.35592041393738) rotate(0 6.17999267578125 12.5)"><text x="0" y="0" font-family="Virgil, Segoe UI Emoji" font-size="20px" fill="#1e1e1e" text-anchor="start" style="white-space: pre;" direction="ltr" dominant-baseline="text-before-edge">5</text></g><g transform="translate(385.50622616969554 278.1975204498467) rotate(0 9.109992980957031 12.5)"><text x="0" y="0" font-family="Virgil, Segoe UI Emoji" font-size="20px" fill="#1e1e1e" text-anchor="start" style="white-space: pre;" direction="ltr" dominant-baseline="text-before-edge">16</text></g><g transform="translate(387.2091691492111 348.8103240736682) rotate(0 13.209991455078125 12.5)"><text x="0" y="0" font-family="Virgil, Segoe UI Emoji" font-size="20px" fill="#1e1e1e" text-anchor="start" style="white-space: pre;" direction="ltr" dominant-baseline="text-before-edge">34</text></g><g transform="translate(468.2372500201784 206.15289811050116) rotate(0 5.379997253417969 12.5)"><text x="0" y="0" font-family="Virgil, Segoe UI Emoji" font-size="20px" fill="#1e1e1e" text-anchor="start" style="white-space: pre;" direction="ltr" dominant-baseline="text-before-edge">7</text></g><g transform="translate(465.3305064335822 274.9944981464105) rotate(0 13.999992370605469 12.5)"><text x="0" y="0" font-family="Virgil, Segoe UI Emoji" font-size="20px" fill="#1e1e1e" text-anchor="start" style="white-space: pre;" direction="ltr" dominant-baseline="text-before-edge">20</text></g><g transform="translate(467.03344941309774 345.60730177023197) rotate(0 13.279991149902344 12.5)"><text x="0" y="0" font-family="Virgil, Segoe UI Emoji" font-size="20px" fill="#1e1e1e" text-anchor="start" style="white-space: pre;" direction="ltr" dominant-baseline="text-before-edge">60</text></g><g transform="translate(314.91518086970075 112.57324722312751) rotate(0 38.90998077392578 25)"><text x="0" y="0" font-family="Virgil, Segoe UI Emoji" font-size="20px" fill="#1e1e1e" text-anchor="start" style="white-space: pre;" direction="ltr" dominant-baseline="text-before-edge">col = 4</text><text x="0" y="25" font-family="Virgil, Segoe UI Emoji" font-size="20px" fill="#1e1e1e" text-anchor="start" style="white-space: pre;" direction="ltr" dominant-baseline="text-before-edge">row = 3</text></g><g transform="translate(152.02719769507212 152.5262253145247) rotate(0 16.119979858398438 12.5)"><text x="0" y="0" font-family="Virgil, Segoe UI Emoji" font-size="20px" fill="#1e1e1e" text-anchor="start" style="white-space: pre;" direction="ltr" dominant-baseline="text-before-edge">top</text></g><g transform="translate(131.57862988596798 400.1787327838074) rotate(0 33.78996276855469 12.5)"><text x="0" y="0" font-family="Virgil, Segoe UI Emoji" font-size="20px" fill="#1e1e1e" text-anchor="start" style="white-space: pre;" direction="ltr" dominant-baseline="text-before-edge">bottom</text></g><g stroke-linecap="round"><g transform="translate(331.141346246367 469.6991287289384) rotate(0 -40.62379823035758 -31.39297869354914)"><path d="M-0.22 0.42 C-13.5 -10.03, -66.76 -52.74, -80.37 -63.2 M-1.8 -0.41 C-15.12 -10.6, -68.08 -51, -81.03 -61.64" stroke="#1e1e1e" stroke-width="1" fill="none"></path></g><g transform="translate(331.141346246367 469.6991287289384) rotate(0 -40.62379823035758 -31.39297869354914)"><path d="M-51.83 -51.33 C-59.25 -56.16, -64.71 -58.25, -82.94 -60.65 M-51.69 -51.99 C-63.66 -55.17, -75.55 -59.25, -80.4 -62.14" stroke="#1e1e1e" stroke-width="1" fill="none"></path></g><g transform="translate(331.141346246367 469.6991287289384) rotate(0 -40.62379823035758 -31.39297869354914)"><path d="M-64.53 -35.21 C-68.83 -43.89, -71.24 -49.85, -82.94 -60.65 M-64.39 -35.86 C-71.32 -45.61, -78.14 -56.14, -80.4 -62.14" stroke="#1e1e1e" stroke-width="1" fill="none"></path></g></g><mask></mask><g transform="translate(37.10829446488981 478.5444820333323) rotate(0 299.9997253417968 12.5)"><text x="0" y="0" font-family="Virgil, Segoe UI Emoji" font-size="20px" fill="#1e1e1e" text-anchor="start" style="white-space: pre;" direction="ltr" dominant-baseline="text-before-edge">apply binary search to find the row that contain the target</text></g><g stroke-linecap="round"><g transform="translate(584.902489579345 313.88737036937437) rotate(0 -21.07985686690006 -8.84046001974366)"><path d="M-0.15 -0.55 C-7.26 -3.72, -35.17 -16.38, -42.01 -19.46 M-1.68 1.78 C-8.51 -1.24, -33.14 -15.19, -39.89 -18.49" stroke="#1e1e1e" stroke-width="1" fill="none"></path></g><g transform="translate(584.902489579345 313.88737036937437) rotate(0 -21.07985686690006 -8.84046001974366)"><path d="M-18.61 -17.29 C-27.45 -17.11, -34.65 -17.48, -39.34 -18.62 M-17.56 -14.48 C-26.17 -15.58, -33.35 -16.9, -40.51 -18.54" stroke="#1e1e1e" stroke-width="1" fill="none"></path></g><g transform="translate(584.902489579345 313.88737036937437) rotate(0 -21.07985686690006 -8.84046001974366)"><path d="M-25.78 -3.74 C-32.01 -8.4, -36.63 -13.63, -39.34 -18.62 M-24.73 -0.93 C-30.66 -6.98, -35.23 -13.23, -40.51 -18.54" stroke="#1e1e1e" stroke-width="1" fill="none"></path></g></g><mask></mask><g transform="translate(583.0412602125559 305.29055501463336) rotate(0 110.3199234008789 37.5)"><text x="0" y="0" font-family="Virgil, Segoe UI Emoji" font-size="20px" fill="#1e1e1e" text-anchor="start" style="white-space: pre;" direction="ltr" dominant-baseline="text-before-edge">apply binary search </text><text x="0" y="25" font-family="Virgil, Segoe UI Emoji" font-size="20px" fill="#1e1e1e" text-anchor="start" style="white-space: pre;" direction="ltr" dominant-baseline="text-before-edge">again on the row that</text><text x="0" y="50" font-family="Virgil, Segoe UI Emoji" font-size="20px" fill="#1e1e1e" text-anchor="start" style="white-space: pre;" direction="ltr" dominant-baseline="text-before-edge"> contains the target</text></g><g stroke-linecap="round" transform="translate(10 10) rotate(0 402.7644611239898 283.4318544410753)"><path d="M32 0 M32 0 C298.18 -1.45, 562.69 -1.61, 773.53 0 M32 0 C214.35 -0.51, 396.47 -0.84, 773.53 0 M773.53 0 C794.99 0.16, 806.4 9.98, 805.53 32 M773.53 0 C794.35 -0.4, 804.55 9.76, 805.53 32 M805.53 32 C807.1 212.97, 806.86 392.69, 805.53 534.86 M805.53 32 C804.9 218.43, 804.73 404.34, 805.53 534.86 M805.53 534.86 C804.88 556.62, 795.55 566.88, 773.53 566.86 M805.53 534.86 C805.96 556.86, 796.26 565.6, 773.53 566.86 M773.53 566.86 C501.55 568.28, 228.86 567.28, 32 566.86 M773.53 566.86 C594.65 565.89, 415.9 566.25, 32 566.86 M32 566.86 C12.62 566.06, -0.16 557.72, 0 534.86 M32 566.86 C10.75 568.98, 1.82 555.61, 0 534.86 M0 534.86 C-1.24 401.18, -1.01 266.45, 0 32 M0 534.86 C-0.39 373.15, -0.34 210.62, 0 32 M0 32 C-0.57 12.25, 9.99 1.02, 32 0 M0 32 C-0.06 12.95, 11.33 -2.2, 32 0" stroke="#1e1e1e" stroke-width="1" fill="none"></path></g><g transform="translate(56.46232572950521 28.291832148399408) rotate(0 135.80990600585938 12.5)"><text x="0" y="0" font-family="Virgil, Segoe UI Emoji" font-size="20px" fill="#1e1e1e" text-anchor="start" style="white-space: pre;" direction="ltr" dominant-baseline="text-before-edge">0074- Search a 2D Matrix</text></g></svg>
