<svg version="1.1" xmlns="http://www.w3.org/2000/svg" viewBox="0 0 778.5322500074271 530.9400052616083" width="1557.0645000148543" height="1061.8800105232167" filter="invert(93%) hue-rotate(180deg)">
  <!-- svg-source:excalidraw -->
  
  <defs>
    <style class="style-fonts">
      @font-face {
        font-family: "Virgil";
        src: url("https://excalidraw.com/Virgil.woff2");
      }
      @font-face {
        font-family: "Cascadia";
        src: url("https://excalidraw.com/Cascadia.woff2");
      }
    </style>
  </defs>
  <rect x="0" y="0" width="778.5322500074271" height="530.9400052616083" fill="#f1f3f5"></rect><g stroke-linecap="round" transform="translate(10 10) rotate(0 379.26612500371357 255.47000263080417)"><path d="M32 0 M32 0 C196.07 0.82, 359.63 1.53, 726.53 0 M32 0 C299.93 1.83, 567.11 2.02, 726.53 0 M726.53 0 C749.04 0.68, 757.58 12.32, 758.53 32 M726.53 0 C746.6 -1.69, 759.83 8.75, 758.53 32 M758.53 32 C760.15 185.27, 760.22 340.72, 758.53 478.94 M758.53 32 C758.95 204.73, 758.88 378.21, 758.53 478.94 M758.53 478.94 C756.71 500.58, 746.78 511.88, 726.53 510.94 M758.53 478.94 C760.19 499.7, 747.5 511.35, 726.53 510.94 M726.53 510.94 C582.92 513.11, 440.3 512.03, 32 510.94 M726.53 510.94 C521.52 512.72, 316.39 513.45, 32 510.94 M32 510.94 C10.23 511.13, 1.1 500.55, 0 478.94 M32 510.94 C11.27 509.04, 1.35 499.31, 0 478.94 M0 478.94 C-2.59 372.2, -1.23 264.47, 0 32 M0 478.94 C0.18 329.6, -0.51 181.08, 0 32 M0 32 C-1.68 9.62, 10.62 -0.95, 32 0 M0 32 C1.27 9.4, 11.25 0.83, 32 0" stroke="#1864ab" stroke-width="1" fill="none"></path></g><g transform="translate(33.75995767749919 33.856147501068335) rotate(0 130.0098876953125 12.5)"><text x="0" y="0" font-family="Virgil, Segoe UI Emoji" font-size="20px" fill="#6741d9" text-anchor="start" style="white-space: pre;" direction="ltr" dominant-baseline="text-before-edge">Largest Area in Histogram</text></g><g stroke-linecap="round" transform="translate(156.56315453721436 318.2714539166036) rotate(0 24.234458139139406 48.684944172608084)"><path d="M12.12 0 M12.12 0 C18.39 0.91, 24.4 -0.48, 36.35 0 M12.12 0 C19.71 -0.96, 26.39 -0.37, 36.35 0 M36.35 0 C42.84 0.04, 49.65 3.53, 48.47 12.12 M36.35 0 C45.51 1.02, 46.4 2.96, 48.47 12.12 M48.47 12.12 C50.75 32.74, 49.61 51.46, 48.47 85.25 M48.47 12.12 C49.27 41.48, 48.73 71.42, 48.47 85.25 M48.47 85.25 C50.21 93.52, 45.62 96.44, 36.35 97.37 M48.47 85.25 C48.94 91.25, 45.92 95.81, 36.35 97.37 M36.35 97.37 C31.9 99.1, 26.42 98.04, 12.12 97.37 M36.35 97.37 C28.77 97.58, 19.88 97.13, 12.12 97.37 M12.12 97.37 C4.04 96.26, 1.59 92.96, 0 85.25 M12.12 97.37 C2.24 96.7, -1.26 95.1, 0 85.25 M0 85.25 C-1.42 57.19, 0.99 29.73, 0 12.12 M0 85.25 C0.78 57.89, 1.12 28.72, 0 12.12 M0 12.12 C-0.04 4.31, 5.51 1.41, 12.12 0 M0 12.12 C0.14 1.97, 6.14 -2.21, 12.12 0" stroke="#6741d9" stroke-width="1" fill="none"></path></g><g stroke-linecap="round" transform="translate(207.5110278990819 366.9575440661838) rotate(0 24.234458139139406 24.341899097817986)"><path d="M12.12 0 M12.12 0 C19.03 0.76, 24.53 -0.32, 36.35 0 M12.12 0 C21.08 -0.04, 30.17 -0.55, 36.35 0 M36.35 0 C42.93 -0.26, 48.85 2.36, 48.47 12.12 M36.35 0 C44.31 1.77, 50.64 3.63, 48.47 12.12 M48.47 12.12 C46.7 15.19, 47.1 23.93, 48.47 36.57 M48.47 12.12 C48.03 18.21, 49.5 22.48, 48.47 36.57 M48.47 36.57 C49.85 46.17, 45.05 47.02, 36.35 48.68 M48.47 36.57 C50.34 43.85, 43.23 50.59, 36.35 48.68 M36.35 48.68 C29.17 47.74, 24.62 49.08, 12.12 48.68 M36.35 48.68 C31.25 49.56, 25.39 48.53, 12.12 48.68 M12.12 48.68 C5.28 50.43, 1.5 45.21, 0 36.57 M12.12 48.68 C6.11 49.98, 1.74 46.42, 0 36.57 M0 36.57 C-0.83 29.01, -0.09 24.11, 0 12.12 M0 36.57 C-0.66 28.73, -0.53 20.08, 0 12.12 M0 12.12 C-1.84 3.14, 5.27 -1.05, 12.12 0 M0 12.12 C0.56 3.5, 5.32 -0.29, 12.12 0" stroke="#6741d9" stroke-width="1" fill="none"></path></g><g stroke-linecap="round" transform="translate(258.45890126094946 188.74035101030768) rotate(0 24.234458139139406 113.45049562575605)"><path d="M12.12 0 M12.12 0 C16.76 2.01, 22.07 1.08, 36.35 0 M12.12 0 C21.71 -0.61, 30.14 0.59, 36.35 0 M36.35 0 C45.05 -1.67, 50.09 3.35, 48.47 12.12 M36.35 0 C43.23 1.9, 47.63 3.44, 48.47 12.12 M48.47 12.12 C48.68 61.78, 46.31 111.8, 48.47 214.78 M48.47 12.12 C48.6 65.9, 49.43 120.58, 48.47 214.78 M48.47 214.78 C49.96 223.42, 46.23 228.03, 36.35 226.9 M48.47 214.78 C50.21 224.64, 43.55 227.6, 36.35 226.9 M36.35 226.9 C28.58 227.1, 21.2 226.94, 12.12 226.9 M36.35 226.9 C28.12 225.96, 19.99 226.44, 12.12 226.9 M12.12 226.9 C5.27 225.85, 0.48 222.39, 0 214.78 M12.12 226.9 C5.32 226.61, 0.86 224.04, 0 214.78 M0 214.78 C0.86 163.35, 2.44 113.78, 0 12.12 M0 214.78 C-1.63 133.8, -1.39 54.44, 0 12.12 M0 12.12 C0.9 2.1, 5.17 -1.91, 12.12 0 M0 12.12 C-0.81 1.94, 5.33 -1.96, 12.12 0" stroke="#6741d9" stroke-width="1" fill="none"></path></g><g stroke-linecap="round" transform="translate(309.406774622817 137.80870774862433) rotate(0 24.234458139139406 138.91631725659772)"><path d="M12.12 0 M12.12 0 C18.99 -0.9, 26.33 1.24, 36.35 0 M12.12 0 C16.51 0.65, 22.19 0.73, 36.35 0 M36.35 0 C45.23 -0.05, 48.64 4.58, 48.47 12.12 M36.35 0 C45.49 -1.4, 46.51 5.99, 48.47 12.12 M48.47 12.12 C47.77 66.15, 48.95 117.74, 48.47 265.72 M48.47 12.12 C47.92 99.16, 49.14 187.13, 48.47 265.72 M48.47 265.72 C49.65 274.89, 45.44 279.08, 36.35 277.83 M48.47 265.72 C47.1 274.37, 45.33 277.32, 36.35 277.83 M36.35 277.83 C28.93 276.31, 17.76 277.02, 12.12 277.83 M36.35 277.83 C30.92 277.03, 25.67 278.25, 12.12 277.83 M12.12 277.83 C4.23 276.18, 1.94 271.93, 0 265.72 M12.12 277.83 C1.94 276.44, 1.29 274.51, 0 265.72 M0 265.72 C-1.44 215.7, 0.3 163.01, 0 12.12 M0 265.72 C1.52 187.88, 0.86 110.07, 0 12.12 M0 12.12 C-1.83 5.54, 4.76 1.02, 12.12 0 M0 12.12 C2.13 2.63, 5.04 -1.51, 12.12 0" stroke="#6741d9" stroke-width="1" fill="none"></path></g><g stroke-linecap="round" transform="translate(360.35464798468456 321.61298794673075) rotate(0 24.234458139139406 47.01417715754451)"><path d="M12.12 0 M12.12 0 C19.31 -1.44, 23.81 1.29, 36.35 0 M12.12 0 C17.62 0.47, 24.77 0.09, 36.35 0 M36.35 0 C42.76 1.63, 47.78 3, 48.47 12.12 M36.35 0 C46.33 -0.84, 47.87 2.72, 48.47 12.12 M48.47 12.12 C48.72 28.68, 49.65 47.76, 48.47 81.91 M48.47 12.12 C49.07 35.22, 50.01 57.84, 48.47 81.91 M48.47 81.91 C49.03 91.79, 45.56 95.54, 36.35 94.03 M48.47 81.91 C50.25 89.11, 45.12 94.49, 36.35 94.03 M36.35 94.03 C30.34 94.39, 23.82 94.4, 12.12 94.03 M36.35 94.03 C29.7 92.98, 24.46 94.52, 12.12 94.03 M12.12 94.03 C2.99 94.51, -0.47 91.1, 0 81.91 M12.12 94.03 C3.75 94.89, 1.18 88.89, 0 81.91 M0 81.91 C-0.77 66.8, 0.97 50.7, 0 12.12 M0 81.91 C-0.34 54.97, 0.68 27.97, 0 12.12 M0 12.12 C-1.93 5.17, 2.13 -0.7, 12.12 0 M0 12.12 C-2.1 5.33, 2.08 -0.54, 12.12 0" stroke="#6741d9" stroke-width="1" fill="none"></path></g><g stroke-linecap="round" transform="translate(411.3025213465521 277.54558945759345) rotate(0 24.234458139139406 69.04787640211316)"><path d="M12.12 0 M12.12 0 C15.44 0.63, 23.08 -1.31, 36.35 0 M12.12 0 C21.75 0.87, 30.31 -0.73, 36.35 0 M36.35 0 C46.05 -0.69, 47.43 5.69, 48.47 12.12 M36.35 0 C43.59 -0.6, 47.15 3.13, 48.47 12.12 M48.47 12.12 C47.46 43.13, 48.38 71.67, 48.47 125.98 M48.47 12.12 C48.74 58.08, 48.87 102.58, 48.47 125.98 M48.47 125.98 C50.27 135.19, 45.94 139.64, 36.35 138.1 M48.47 125.98 C47.59 134.75, 44.89 137.23, 36.35 138.1 M36.35 138.1 C30.84 138.31, 24.98 136.86, 12.12 138.1 M36.35 138.1 C28.29 137.42, 22.69 137.35, 12.12 138.1 M12.12 138.1 C4.52 137.63, 1.11 133.8, 0 125.98 M12.12 138.1 C4.9 139.27, -1.1 132.62, 0 125.98 M0 125.98 C1.63 86.24, 2.1 45.49, 0 12.12 M0 125.98 C0.27 99.66, 0.46 71.95, 0 12.12 M0 12.12 C1.13 2.13, 3.34 -1.83, 12.12 0 M0 12.12 C1.29 2.08, 3.5 -2.03, 12.12 0" stroke="#6741d9" stroke-width="1" fill="none"></path></g><g stroke-linecap="round"><g transform="translate(116.78526020572099 419.03697354387714) rotate(0 217.49852155209783 -0.001251682235761109)"><path d="M-0.94 -1.01 C71.82 -1.23, 363.43 -0.82, 435.94 -0.64 M0.76 1.07 C73.52 0.94, 362.9 0.51, 435.54 0.56" stroke="#6741d9" stroke-width="1" fill="none"></path></g></g><mask></mask><g transform="translate(173.02614736921487 432.99281593219894) rotate(0 151.0999755859375 25)"><text x="0" y="0" font-family="Virgil, Segoe UI Emoji" font-size="20px" fill="#6741d9" text-anchor="start" style="white-space: pre;" direction="ltr" dominant-baseline="text-before-edge">0    1    2    3    4    5   </text><text x="0" y="25" font-family="Virgil, Segoe UI Emoji" font-size="20px" fill="#6741d9" text-anchor="start" style="white-space: pre;" direction="ltr" dominant-baseline="text-before-edge"></text></g><g stroke-linecap="round"><g stroke-opacity="0.2" fill-opacity="0.2" transform="translate(130.26161517504715 379.2352593756459) rotate(0 200.47558585072238 0.3190361547599423)"><path d="M-0.11 -0.23 C66.75 -0.27, 333.95 0.71, 401.06 0.87" stroke="#343a40" stroke-width="1.5" fill="none" stroke-dasharray="8 9"></path></g></g><mask></mask><g stroke-linecap="round"><g stroke-opacity="0.2" fill-opacity="0.2" transform="translate(123.47204137610515 329.20871592995354) rotate(0 200.6906007018158 -0.7190677831108587)"><path d="M0.15 -0.63 C67.13 -0.92, 334.13 -0.77, 401.23 -0.77" stroke="#343a40" stroke-width="1.5" fill="none" stroke-dasharray="8 9"></path></g></g><mask></mask><g stroke-linecap="round"><g stroke-opacity="0.2" fill-opacity="0.2" transform="translate(126.28526026122563 286.4171969826575) rotate(0 201.90516098181092 -1.1096101388443458)"><path d="M1.2 -0.93 C68.2 -1.03, 335.69 -1.48, 402.61 -1.19" stroke="#343a40" stroke-width="1.5" fill="none" stroke-dasharray="8 9"></path></g></g><mask></mask><g stroke-linecap="round"><g stroke-opacity="0.2" fill-opacity="0.2" transform="translate(123.47620377002931 241.9615846509014) rotate(0 200.8221043292649 -0.9280887796826391)"><path d="M-1.03 -0.74 C66.22 -0.98, 335.43 -1.26, 402.68 -1.03" stroke="#343a40" stroke-width="1.5" fill="none" stroke-dasharray="8 9"></path></g></g><mask></mask><g stroke-linecap="round"><g stroke-opacity="0.2" fill-opacity="0.2" transform="translate(119.40158423905905 197.46157132900498) rotate(0 201.38157068157875 -0.9377152643601221)"><path d="M-0.23 -1.05 C67.02 -1.35, 336.02 -0.89, 402.99 -0.73" stroke="#343a40" stroke-width="1.5" fill="none" stroke-dasharray="8 9"></path></g></g><mask></mask><g stroke-linecap="round"><g stroke-opacity="0.2" fill-opacity="0.2" transform="translate(119.46266077995324 148.5017526833417) rotate(0 201.83306695858323 0.0901652419202037)"><path d="M0.69 -0.54 C67.65 -0.53, 336.13 0.73, 402.98 0.72" stroke="#343a40" stroke-width="1.5" fill="none" stroke-dasharray="8 9"></path></g></g><mask></mask><g stroke-opacity="0.2" fill-opacity="0.2" transform="translate(103.6439205323104 371.2984925077981) rotate(0 2.7099990844726562 12.5)"><text x="0" y="0" font-family="Virgil, Segoe UI Emoji" font-size="20px" fill="#343a40" text-anchor="start" style="white-space: pre;" direction="ltr" dominant-baseline="text-before-edge">1</text></g><g stroke-opacity="0.2" fill-opacity="0.2" transform="translate(96.26393090828697 226.83204287854824) rotate(0 6.399993896484375 12.5)"><text x="0" y="0" font-family="Virgil, Segoe UI Emoji" font-size="20px" fill="#343a40" text-anchor="start" style="white-space: pre;" direction="ltr" dominant-baseline="text-before-edge">4</text></g><g stroke-opacity="0.2" fill-opacity="0.2" transform="translate(95.44392358406822 274.9875260882982) rotate(0 6.80999755859375 12.5)"><text x="0" y="0" font-family="Virgil, Segoe UI Emoji" font-size="20px" fill="#343a40" text-anchor="start" style="white-space: pre;" direction="ltr" dominant-baseline="text-before-edge">3</text></g><g stroke-opacity="0.2" fill-opacity="0.2" transform="translate(96.26393090828697 130.52107645904834) rotate(0 6.399993896484375 12.5)"><text x="0" y="0" font-family="Virgil, Segoe UI Emoji" font-size="20px" fill="#343a40" text-anchor="start" style="white-space: pre;" direction="ltr" dominant-baseline="text-before-edge">6</text></g><g stroke-opacity="0.2" fill-opacity="0.2" transform="translate(94.82392846688072 323.1430092980481) rotate(0 7.1199951171875 12.5)"><text x="0" y="0" font-family="Virgil, Segoe UI Emoji" font-size="20px" fill="#343a40" text-anchor="start" style="white-space: pre;" direction="ltr" dominant-baseline="text-before-edge">2</text></g><g stroke-opacity="0.2" fill-opacity="0.2" transform="translate(96.70393334969322 178.6765596687983) rotate(0 6.17999267578125 12.5)"><text x="0" y="0" font-family="Virgil, Segoe UI Emoji" font-size="20px" fill="#343a40" text-anchor="start" style="white-space: pre;" direction="ltr" dominant-baseline="text-before-edge">5</text></g><g transform="translate(557.5211053834528 73.22756910525368) rotate(0 27.639976501464844 12.5)"><text x="0" y="0" font-family="Virgil, Segoe UI Emoji" font-size="20px" fill="#1971c2" text-anchor="start" style="white-space: pre;" direction="ltr" dominant-baseline="text-before-edge">stack</text></g><g stroke-linecap="round" transform="translate(591.7153600438501 125.46504868064858) rotate(0 61.46199621835831 22.641716698735763)"><path d="M1.6 0.79 C42.37 0.44, 83.88 2.07, 121.47 -1.77 M121.13 -1.6 C122.3 13.9, 122.63 30.36, 121.89 46.87 M122 43.97 C87.23 46.02, 50.85 48.03, -1.49 45.06 M0.84 45.57 C2.19 34.48, -0.54 20.73, 1.98 -1.94" stroke="#1971c2" stroke-width="1.5" fill="none" stroke-dasharray="8 9"></path></g><g transform="translate(637.6173663330092 135.60676537938434) rotate(0 15.559989929199219 12.5)"><text x="15.559989929199219" y="0" font-family="Virgil, Segoe UI Emoji" font-size="20px" fill="#1971c2" text-anchor="middle" style="white-space: pre;" direction="ltr" dominant-baseline="text-before-edge">5,3</text></g><g stroke-linecap="round" transform="translate(591.7153600438501 170.90044936696268) rotate(0 61.46199621835831 22.641716698735763)"><path d="M-0.21 0.13 C32.5 1.28, 66.11 -2.25, 123.55 -0.13 M122.33 -1.11 C122.26 16.42, 121.49 33.73, 122.74 47.27 M122.98 45.15 C76.84 46.35, 30.39 44.25, -1 43.5 M1.79 45.79 C-1.14 33.09, 1.79 22.82, 0.67 1.32" stroke="#1971c2" stroke-width="1.5" fill="none" stroke-dasharray="8 9"></path></g><g transform="translate(637.0873675537123 181.04216606569844) rotate(0 16.089988708496094 12.5)"><text x="16.089988708496094" y="0" font-family="Virgil, Segoe UI Emoji" font-size="20px" fill="#1971c2" text-anchor="middle" style="white-space: pre;" direction="ltr" dominant-baseline="text-before-edge">2,4</text></g><g stroke-linecap="round" transform="translate(591.7153600438501 216.7136912232363) rotate(0 61.46199621835831 22.641716698735763)"><path d="M-1.28 1.76 C40.25 -1.85, 84.04 -0.21, 124.02 -1.8 M122.66 0.35 C121.76 11.56, 122.61 21.93, 124.33 44.36 M122.36 47.16 C92.64 44.98, 64.33 43.42, -1.47 46.13 M-0.95 43.36 C1.57 29.1, 0.27 18.12, 1.45 0.01" stroke="#1971c2" stroke-width="1.5" fill="none" stroke-dasharray="8 9"></path></g><g transform="translate(632.397365112306 226.85540792197207) rotate(0 20.779991149902344 12.5)"><text x="20.779991149902344" y="0" font-family="Virgil, Segoe UI Emoji" font-size="20px" fill="#1971c2" text-anchor="middle" style="white-space: pre;" direction="ltr" dominant-baseline="text-before-edge">3, 6</text></g><g stroke-linecap="round" transform="translate(591.7153600438501 263.1881551269262) rotate(0 61.46199621835831 22.641716698735763)"><path d="M-1.46 -1.77 C38.3 -1.21, 76.45 -2.88, 121.33 -0.59 M121.89 1.59 C122.68 13.07, 124.27 21.22, 121.61 45.34 M121.44 45.06 C85.85 44.65, 49.32 47.28, 0.29 47.07 M1.98 43.34 C0.89 31.86, 1.66 15.82, 0.25 -0.79" stroke="#1971c2" stroke-width="1.5" fill="none" stroke-dasharray="8 9"></path></g><g transform="translate(632.3073687744154 273.32987182566194) rotate(0 20.86998748779297 12.5)"><text x="20.86998748779297" y="0" font-family="Virgil, Segoe UI Emoji" font-size="20px" fill="#1971c2" text-anchor="middle" style="white-space: pre;" direction="ltr" dominant-baseline="text-before-edge">2, 5</text></g><g stroke-linecap="round" transform="translate(591.7153600438501 308.245714643298) rotate(0 61.46199621835831 22.641716698735763)"><path d="M0.63 -0.13 C48.78 -0.71, 93.78 0.5, 121.82 -0.26 M122.74 1.99 C124.1 13.45, 121.38 28.82, 122.79 44.72 M121.92 43.5 C73.04 45.99, 26.37 46.93, 0.51 44.34 M0.67 46.6 C1 36.08, -0.19 26.05, -1.87 0.43" stroke="#1971c2" stroke-width="1.5" fill="none" stroke-dasharray="8 9"></path></g><g transform="translate(641.0173602294935 318.3874313420338) rotate(0 12.159996032714844 12.5)"><text x="12.159996032714844" y="0" font-family="Virgil, Segoe UI Emoji" font-size="20px" fill="#1971c2" text-anchor="middle" style="white-space: pre;" direction="ltr" dominant-baseline="text-before-edge">0,1</text></g><g stroke-linecap="round" transform="translate(592.5564424403547 356.95978282239867) rotate(0 61.46199621835831 22.641716698735763)"><path d="M-0.82 0.47 C37.63 -2.06, 79.22 -2.3, 121.08 -1.27 M123.96 -0.31 C122.22 16.51, 123.91 30.75, 122.11 46.93 M124.9 45.72 C75.2 47.13, 27.97 47.64, -0.99 46.84 M-1.26 46.55 C-1.56 33.13, 1.98 18.83, -0.98 1.65" stroke="#1971c2" stroke-width="1.5" fill="none" stroke-dasharray="8 9"></path></g><g transform="translate(636.8584426259981 367.10149952113443) rotate(0 17.159996032714844 12.5)"><text x="17.159996032714844" y="0" font-family="Virgil, Segoe UI Emoji" font-size="20px" fill="#1971c2" text-anchor="middle" style="white-space: pre;" direction="ltr" dominant-baseline="text-before-edge">0, 1</text></g><g stroke-linecap="round"><g transform="translate(573.4601335886164 385.41629443461807) rotate(0 79.97051229418798 -7.386850322873215)"><path d="M0.78 0.28 C27.62 -2.06, 133.66 -12.49, 160.21 -15.06 M-0.26 -0.62 C26.57 -2.73, 133.09 -11.68, 159.75 -13.95" stroke="#1971c2" stroke-width="1" fill="none"></path></g></g><mask></mask><g stroke-linecap="round"><g transform="translate(571.3275953849438 280.4517584756568) rotate(0 79.68138594518996 -1.2531021677214085)"><path d="M0.59 -1.07 C27.19 -1.64, 133.48 -3.27, 159.92 -3.49 M-0.56 0.98 C25.83 0.62, 131.78 -1.13, 158.81 -1.99" stroke="#1971c2" stroke-width="1" fill="none"></path></g></g><mask></mask><g stroke-linecap="round"><g transform="translate(567.1911787150998 241.1689043446604) rotate(0 81.84934796771927 -2.696631334675658)"><path d="M-0.53 -0.32 C26.4 -1.35, 134.7 -4.25, 162.11 -5.07 M1.4 -1.54 C28.63 -1.92, 137.21 -3.47, 164.23 -3.96" stroke="#1971c2" stroke-width="1" fill="none"></path></g></g><mask></mask></svg>
