<svg version="1.1" xmlns="http://www.w3.org/2000/svg" viewBox="0 0 1024.3264733322756 923.0673816993581" width="2048.652946664551" height="1846.1347633987161" filter="invert(93%) hue-rotate(180deg)">
  <!-- svg-source:excalidraw -->
  
  <defs>
    <style class="style-fonts">
      @font-face {
        font-family: "Virgil";
        src: url("https://excalidraw.com/Virgil.woff2");
      }
      @font-face {
        font-family: "Cascadia";
        src: url("https://excalidraw.com/Cascadia.woff2");
      }
    </style>
  </defs>
  <rect x="0" y="0" width="1024.3264733322756" height="923.0673816993581" fill="#f1f3f5"></rect><g stroke-linecap="round" transform="translate(81.70108110754586 139.07673858932912) rotate(0 28.383712290419794 28.38371229041968)"><path d="M25.21 0.56 C31.1 -0.48, 39.72 0.61, 44.68 3.83 C49.64 7.05, 53.36 14.02, 54.96 19.88 C56.57 25.73, 56.61 33.19, 54.29 38.94 C51.98 44.69, 46.41 51.49, 41.07 54.38 C35.73 57.27, 28.25 57.69, 22.28 56.29 C16.3 54.89, 8.94 50.72, 5.22 46 C1.51 41.28, -0.55 34.15, -0.04 27.97 C0.48 21.78, 3.62 13.42, 8.33 8.89 C13.05 4.35, 24.61 1.97, 28.25 0.76 C31.89 -0.45, 30.44 1.27, 30.2 1.62 M17.98 3.47 C23.35 1.01, 31.25 0.9, 37.17 2.32 C43.08 3.74, 50.43 6.92, 53.47 11.99 C56.52 17.06, 56.5 26.74, 55.43 32.73 C54.35 38.72, 51.31 44.03, 47.02 47.92 C42.74 51.82, 35.63 55.47, 29.73 56.11 C23.83 56.75, 16.66 55.47, 11.62 51.76 C6.58 48.05, 0.94 40.05, -0.52 33.83 C-1.98 27.61, -0.37 19.87, 2.85 14.44 C6.06 9.01, 16.2 3.39, 18.76 1.25 C21.31 -0.88, 18.09 0.97, 18.17 1.62" stroke="#364fc7" stroke-width="1" fill="none"></path></g><g transform="translate(107.30447887768923 154.89013544394493) rotate(0 2.7099990844726562 12.5)"><text x="2.7099990844726562" y="0" font-family="Virgil, Segoe UI Emoji" font-size="20px" fill="#364fc7" text-anchor="middle" style="white-space: pre;" direction="ltr" dominant-baseline="text-before-edge">1</text></g><g stroke-linecap="round" transform="translate(197.70956310952192 314.65189143051066) rotate(0 28.38371229041968 28.38371229041968)"><path d="M19.89 0.03 C25.27 -2.01, 34.94 -0.42, 40.56 2.25 C46.19 4.91, 51.04 10.53, 53.65 16.02 C56.26 21.52, 57.64 29.45, 56.25 35.22 C54.85 40.99, 50.44 47.03, 45.28 50.65 C40.12 54.27, 31.28 57.27, 25.28 56.93 C19.29 56.59, 13.48 52.79, 9.31 48.62 C5.15 44.45, 1.1 38.09, 0.28 31.92 C-0.54 25.75, -0.22 16.8, 4.41 11.59 C9.03 6.39, 22.94 2.46, 28.03 0.67 C33.12 -1.12, 34.83 0.45, 34.95 0.86 M19.64 2.31 C24.91 0.03, 33.03 -1.1, 38.83 0.74 C44.62 2.58, 51.48 7.88, 54.39 13.35 C57.31 18.81, 57.78 27.28, 56.31 33.53 C54.84 39.79, 50.48 46.91, 45.57 50.9 C40.65 54.88, 32.73 57.54, 26.81 57.47 C20.89 57.39, 14.24 54.58, 10.03 50.42 C5.82 46.27, 2.57 38.82, 1.55 32.53 C0.52 26.24, 1.19 17.9, 3.9 12.69 C6.61 7.47, 15.35 3, 17.81 1.23 C20.26 -0.55, 18.15 1.63, 18.63 2.02" stroke="#364fc7" stroke-width="1" fill="none"></path></g><g transform="translate(223.31296087966507 330.46528828512646) rotate(0 2.7099990844726562 12.5)"><text x="2.7099990844726562" y="0" font-family="Virgil, Segoe UI Emoji" font-size="20px" fill="#364fc7" text-anchor="middle" style="white-space: pre;" direction="ltr" dominant-baseline="text-before-edge">1</text></g><g stroke-linecap="round" transform="translate(203.72173589553972 535.2129888539553) rotate(0 28.38371229041968 28.38371229041968)"><path d="M36.62 0.38 C42.38 1.38, 49.14 6.59, 52.64 11.52 C56.13 16.46, 58.16 23.96, 57.58 29.99 C57.01 36.03, 53.66 43.45, 49.17 47.74 C44.68 52.03, 36.78 54.95, 30.63 55.75 C24.49 56.55, 17.22 55.74, 12.29 52.53 C7.36 49.33, 2.82 42.68, 1.05 36.52 C-0.71 30.36, -0.76 21.31, 1.71 15.58 C4.18 9.85, 9.21 4.07, 15.87 2.13 C22.54 0.19, 36.42 3.11, 41.68 3.94 C46.95 4.77, 47.79 6.63, 47.45 7.09 M37.12 2.68 C42.7 4.2, 48.59 9.35, 52.04 14.39 C55.48 19.44, 58.76 27.15, 57.77 32.94 C56.78 38.74, 51.09 45.36, 46.12 49.13 C41.15 52.9, 33.78 55.51, 27.93 55.56 C22.08 55.61, 15.65 53.17, 11.01 49.43 C6.37 45.7, 1.47 38.89, 0.08 33.16 C-1.3 27.44, -0.44 20.3, 2.72 15.08 C5.88 9.87, 13.28 3.98, 19.06 1.86 C24.83 -0.25, 34.23 2.13, 37.37 2.39 C40.5 2.64, 37.97 3.14, 37.86 3.41" stroke="#364fc7" stroke-width="1" fill="none"></path></g><g transform="translate(229.32513366568287 551.0263857085711) rotate(0 2.7099990844726562 12.5)"><text x="2.7099990844726562" y="0" font-family="Virgil, Segoe UI Emoji" font-size="20px" fill="#364fc7" text-anchor="middle" style="white-space: pre;" direction="ltr" dominant-baseline="text-before-edge">1</text></g><g stroke-linecap="round" transform="translate(200.7383768810073 135.9518789128938) rotate(0 28.383712290419794 28.38371229041968)"><path d="M32.52 0.31 C38.08 0.94, 45.69 4.76, 49.68 9.52 C53.67 14.28, 56.32 22.69, 56.44 28.88 C56.57 35.06, 54.35 42, 50.44 46.64 C46.54 51.28, 39.02 55.48, 33.01 56.71 C26.99 57.94, 19.43 57.13, 14.36 54.03 C9.29 50.93, 4.64 43.83, 2.61 38.11 C0.57 32.38, 0.32 25.22, 2.14 19.69 C3.96 14.15, 8.03 8, 13.53 4.9 C19.04 1.8, 31.07 1.56, 35.17 1.1 C39.27 0.64, 38.06 1.65, 38.13 2.16 M41.16 1.42 C46.34 3.4, 50.43 11.3, 52.79 16.73 C55.14 22.15, 56.58 28.3, 55.29 33.96 C54 39.63, 49.79 46.81, 45.04 50.73 C40.29 54.65, 33.07 57.94, 26.8 57.48 C20.53 57.02, 11.92 52.48, 7.43 47.97 C2.94 43.45, 0.05 36.46, -0.15 30.39 C-0.35 24.32, 2.67 16.61, 6.21 11.54 C9.76 6.47, 15.37 1.44, 21.12 -0.02 C26.87 -1.47, 37.74 2.45, 40.71 2.82 C43.68 3.18, 39.11 1.62, 38.96 2.17" stroke="#364fc7" stroke-width="1" fill="none"></path></g><g transform="translate(221.9317786184356 151.7652757675096) rotate(0 7.119995117187386 12.5)"><text x="7.1199951171875" y="0" font-family="Virgil, Segoe UI Emoji" font-size="20px" fill="#364fc7" text-anchor="middle" style="white-space: pre;" direction="ltr" dominant-baseline="text-before-edge">2</text></g><g stroke-linecap="round" transform="translate(316.74685888298313 311.5270317540753) rotate(0 28.38371229041968 28.38371229041968)"><path d="M37.03 0.9 C42.76 2.37, 48.49 7.62, 51.81 12.72 C55.13 17.82, 57.56 25.58, 56.96 31.5 C56.36 37.43, 52.86 44.01, 48.21 48.26 C43.56 52.51, 35.07 56.52, 29.06 56.99 C23.05 57.46, 16.87 54.65, 12.17 51.09 C7.48 47.54, 2.5 41.7, 0.88 35.66 C-0.74 29.61, -0.26 20.3, 2.47 14.84 C5.2 9.38, 10.8 4.95, 17.26 2.92 C23.72 0.88, 36.43 2.01, 41.22 2.64 C46.01 3.26, 46.3 6.11, 46.01 6.69 M21.41 -0.23 C27.02 -2.39, 36.2 -1.33, 41.67 1.41 C47.14 4.15, 52 10.4, 54.24 16.21 C56.48 22.03, 56.91 30.26, 55.12 36.29 C53.33 42.33, 48.35 48.92, 43.51 52.42 C38.67 55.92, 31.75 58.01, 26.07 57.29 C20.39 56.57, 13.77 52.71, 9.42 48.1 C5.06 43.5, 0.85 35.74, -0.08 29.67 C-1.01 23.6, 0.42 16.48, 3.84 11.68 C7.26 6.88, 17.43 2.69, 20.44 0.88 C23.45 -0.93, 21.74 0.16, 21.9 0.83" stroke="#364fc7" stroke-width="1" fill="none"></path></g><g transform="translate(337.94026062041144 327.3404286086911) rotate(0 7.1199951171875 12.5)"><text x="7.1199951171875" y="0" font-family="Virgil, Segoe UI Emoji" font-size="20px" fill="#364fc7" text-anchor="middle" style="white-space: pre;" direction="ltr" dominant-baseline="text-before-edge">2</text></g><g stroke-linecap="round" transform="translate(322.75903166900093 532.0881291775199) rotate(0 28.38371229041968 28.38371229041968)"><path d="M34.01 -0.29 C39.8 0.24, 46.98 4.36, 50.91 8.97 C54.84 13.58, 57.69 21.25, 57.57 27.34 C57.45 33.43, 54.14 40.54, 50.18 45.52 C46.22 50.51, 39.78 55.85, 33.84 57.26 C27.89 58.67, 20.03 57.27, 14.52 53.99 C9.01 50.72, 3.05 43.55, 0.8 37.62 C-1.46 31.69, -1.17 23.95, 1 18.43 C3.18 12.91, 7.41 7.28, 13.86 4.49 C20.32 1.7, 34.83 1.4, 39.72 1.69 C44.61 1.97, 43.41 5.77, 43.22 6.21 M33.76 1.41 C39.76 2.12, 48.45 6.67, 52.11 11.25 C55.78 15.83, 56.36 23.05, 55.73 28.88 C55.1 34.71, 52.17 41.81, 48.32 46.22 C44.47 50.64, 38.54 54.48, 32.63 55.38 C26.71 56.28, 18.16 54.61, 12.82 51.62 C7.48 48.62, 2.24 43.07, 0.62 37.4 C-1 31.74, 0.7 23.15, 3.1 17.61 C5.5 12.07, 9.71 6.79, 15.02 4.19 C20.32 1.59, 31.7 2.55, 34.92 2.01 C38.14 1.48, 34.36 0.76, 34.34 0.99" stroke="#364fc7" stroke-width="1" fill="none"></path></g><g transform="translate(343.95243340642924 547.9015260321357) rotate(0 7.1199951171875 12.5)"><text x="7.1199951171875" y="0" font-family="Virgil, Segoe UI Emoji" font-size="20px" fill="#364fc7" text-anchor="middle" style="white-space: pre;" direction="ltr" dominant-baseline="text-before-edge">2</text></g><g stroke-linecap="round" transform="translate(305.6412083875382 138.88464677942966) rotate(0 28.38371229041968 28.38371229041968)"><path d="M26.95 0.79 C32.78 0.31, 41.14 2.5, 45.91 6.16 C50.67 9.83, 54.29 16.73, 55.55 22.79 C56.8 28.85, 56.04 37.27, 53.43 42.54 C50.83 47.81, 45.46 52.14, 39.93 54.42 C34.4 56.69, 26.25 57.82, 20.25 56.17 C14.25 54.51, 7.44 49.75, 3.95 44.49 C0.46 39.22, -1.47 30.84, -0.71 24.57 C0.05 18.31, 3.48 10.92, 8.51 6.89 C13.54 2.86, 25.56 1.39, 29.47 0.4 C33.37 -0.59, 31.86 0.4, 31.92 0.94 M18.12 0.38 C23.62 -2.15, 32.27 -1.33, 38.15 1.11 C44.03 3.56, 50.59 9.8, 53.42 15.04 C56.24 20.28, 56.29 26.87, 55.1 32.57 C53.91 38.27, 50.51 45.36, 46.26 49.23 C42.02 53.1, 35.6 55.85, 29.66 55.81 C23.72 55.77, 15.37 52.67, 10.62 48.96 C5.88 45.26, 2.44 39.53, 1.18 33.59 C-0.07 27.65, -0.01 18.46, 3.09 13.31 C6.19 8.17, 17.14 4.34, 19.79 2.73 C22.45 1.11, 19.16 3.59, 19.01 3.62" stroke="#364fc7" stroke-width="1" fill="none"></path></g><g transform="translate(327.14460768356025 154.69804363404546) rotate(0 6.80999755859375 12.5)"><text x="6.80999755859375" y="0" font-family="Virgil, Segoe UI Emoji" font-size="20px" fill="#364fc7" text-anchor="middle" style="white-space: pre;" direction="ltr" dominant-baseline="text-before-edge">3</text></g><g stroke-linecap="round" transform="translate(421.64969038951426 314.4597996206112) rotate(0 28.38371229041968 28.38371229041968)"><path d="M14.61 3.13 C19.55 0.08, 28.53 -0.89, 34.63 0.25 C40.73 1.39, 47.65 5.08, 51.2 9.97 C54.76 14.85, 56.1 23.34, 55.97 29.57 C55.83 35.81, 54.31 42.75, 50.41 47.38 C46.5 52.02, 38.82 56.65, 32.55 57.39 C26.27 58.14, 17.96 55.1, 12.76 51.85 C7.56 48.6, 3.17 43.65, 1.35 37.88 C-0.47 32.12, -0.69 23.04, 1.83 17.26 C4.36 11.48, 14.08 5.52, 16.5 3.21 C18.92 0.91, 16.34 3.02, 16.37 3.45 M36.79 -0.37 C42.44 0.89, 48.44 6.45, 51.64 11.71 C54.85 16.97, 56.71 24.95, 56.02 31.18 C55.33 37.41, 51.62 44.73, 47.49 49.08 C43.36 53.43, 36.95 56.9, 31.27 57.29 C25.58 57.69, 18.47 55.2, 13.39 51.45 C8.32 47.7, 2.85 40.67, 0.82 34.79 C-1.2 28.91, -1.22 21.53, 1.24 16.18 C3.69 10.82, 9.73 5.3, 15.56 2.66 C21.39 0.01, 32.97 0.28, 36.21 0.29 C39.44 0.29, 35.03 2.19, 34.98 2.67" stroke="#364fc7" stroke-width="1" fill="none"></path></g><g transform="translate(443.1530896855363 330.273196475227) rotate(0 6.80999755859375 12.5)"><text x="6.80999755859375" y="0" font-family="Virgil, Segoe UI Emoji" font-size="20px" fill="#364fc7" text-anchor="middle" style="white-space: pre;" direction="ltr" dominant-baseline="text-before-edge">3</text></g><g stroke-linecap="round" transform="translate(427.66186317553206 535.0208970440558) rotate(0 28.38371229041968 28.38371229041968)"><path d="M20.66 0.37 C26.03 -1.76, 34.47 -1, 39.93 1.31 C45.38 3.62, 50.65 8.56, 53.4 14.24 C56.14 19.92, 57.66 29.12, 56.41 35.37 C55.16 41.61, 50.91 48.28, 45.89 51.73 C40.87 55.18, 32.48 56.52, 26.28 56.05 C20.08 55.58, 13.04 52.8, 8.68 48.93 C4.32 45.05, 0.73 38.8, 0.14 32.79 C-0.45 26.78, 0.84 18.2, 5.12 12.88 C9.41 7.56, 21 2.89, 25.87 0.86 C30.74 -1.17, 34.09 0.41, 34.33 0.71 M40.64 2.48 C46.04 4.15, 50.19 9.63, 52.58 14.78 C54.96 19.94, 56.06 27.56, 54.96 33.4 C53.86 39.24, 50.69 46.07, 45.96 49.83 C41.24 53.58, 32.86 55.97, 26.6 55.93 C20.34 55.89, 12.63 53.57, 8.4 49.57 C4.17 45.57, 1.91 37.87, 1.24 31.93 C0.57 26, 1.18 18.85, 4.39 13.97 C7.6 9.09, 14.65 4.67, 20.49 2.67 C26.33 0.67, 36.15 1.98, 39.43 1.99 C42.7 1.99, 40.3 2.02, 40.13 2.68" stroke="#364fc7" stroke-width="1" fill="none"></path></g><g transform="translate(449.1652624715541 550.8342938986716) rotate(0 6.80999755859375 12.5)"><text x="6.80999755859375" y="0" font-family="Virgil, Segoe UI Emoji" font-size="20px" fill="#364fc7" text-anchor="middle" style="white-space: pre;" direction="ltr" dominant-baseline="text-before-edge">3</text></g><g stroke-linecap="round" transform="translate(552.8982563431766 138.78857006379303) rotate(0 28.38371229041968 28.38371229041968)"><path d="M38.43 2.49 C43.89 4.43, 50.28 10.72, 53.37 15.98 C56.46 21.24, 58.11 28.11, 56.95 34.03 C55.79 39.95, 51.39 47.55, 46.39 51.49 C41.4 55.44, 33.31 58.04, 26.98 57.71 C20.65 57.38, 13.02 53.81, 8.43 49.51 C3.85 45.2, 0.13 37.83, -0.52 31.87 C-1.16 25.91, 1.07 18.78, 4.57 13.74 C8.06 8.7, 14.19 3.27, 20.44 1.64 C26.69 0.01, 38.36 3.53, 42.06 3.96 C45.75 4.38, 42.86 3.95, 42.62 4.17 M16.86 3.41 C21.75 0.62, 28.82 -1.14, 34.57 0.16 C40.32 1.46, 47.46 6.24, 51.37 11.21 C55.28 16.18, 58.41 23.94, 58.01 29.97 C57.6 36, 53.36 42.88, 48.95 47.39 C44.55 51.9, 37.83 56.46, 31.56 57.02 C25.28 57.59, 16.23 54.17, 11.3 50.79 C6.37 47.4, 3.42 42.22, 1.99 36.71 C0.57 31.2, 0.48 23.65, 2.75 17.73 C5.02 11.81, 13.26 3.53, 15.62 1.18 C17.98 -1.17, 16.55 3.15, 16.91 3.64" stroke="#364fc7" stroke-width="1" fill="none"></path></g><g transform="translate(574.8116593013085 154.60196691840883) rotate(0 6.399993896484375 12.5)"><text x="6.399993896484375" y="0" font-family="Virgil, Segoe UI Emoji" font-size="20px" fill="#364fc7" text-anchor="middle" style="white-space: pre;" direction="ltr" dominant-baseline="text-before-edge">4</text></g><g stroke-linecap="round" transform="translate(168.14286145962728 397.15126851487867) rotate(0 28.383712290419794 28.38371229041968)"><path d="M29.86 0.87 C35.77 0.98, 43.77 4.07, 48.33 8.21 C52.89 12.34, 56.57 19.78, 57.2 25.68 C57.83 31.57, 55.6 38.64, 52.09 43.59 C48.59 48.55, 41.89 53.48, 36.17 55.41 C30.45 57.35, 23.2 57.51, 17.78 55.2 C12.35 52.9, 6.38 47.31, 3.61 41.58 C0.84 35.85, -0.28 26.87, 1.14 20.82 C2.56 14.78, 6.85 8.63, 12.14 5.31 C17.43 1.98, 29.07 1.59, 32.87 0.88 C36.66 0.18, 35.25 0.85, 34.92 1.09 M26.51 0.18 C31.98 -0.69, 40.18 1.79, 45.21 5.3 C50.23 8.82, 54.99 15.53, 56.65 21.28 C58.3 27.03, 57.81 34.3, 55.15 39.82 C52.48 45.34, 46.47 51.63, 40.65 54.39 C34.84 57.14, 26.34 57.95, 20.27 56.37 C14.2 54.79, 7.49 50.12, 4.22 44.9 C0.94 39.68, -0.04 31.51, 0.64 25.05 C1.31 18.59, 3.95 10.55, 8.28 6.14 C12.6 1.74, 23.61 -0.36, 26.59 -1.38 C29.58 -2.39, 26.04 -0.81, 26.19 0.05" stroke="#364fc7" stroke-width="1" fill="none"></path></g><g transform="translate(190.05626441775917 412.96466536949447) rotate(0 6.399993896484375 12.5)"><text x="6.399993896484375" y="0" font-family="Virgil, Segoe UI Emoji" font-size="20px" fill="#364fc7" text-anchor="middle" style="white-space: pre;" direction="ltr" dominant-baseline="text-before-edge">4</text></g><g stroke-linecap="round" transform="translate(197.8937442321776 615.3226890572569) rotate(0 28.383712290419794 28.38371229041968)"><path d="M19.67 0.84 C24.82 -1.43, 32.57 -1.55, 38.18 0.86 C43.8 3.28, 50.31 9.75, 53.35 15.34 C56.39 20.93, 57.73 28.72, 56.42 34.43 C55.11 40.13, 50.28 45.92, 45.47 49.56 C40.66 53.21, 33.49 56.13, 27.55 56.29 C21.62 56.46, 14.26 54.49, 9.86 50.56 C5.46 46.64, 2.28 38.7, 1.15 32.75 C0.01 26.79, -0.79 20.28, 3.07 14.82 C6.93 9.37, 19.99 2.45, 24.31 0.03 C28.63 -2.38, 28.91 -0.12, 29.01 0.34 M34.6 0.38 C39.88 1.25, 46.71 5.94, 50.45 10.81 C54.19 15.69, 57.42 23.5, 57.02 29.63 C56.63 35.75, 52.53 43.01, 48.06 47.57 C43.6 52.12, 36.03 56.28, 30.22 56.96 C24.41 57.63, 18.09 54.98, 13.2 51.61 C8.32 48.24, 2.57 42.36, 0.9 36.74 C-0.77 31.11, 0.6 23.57, 3.19 17.87 C5.77 12.16, 10.82 5.33, 16.4 2.51 C21.98 -0.32, 33.44 0.89, 36.65 0.91 C39.86 0.92, 36.17 2.15, 35.66 2.62" stroke="#364fc7" stroke-width="1" fill="none"></path></g><g transform="translate(220.02714841101238 631.1360859118727) rotate(0 6.17999267578125 12.5)"><text x="6.17999267578125" y="0" font-family="Virgil, Segoe UI Emoji" font-size="20px" fill="#364fc7" text-anchor="middle" style="white-space: pre;" direction="ltr" dominant-baseline="text-before-edge">5</text></g><g stroke-linecap="round" transform="translate(424.58242744536324 140.71170252914453) rotate(0 28.38371229041968 28.38371229041968)"><path d="M35.15 0.39 C40.97 1.22, 47.78 6.71, 51.31 11.71 C54.84 16.71, 56.8 24.44, 56.32 30.4 C55.85 36.35, 52.61 43.17, 48.47 47.44 C44.33 51.71, 37.3 55.13, 31.48 56.02 C25.66 56.91, 18.43 55.92, 13.55 52.81 C8.67 49.7, 4 43.06, 2.21 37.34 C0.41 31.63, 0.75 24.31, 2.78 18.51 C4.82 12.71, 8.69 5.5, 14.42 2.55 C20.15 -0.4, 33.27 0.82, 37.18 0.81 C41.08 0.81, 38.13 1.98, 37.84 2.54 M35.38 0.01 C41.49 1.12, 49.32 6.16, 52.96 11.11 C56.6 16.06, 57.83 23.42, 57.21 29.7 C56.59 35.98, 53.76 44.42, 49.25 48.78 C44.74 53.14, 36.16 55.19, 30.15 55.85 C24.14 56.5, 18.03 55.81, 13.18 52.7 C8.33 49.59, 2.94 43.46, 1.04 37.18 C-0.85 30.89, -0.77 20.65, 1.81 14.98 C4.4 9.31, 10.9 5.69, 16.57 3.17 C22.23 0.64, 32.82 0.11, 35.81 -0.17 C38.79 -0.46, 34.79 1.06, 34.45 1.45" stroke="#364fc7" stroke-width="1" fill="none"></path></g><g transform="translate(446.71583162419734 156.52509938376033) rotate(0 6.17999267578125 12.5)"><text x="6.17999267578125" y="0" font-family="Virgil, Segoe UI Emoji" font-size="20px" fill="#364fc7" text-anchor="middle" style="white-space: pre;" direction="ltr" dominant-baseline="text-before-edge">5</text></g><g stroke-linecap="round" transform="translate(305.35303986200165 390.99756425627083) rotate(0 28.38371229041968 28.38371229041968)"><path d="M24.32 0.8 C30.11 -0.52, 38.42 1.59, 43.57 4.57 C48.72 7.55, 53.38 13.04, 55.22 18.66 C57.06 24.29, 56.65 32.44, 54.59 38.32 C52.54 44.21, 48.03 50.88, 42.87 53.95 C37.71 57.03, 29.66 58.19, 23.63 56.76 C17.61 55.32, 10.56 50.17, 6.73 45.32 C2.9 40.47, 0.52 33.48, 0.68 27.66 C0.83 21.85, 3.13 15.06, 7.66 10.44 C12.19 5.83, 24.26 1.74, 27.84 -0.03 C31.43 -1.79, 29.3 -0.8, 29.16 -0.15 M35.9 0.67 C41.72 1.76, 48.79 6.88, 52.49 11.75 C56.19 16.61, 58.62 23.7, 58.09 29.84 C57.56 35.99, 53.9 44.02, 49.32 48.64 C44.74 53.25, 36.93 56.9, 30.6 57.54 C24.28 58.17, 16.27 56.13, 11.38 52.44 C6.49 48.76, 2.83 41.75, 1.28 35.43 C-0.27 29.11, -0.43 20.24, 2.1 14.51 C4.63 8.78, 10.93 3.39, 16.48 1.06 C22.03 -1.27, 32.08 0.28, 35.42 0.53 C38.75 0.78, 36.32 2.26, 36.47 2.57" stroke="#364fc7" stroke-width="1" fill="none"></path></g><g transform="translate(327.48644404083575 406.81096111088664) rotate(0 6.17999267578125 12.5)"><text x="6.17999267578125" y="0" font-family="Virgil, Segoe UI Emoji" font-size="20px" fill="#364fc7" text-anchor="middle" style="white-space: pre;" direction="ltr" dominant-baseline="text-before-edge">5</text></g><g stroke-linecap="round" transform="translate(311.36521264801945 611.5586616797154) rotate(0 28.38371229041968 28.38371229041968)"><path d="M14.85 2.46 C19.68 -0.3, 28.46 0.02, 34.45 1.56 C40.44 3.11, 47.24 7.22, 50.79 11.72 C54.34 16.22, 56.06 22.7, 55.76 28.55 C55.45 34.4, 52.84 42.06, 48.93 46.81 C45.03 51.56, 38.13 56.15, 32.34 57.04 C26.55 57.93, 19.49 55.32, 14.2 52.16 C8.91 49, 2.52 43.86, 0.6 38.09 C-1.32 32.31, -0.52 23.64, 2.67 17.51 C5.86 11.37, 16.05 4.09, 19.75 1.26 C23.44 -1.57, 24.67 -0.12, 24.84 0.52 M30.01 -1.06 C36.03 -0.96, 44.64 2.99, 49 7.39 C53.37 11.8, 55.93 19.08, 56.21 25.38 C56.5 31.68, 54.01 40.13, 50.72 45.2 C47.43 50.27, 42.25 54.17, 36.47 55.79 C30.69 57.4, 21.6 57.27, 16.04 54.89 C10.48 52.51, 5.6 47.22, 3.12 41.5 C0.64 35.79, -0.55 26.66, 1.16 20.57 C2.86 14.47, 8.34 8.16, 13.37 4.94 C18.39 1.72, 28.58 1.97, 31.32 1.26 C34.06 0.56, 29.87 0.62, 29.79 0.73" stroke="#364fc7" stroke-width="1" fill="none"></path></g><g transform="translate(333.2786156061509 627.3720585343312) rotate(0 6.399993896484375 12.5)"><text x="6.399993896484375" y="0" font-family="Virgil, Segoe UI Emoji" font-size="20px" fill="#364fc7" text-anchor="middle" style="white-space: pre;" direction="ltr" dominant-baseline="text-before-edge">4</text></g><g stroke-linecap="round" transform="translate(10 10) rotate(0 502.1632366661378 451.53369084967903)"><path d="M32 0 M32 0 C316.83 2.12, 602.45 2.93, 972.33 0 M32 0 C254.52 -0.98, 476.97 -0.63, 972.33 0 M972.33 0 C991.95 -0.6, 1002.89 12.15, 1004.33 32 M972.33 0 C993.14 1.7, 1004.04 11.54, 1004.33 32 M1004.33 32 C1004.39 351.19, 1004.67 671.07, 1004.33 871.07 M1004.33 32 C1006.7 208.78, 1006.82 386.09, 1004.33 871.07 M1004.33 871.07 C1006.11 891.92, 995.31 901.8, 972.33 903.07 M1004.33 871.07 C1003.11 893.86, 991.93 900.83, 972.33 903.07 M972.33 903.07 C723.19 905.31, 475.38 905.84, 32 903.07 M972.33 903.07 C693.01 901.22, 413.34 901.04, 32 903.07 M32 903.07 C10.11 904.96, 0.88 893.2, 0 871.07 M32 903.07 C12.48 905.31, 1.62 893.67, 0 871.07 M0 871.07 C-1.36 591.84, -2.13 312.41, 0 32 M0 871.07 C2.47 636.28, 3.2 402.08, 0 32 M0 32 C1.39 9.4, 10.42 -0.6, 32 0 M0 32 C0.63 8.95, 10.05 -0.12, 32 0" stroke="#364fc7" stroke-width="1" fill="none"></path></g><g transform="translate(55.32486213888683 43.65985902692228) rotate(0 92.34992980957031 25)"><text x="0" y="0" font-family="Virgil, Segoe UI Emoji" font-size="20px" fill="#364fc7" text-anchor="start" style="white-space: pre;" direction="ltr" dominant-baseline="text-before-edge">0143. Reorder List</text><text x="0" y="25" font-family="Virgil, Segoe UI Emoji" font-size="20px" fill="#364fc7" text-anchor="start" style="white-space: pre;" direction="ltr" dominant-baseline="text-before-edge"></text></g><g stroke-linecap="round"><g transform="translate(152.44116948114902 169.4869318795936) rotate(0 21.536723908215322 -2.0699960315039334)"><path d="M1.12 0.96 C8.17 0.42, 35.68 -2.41, 42.83 -3.31 M0.25 0.42 C7.07 -0.46, 34.48 -4.46, 41.73 -5.1" stroke="#364fc7" stroke-width="1" fill="none"></path></g><g transform="translate(152.44116948114902 169.4869318795936) rotate(0 21.536723908215322 -2.0699960315039334)"><path d="M24.02 4.2 C30.08 2.66, 34.79 -0.28, 39.79 -5.06 M22.8 5.52 C26.97 3.17, 31.8 -0.38, 40.99 -4.59" stroke="#364fc7" stroke-width="1" fill="none"></path></g><g transform="translate(152.44116948114902 169.4869318795936) rotate(0 21.536723908215322 -2.0699960315039334)"><path d="M22.25 -10.5 C28.91 -7.03, 34.23 -4.93, 39.79 -5.06 M21.03 -9.18 C25.52 -8.3, 30.74 -8.6, 40.99 -4.59" stroke="#364fc7" stroke-width="1" fill="none"></path></g></g><mask></mask><g stroke-linecap="round"><g transform="translate(268.4496514831251 345.06208472077515) rotate(0 20.76083399266622 -2.006395594062951)"><path d="M-1.18 0.39 C5.82 -0.14, 35.36 -3.77, 42.7 -4.41 M0.4 -0.44 C7.15 -0.71, 34.61 -2.27, 41.53 -3.12" stroke="#364fc7" stroke-width="1" fill="none"></path></g><g transform="translate(268.4496514831251 345.06208472077515) rotate(0 20.76083399266622 -2.006395594062951)"><path d="M22.54 5.28 C28.26 2.45, 36.91 -1.09, 42.51 -4.91 M21.94 6.13 C27.12 3.15, 29.92 1.72, 42.2 -3.33" stroke="#364fc7" stroke-width="1" fill="none"></path></g><g transform="translate(268.4496514831251 345.06208472077515) rotate(0 20.76083399266622 -2.006395594062951)"><path d="M21.3 -9.47 C27.31 -6.99, 36.42 -5.22, 42.51 -4.91 M20.69 -8.62 C26.19 -8.35, 29.27 -6.51, 42.2 -3.33" stroke="#364fc7" stroke-width="1" fill="none"></path></g></g><mask></mask><g stroke-linecap="round"><g transform="translate(274.4618242691429 565.6231821442198) rotate(0 21.588381730682613 -1.5463821567918785)"><path d="M-1.18 0.97 C5.98 0.1, 34.95 -3.3, 42.15 -4.06 M0.4 0.43 C8 0.27, 37.04 -1.55, 44.36 -2.58" stroke="#364fc7" stroke-width="1" fill="none"></path></g><g transform="translate(274.4618242691429 565.6231821442198) rotate(0 21.588381730682613 -1.5463821567918785)"><path d="M26.42 5.11 C29.05 2.91, 34.36 4.54, 44.6 -0.76 M24.34 6.59 C29.36 5.73, 32.34 2.28, 45.17 -1.93" stroke="#364fc7" stroke-width="1" fill="none"></path></g><g transform="translate(274.4618242691429 565.6231821442198) rotate(0 21.588381730682613 -1.5463821567918785)"><path d="M25.02 -9.63 C28.11 -8.4, 33.74 -3.36, 44.6 -0.76 M22.94 -8.15 C28.13 -6.06, 31.39 -6.55, 45.17 -1.93" stroke="#364fc7" stroke-width="1" fill="none"></path></g></g><mask></mask><g stroke-linecap="round"><g transform="translate(271.6248842648404 163.15840655662896) rotate(0 12.987450269134342 1.5168526556678898)"><path d="M-0.29 0.63 C3.9 0.78, 21.8 1.76, 26.26 1.85 M1.76 -0.09 C5.78 0.14, 21.69 2.79, 25.79 3.12" stroke="#364fc7" stroke-width="1" fill="none"></path></g><g transform="translate(271.6248842648404 163.15840655662896) rotate(0 12.987450269134342 1.5168526556678898)"><path d="M14.03 6.88 C17.69 6.08, 21.88 3.77, 24.78 2.51 M13.52 6.37 C17.92 4.47, 20.98 4.32, 25.52 2.57" stroke="#364fc7" stroke-width="1" fill="none"></path></g><g transform="translate(271.6248842648404 163.15840655662896) rotate(0 12.987450269134342 1.5168526556678898)"><path d="M15.14 -1.76 C18.43 0.83, 22.19 1.93, 24.78 2.51 M14.63 -2.27 C18.7 -1.35, 21.4 1.32, 25.52 2.57" stroke="#364fc7" stroke-width="1" fill="none"></path></g></g><mask></mask><g stroke-linecap="round"><g transform="translate(387.63336626681644 338.7335593978105) rotate(0 12.0157411199757 0.9058852925486462)"><path d="M0.39 -0.41 C4.74 0.13, 20.65 1.7, 24.89 2.09 M-0.86 -1.68 C3.4 -0.85, 19.33 2.71, 23.69 3.49" stroke="#364fc7" stroke-width="1" fill="none"></path></g><g transform="translate(387.63336626681644 338.7335593978105) rotate(0 12.0157411199757 0.9058852925486462)"><path d="M10.66 4.88 C13.36 5.47, 15.7 5.2, 22.55 2.49 M11.2 5.96 C14.78 4.35, 19.26 4.57, 23.56 3.14" stroke="#364fc7" stroke-width="1" fill="none"></path></g><g transform="translate(387.63336626681644 338.7335593978105) rotate(0 12.0157411199757 0.9058852925486462)"><path d="M12.39 -3.66 C14.66 -1.35, 16.66 0.09, 22.55 2.49 M12.93 -2.58 C16.03 -1.41, 19.94 1.6, 23.56 3.14" stroke="#364fc7" stroke-width="1" fill="none"></path></g></g><mask></mask><g stroke-linecap="round"><g transform="translate(393.64553905283424 559.2946568212551) rotate(0 12.625750342602487 0.6266966243656498)"><path d="M0.97 -0.96 C4.98 -0.55, 21.12 0.51, 25.24 1.26 M0.01 1.15 C3.77 1.77, 20.04 2.11, 24.23 2.21" stroke="#364fc7" stroke-width="1" fill="none"></path></g><g transform="translate(393.64553905283424 559.2946568212551) rotate(0 12.625750342602487 0.6266966243656498)"><path d="M11.13 6.14 C15.77 4.94, 22.93 3.13, 25.39 0.94 M12.08 6.63 C15.44 5.16, 17.21 4.97, 24.64 1.98" stroke="#364fc7" stroke-width="1" fill="none"></path></g><g transform="translate(393.64553905283424 559.2946568212551) rotate(0 12.625750342602487 0.6266966243656498)"><path d="M11.35 -2.57 C15.82 -0.34, 22.89 1.28, 25.39 0.94 M12.3 -2.08 C15.55 -1.54, 17.28 0.28, 24.64 1.98" stroke="#364fc7" stroke-width="1" fill="none"></path></g></g><mask></mask><g stroke-linecap="round"><g transform="translate(495.5789131153949 165.7546117334623) rotate(0 23.720027678419456 -0.1534544154089872)"><path d="M1.15 -1.16 C8.86 -1.19, 39.58 -0.99, 47.14 -0.71 M0.3 0.84 C7.77 0.98, 38.68 0.13, 46.21 0.33" stroke="#364fc7" stroke-width="1" fill="none"></path></g><g transform="translate(495.5789131153949 165.7546117334623) rotate(0 23.720027678419456 -0.1534544154089872)"><path d="M22.16 8.52 C30.84 4.25, 41.24 2.92, 47.88 0.82 M23.36 8.99 C31.78 4.75, 40.36 2.19, 46.48 0.85" stroke="#364fc7" stroke-width="1" fill="none"></path></g><g transform="translate(495.5789131153949 165.7546117334623) rotate(0 23.720027678419456 -0.1534544154089872)"><path d="M22.1 -7.6 C30.73 -5.82, 41.16 -1.1, 47.88 0.82 M23.29 -7.12 C31.87 -5.41, 40.47 -2.01, 46.48 0.85" stroke="#364fc7" stroke-width="1" fill="none"></path></g></g><mask></mask><g stroke-linecap="round"><g transform="translate(236.3924734230393 421.65958495027553) rotate(0 31.52183051681004 0.3177195015889538)"><path d="M-0.38 -0.26 C10.17 0.15, 52.87 1.66, 63.43 2.08 M1.62 -1.45 C12.08 -1.36, 52.85 -0.06, 62.99 0.24" stroke="#364fc7" stroke-width="1" fill="none"></path></g><g transform="translate(236.3924734230393 421.65958495027553) rotate(0 31.52183051681004 0.3177195015889538)"><path d="M34.06 11.27 C44.3 7.68, 53.55 4.95, 63.03 -0.6 M35.28 10.24 C42.68 7.28, 48.87 5.06, 62.71 0.98" stroke="#364fc7" stroke-width="1" fill="none"></path></g><g transform="translate(236.3924734230393 421.65958495027553) rotate(0 31.52183051681004 0.3177195015889538)"><path d="M34.69 -9.24 C44.66 -6.44, 53.71 -2.76, 63.03 -0.6 M35.9 -10.27 C43.1 -7.71, 49.12 -4.41, 62.71 0.98" stroke="#364fc7" stroke-width="1" fill="none"></path></g></g><mask></mask><g stroke-linecap="round"><g transform="translate(266.2386900818926 640.9845523089352) rotate(0 19.295480009045605 0.49970344462690264)"><path d="M-0.96 -0.12 C5.47 0.1, 30.65 1.9, 37.42 2.27 M0.73 -1.23 C7.63 -1.47, 33.09 -0.46, 39.55 0.33" stroke="#364fc7" stroke-width="1" fill="none"></path></g><g transform="translate(266.2386900818926 640.9845523089352) rotate(0 19.295480009045605 0.49970344462690264)"><path d="M20.8 3.81 C25.24 6.54, 28.66 5.37, 37.63 -1.02 M21.54 6.3 C25.07 3.55, 30.61 3.74, 39.2 0.73" stroke="#364fc7" stroke-width="1" fill="none"></path></g><g transform="translate(266.2386900818926 640.9845523089352) rotate(0 19.295480009045605 0.49970344462690264)"><path d="M21.76 -9.35 C26.12 -3.97, 29.34 -2.5, 37.63 -1.02 M22.51 -6.85 C25.75 -6.48, 31.05 -3.18, 39.2 0.73" stroke="#364fc7" stroke-width="1" fill="none"></path></g></g><mask></mask><g stroke-linecap="round" transform="translate(70.02074967881526 793.6161379073742) rotate(0 28.383712290419794 28.38371229041968)"><path d="M38.87 1.79 C44.12 4.06, 50.64 11.17, 53.47 16.56 C56.3 21.94, 57.3 28.4, 55.84 34.08 C54.39 39.77, 49.6 46.99, 44.74 50.66 C39.87 54.33, 32.63 56.55, 26.65 56.11 C20.67 55.66, 13.19 52.11, 8.86 48.01 C4.54 43.9, 1.34 37.46, 0.71 31.49 C0.07 25.51, 1.88 17.25, 5.07 12.15 C8.26 7.06, 13.31 2.17, 19.87 0.92 C26.43 -0.33, 39.84 3.56, 44.44 4.64 C49.03 5.72, 47.69 7, 47.45 7.4 M31.83 1.45 C37.43 1.61, 43.98 3.37, 47.95 7.49 C51.93 11.61, 55.26 20.01, 55.67 26.14 C56.08 32.28, 54 39.35, 50.41 44.3 C46.82 49.25, 40.02 54.43, 34.13 55.85 C28.25 57.26, 20.41 55.65, 15.12 52.8 C9.84 49.96, 4.52 43.98, 2.4 38.78 C0.29 33.58, 0.98 27.01, 2.44 21.6 C3.89 16.19, 6.12 10.08, 11.11 6.32 C16.1 2.55, 29.04 -0.02, 32.38 -0.98 C35.72 -1.93, 31.49 -0.05, 31.14 0.58" stroke="#364fc7" stroke-width="1" fill="none"></path></g><g transform="translate(95.62414744895864 809.42953476199) rotate(0 2.7099990844726562 12.5)"><text x="2.7099990844726562" y="0" font-family="Virgil, Segoe UI Emoji" font-size="20px" fill="#364fc7" text-anchor="middle" style="white-space: pre;" direction="ltr" dominant-baseline="text-before-edge">1</text></g><g stroke-linecap="round" transform="translate(205.21171890019718 791.5008828214341) rotate(0 28.38371229041968 28.38371229041968)"><path d="M34.56 1.09 C40.21 2.14, 46.97 7.38, 50.61 12.32 C54.24 17.27, 56.53 24.78, 56.36 30.78 C56.18 36.78, 53.7 44.15, 49.54 48.31 C45.38 52.47, 37.61 55.23, 31.41 55.73 C25.21 56.23, 17.35 54.73, 12.36 51.32 C7.37 47.91, 3.24 40.95, 1.47 35.27 C-0.3 29.59, -0.86 22.53, 1.73 17.25 C4.32 11.97, 10.37 5.82, 17 3.58 C23.63 1.34, 36.71 3.34, 41.5 3.8 C46.29 4.26, 45.92 5.89, 45.73 6.31 M28.97 -1.35 C34.86 -1.58, 44.2 2.47, 48.65 6.97 C53.1 11.47, 55.24 19.55, 55.68 25.63 C56.12 31.71, 54.26 38.49, 51.28 43.44 C48.29 48.39, 43.23 53.64, 37.77 55.31 C32.31 56.97, 24.05 55.82, 18.52 53.43 C12.98 51.03, 7.27 46.21, 4.54 40.93 C1.82 35.64, 1.11 27.59, 2.17 21.73 C3.22 15.86, 6.29 9.24, 10.86 5.72 C15.44 2.21, 26.38 1.5, 29.62 0.63 C32.85 -0.24, 30.51 0.22, 30.27 0.51" stroke="#364fc7" stroke-width="1" fill="none"></path></g><g transform="translate(227.3451230790322 807.3142796760499) rotate(0 6.17999267578125 12.5)"><text x="6.17999267578125" y="0" font-family="Virgil, Segoe UI Emoji" font-size="20px" fill="#364fc7" text-anchor="middle" style="white-space: pre;" direction="ltr" dominant-baseline="text-before-edge">5</text></g><g stroke-linecap="round" transform="translate(317.1817825401938 795.4432552784642) rotate(0 28.38371229041968 28.38371229041968)"><path d="M38.23 2.86 C43.84 4.4, 49.94 9.25, 52.93 14.39 C55.93 19.53, 57.25 27.64, 56.2 33.71 C55.15 39.78, 51.38 47.12, 46.66 50.81 C41.93 54.5, 34.05 56.08, 27.85 55.85 C21.65 55.61, 13.99 53.29, 9.45 49.4 C4.91 45.51, 1.62 38.45, 0.6 32.51 C-0.41 26.56, 0.13 18.8, 3.35 13.73 C6.57 8.67, 13.32 3.82, 19.91 2.12 C26.5 0.41, 38.44 2.67, 42.89 3.51 C47.34 4.34, 47.02 6.51, 46.59 7.1 M38.93 2.14 C44.53 3.87, 49.21 9.23, 51.9 14.11 C54.6 19, 55.84 25.56, 55.1 31.44 C54.36 37.33, 51.69 45.42, 47.47 49.43 C43.26 53.43, 36.12 55.4, 29.79 55.48 C23.46 55.55, 14.34 53.4, 9.47 49.88 C4.61 46.37, 1.71 40.06, 0.58 34.39 C-0.54 28.73, -0.14 21.32, 2.73 15.9 C5.61 10.47, 12.17 4.3, 17.84 1.83 C23.51 -0.64, 33.54 0.95, 36.75 1.05 C39.95 1.15, 37.19 1.98, 37.09 2.4" stroke="#364fc7" stroke-width="1" fill="none"></path></g><g transform="translate(338.37518427762166 811.25665213308) rotate(0 7.1199951171875 12.5)"><text x="7.1199951171875" y="0" font-family="Virgil, Segoe UI Emoji" font-size="20px" fill="#364fc7" text-anchor="middle" style="white-space: pre;" direction="ltr" dominant-baseline="text-before-edge">2</text></g><g stroke-linecap="round" transform="translate(438.23828749464496 788.279977240049) rotate(0 28.38371229041968 28.38371229041968)"><path d="M33.64 -0.4 C39.58 0.22, 47.17 6.07, 50.92 10.78 C54.66 15.48, 56.1 21.77, 56.11 27.81 C56.12 33.84, 54.88 42.2, 51 46.99 C47.11 51.78, 39.07 55.7, 32.8 56.54 C26.52 57.39, 18.47 55.15, 13.35 52.04 C8.22 48.93, 3.89 43.56, 2.05 37.86 C0.22 32.16, 0.42 23.59, 2.33 17.85 C4.23 12.12, 7.13 5.92, 13.48 3.46 C19.83 1, 35.04 2.32, 40.42 3.07 C45.79 3.82, 45.97 7.6, 45.72 7.96 M20.23 0.67 C25.61 -1.38, 32.91 -0.55, 38.68 1.92 C44.45 4.38, 52.07 10.18, 54.85 15.47 C57.62 20.77, 56.63 27.59, 55.31 33.67 C53.99 39.76, 51.75 48.23, 46.93 51.97 C42.12 55.7, 32.56 56.31, 26.44 56.07 C20.31 55.82, 14.73 54.71, 10.2 50.49 C5.66 46.26, 0.21 37.04, -0.77 30.71 C-1.74 24.39, 1.02 17.29, 4.36 12.53 C7.7 7.78, 16.77 3.98, 19.27 2.19 C21.77 0.41, 19 1.48, 19.35 1.82" stroke="#364fc7" stroke-width="1" fill="none"></path></g><g transform="translate(460.15169045277594 804.0933740946648) rotate(0 6.399993896484375 12.5)"><text x="6.399993896484375" y="0" font-family="Virgil, Segoe UI Emoji" font-size="20px" fill="#364fc7" text-anchor="middle" style="white-space: pre;" direction="ltr" dominant-baseline="text-before-edge">4</text></g><g stroke-linecap="round" transform="translate(556.265978677611 790.2031405160888) rotate(0 28.38371229041968 28.38371229041968)"><path d="M16.62 2.99 C21.75 0.46, 29.56 0.35, 35.37 1.89 C41.18 3.43, 48.04 7.44, 51.49 12.25 C54.93 17.05, 56.61 24.63, 56.03 30.73 C55.46 36.82, 52.35 44.55, 48.05 48.81 C43.75 53.06, 36.28 55.67, 30.23 56.26 C24.18 56.85, 16.62 55.89, 11.75 52.35 C6.88 48.81, 2.61 40.89, 1 35.02 C-0.6 29.14, -1.39 22.85, 2.13 17.08 C5.66 11.32, 18.14 3.06, 22.15 0.43 C26.16 -2.2, 26.04 0.9, 26.18 1.32 M15.77 3.55 C20.76 0.87, 28.95 -0.51, 35.03 0.96 C41.11 2.43, 48.72 7.26, 52.26 12.35 C55.8 17.43, 57.11 25.54, 56.29 31.46 C55.47 37.39, 51.52 43.96, 47.34 47.91 C43.15 51.87, 36.84 54.44, 31.19 55.2 C25.54 55.96, 18.52 55.8, 13.45 52.5 C8.38 49.21, 2.71 41.37, 0.76 35.42 C-1.18 29.47, -1.06 22.17, 1.76 16.79 C4.59 11.41, 15.2 5.51, 17.7 3.15 C20.2 0.79, 16.61 2.31, 16.77 2.62" stroke="#364fc7" stroke-width="1" fill="none"></path></g><g transform="translate(577.7693779736335 806.0165373707046) rotate(0 6.80999755859375 12.5)"><text x="6.80999755859375" y="0" font-family="Virgil, Segoe UI Emoji" font-size="20px" fill="#364fc7" text-anchor="middle" style="white-space: pre;" direction="ltr" dominant-baseline="text-before-edge">3</text></g><g stroke-linecap="round"><g transform="translate(135.62589287859078 827.0857229823991) rotate(0 34.52735427658308 -1.8009028079302425)"><path d="M-0.43 0.86 C11.08 0.1, 57.96 -3.71, 69.49 -4.46 M1.54 0.27 C12.84 -0.33, 56.84 -2.13, 68.45 -3.15" stroke="#364fc7" stroke-width="1" fill="none"></path></g><g transform="translate(135.62589287859078 827.0857229823991) rotate(0 34.52735427658308 -1.8009028079302425)"><path d="M42.38 8.53 C49.4 3.44, 59.89 -0.39, 68.64 -4.26 M41.14 9.38 C49.05 5.5, 55.38 1.47, 68.87 -2.77" stroke="#364fc7" stroke-width="1" fill="none"></path></g><g transform="translate(135.62589287859078 827.0857229823991) rotate(0 34.52735427658308 -1.8009028079302425)"><path d="M41.12 -11.95 C48.57 -10.21, 59.49 -7.21, 68.64 -4.26 M39.88 -11.11 C48.01 -9.33, 54.7 -7.71, 68.87 -2.77" stroke="#364fc7" stroke-width="1" fill="none"></path></g></g><mask></mask><g stroke-linecap="round"><g transform="translate(270.9129080049231 820.0184908489341) rotate(0 18.651945012876695 4.473952514640132)"><path d="M0.68 1.2 C6.48 2.52, 29.67 5.88, 35.47 6.78 M-0.43 0.78 C5.69 2.38, 31.33 7.01, 37.73 8.17" stroke="#364fc7" stroke-width="1" fill="none"></path></g><g transform="translate(270.9129080049231 820.0184908489341) rotate(0 18.651945012876695 4.473952514640132)"><path d="M21.33 9.94 C25.57 8.76, 31.83 9.51, 37 8.97 M18.72 11.7 C25.76 9.98, 30.71 10.01, 37.82 8.31" stroke="#364fc7" stroke-width="1" fill="none"></path></g><g transform="translate(270.9129080049231 820.0184908489341) rotate(0 18.651945012876695 4.473952514640132)"><path d="M23.59 -2.52 C26.91 0.75, 32.36 5.95, 37 8.97 M20.98 -0.76 C27.29 1.34, 31.55 5.19, 37.82 8.31" stroke="#364fc7" stroke-width="1" fill="none"></path></g></g><mask></mask><g stroke-linecap="round"><g transform="translate(380.9598083688795 829.1049321633891) rotate(0 26.089178688975608 -1.5848261686355727)"><path d="M0.01 0.68 C8.8 0.14, 44.56 -3.04, 53.63 -3.85 M-1.45 -0.01 C7.12 -0.28, 43.48 -1.73, 52.74 -2.21" stroke="#364fc7" stroke-width="1" fill="none"></path></g><g transform="translate(380.9598083688795 829.1049321633891) rotate(0 26.089178688975608 -1.5848261686355727)"><path d="M29.1 8.28 C37.53 5.74, 46.23 -0.02, 51.06 -1.22 M27.67 8.73 C35.05 5.35, 41.26 2.1, 52.66 -2.29" stroke="#364fc7" stroke-width="1" fill="none"></path></g><g transform="translate(380.9598083688795 829.1049321633891) rotate(0 26.089178688975608 -1.5848261686355727)"><path d="M28.27 -10.05 C36.92 -5.78, 45.93 -4.73, 51.06 -1.22 M26.84 -9.6 C34.26 -8.14, 40.69 -6.55, 52.66 -2.29" stroke="#364fc7" stroke-width="1" fill="none"></path></g></g><mask></mask><g stroke-linecap="round"><g transform="translate(502.1123592282818 823.0473046204193) rotate(0 22.904432820340617 -1.2635745912300536)"><path d="M-0.43 -0.69 C7.33 -1.01, 38.22 -2.03, 46.23 -2.33 M1.55 1.57 C9.16 0.94, 37.52 -3.07, 45.18 -4.1" stroke="#364fc7" stroke-width="1" fill="none"></path></g><g transform="translate(502.1123592282818 823.0473046204193) rotate(0 22.904432820340617 -1.2635745912300536)"><path d="M23.45 6.41 C31.36 5.87, 36.69 1.64, 43.33 -3.62 M24.63 6.71 C31.83 3.33, 40.41 -2.02, 45.5 -5.04" stroke="#364fc7" stroke-width="1" fill="none"></path></g><g transform="translate(502.1123592282818 823.0473046204193) rotate(0 22.904432820340617 -1.2635745912300536)"><path d="M21.29 -9.36 C29.74 -5.6, 35.65 -5.53, 43.33 -3.62 M22.47 -9.06 C30.57 -6.66, 39.94 -6.22, 45.5 -5.04" stroke="#364fc7" stroke-width="1" fill="none"></path></g></g><mask></mask><g transform="translate(300.2979844848053 47.62155877835721) rotate(0 169.02996826171875 25)"><text x="0" y="0" font-family="Virgil, Segoe UI Emoji" font-size="20px" fill="#364fc7" text-anchor="start" style="white-space: pre;" direction="ltr" dominant-baseline="text-before-edge">reorder from: 1 &gt; 2 &gt; 3... n-1 &gt; n</text><text x="0" y="25" font-family="Virgil, Segoe UI Emoji" font-size="20px" fill="#364fc7" text-anchor="start" style="white-space: pre;" direction="ltr" dominant-baseline="text-before-edge">          to: 1 &gt; n &gt; 2 &gt; n-1 &gt; 3...</text></g><g stroke-linecap="round"><g transform="translate(306.479137201821 240.02146272907203) rotate(0 7.718684563374154 -20.216077885307413)"><path d="M0.46 -0.4 C2.96 -7.1, 13.97 -33.58, 16.2 -40.03 M-0.77 -1.66 C1.58 -8.17, 13.05 -31.92, 15.86 -38.46" stroke="#364fc7" stroke-width="1" fill="none"></path></g><g transform="translate(306.479137201821 240.02146272907203) rotate(0 7.718684563374154 -20.216077885307413)"><path d="M13.49 -15.19 C14.9 -27.65, 17.16 -32.53, 17.15 -39.44 M13.34 -17.63 C14.46 -25.34, 16.44 -32.59, 15.27 -38.02" stroke="#364fc7" stroke-width="1" fill="none"></path></g><g transform="translate(306.479137201821 240.02146272907203) rotate(0 7.718684563374154 -20.216077885307413)"><path d="M0.17 -21.27 C6.91 -31.36, 14.49 -33.8, 17.15 -39.44 M0.02 -23.72 C5.84 -29.2, 12.54 -34.29, 15.27 -38.02" stroke="#364fc7" stroke-width="1" fill="none"></path></g></g><mask></mask><g transform="translate(273.39945368580925 226.39828990651813) rotate(0 14.209983825683594 12.5)"><text x="0" y="0" font-family="Virgil, Segoe UI Emoji" font-size="20px" fill="#364fc7" text-anchor="start" style="white-space: pre;" direction="ltr" dominant-baseline="text-before-edge">mid</text></g><g transform="translate(684.7014815188393 131.09223893966646) rotate(0 71.46993255615234 12.5)"><text x="0" y="0" font-family="Virgil, Segoe UI Emoji" font-size="20px" fill="#364fc7" text-anchor="start" style="white-space: pre;" direction="ltr" dominant-baseline="text-before-edge">find the middle</text></g><g transform="translate(673.0229589269618 326.82232590226795) rotate(0 131.71987915039062 12.5)"><text x="0" y="0" font-family="Virgil, Segoe UI Emoji" font-size="20px" fill="#364fc7" text-anchor="start" style="white-space: pre;" direction="ltr" dominant-baseline="text-before-edge">reverse from middle to end</text></g><g transform="translate(679.0403079083897 549.5320990133332) rotate(0 110.11990356445312 12.5)"><text x="0" y="0" font-family="Virgil, Segoe UI Emoji" font-size="20px" fill="#364fc7" text-anchor="start" style="white-space: pre;" direction="ltr" dominant-baseline="text-before-edge">link all nodes together</text></g><g stroke-linecap="round"><g transform="translate(363.9948753090664 179.9874183826305) rotate(0 26.996683403490124 -6.961396684681404)"><path d="M1.16 -0.44 C10.09 -2.37, 44.74 -9.73, 53.68 -11.64 M0.31 -1.72 C9.08 -4, 43.68 -12.03, 52.73 -13.48" stroke="#364fc7" stroke-width="1" fill="none"></path></g><g transform="translate(363.9948753090664 179.9874183826305) rotate(0 26.996683403490124 -6.961396684681404)"><path d="M28.49 0.84 C37.38 -1.92, 44.22 -9.93, 50.95 -11.64 M28.71 0.43 C36.15 -3.16, 43.61 -8.07, 53.27 -13.2" stroke="#364fc7" stroke-width="1" fill="none"></path></g><g transform="translate(363.9948753090664 179.9874183826305) rotate(0 26.996683403490124 -6.961396684681404)"><path d="M24.77 -17.62 C34.8 -14.73, 42.78 -17.04, 50.95 -11.64 M25 -18.03 C33.72 -16.09, 42.28 -15.49, 53.27 -13.2" stroke="#364fc7" stroke-width="1" fill="none"></path></g></g><mask></mask><g stroke-linecap="round" transform="translate(53.78596075700648 111.9704179628975) rotate(0 296.31893190494225 83.29237871583837)"><path d="M32 0 M32 0 C234.92 1.33, 437.35 0.76, 560.64 0 M32 0 C233.16 1.2, 434.06 0.92, 560.64 0 M560.64 0 C582.99 -1.37, 593.66 11.97, 592.64 32 M560.64 0 C580.76 -1.12, 593.64 9.26, 592.64 32 M592.64 32 C593.86 53.9, 594.97 72.4, 592.64 134.58 M592.64 32 C592.71 63.62, 594.27 96.1, 592.64 134.58 M592.64 134.58 C594.43 153.96, 583.17 168.29, 560.64 166.58 M592.64 134.58 C590.53 154.73, 582.94 167.56, 560.64 166.58 M560.64 166.58 C392.82 166.68, 226.37 167.03, 32 166.58 M560.64 166.58 C385.36 165.43, 210.41 165.54, 32 166.58 M32 166.58 C9.89 166.44, 0.67 154.67, 0 134.58 M32 166.58 C8.77 164.46, 1.96 158.09, 0 134.58 M0 134.58 C1.05 97.74, -0.81 63.9, 0 32 M0 134.58 C-0.23 98.45, 0.43 63.04, 0 32 M0 32 C0.88 10.6, 9.69 1.46, 32 0 M0 32 C-1.36 9.48, 8.73 2.15, 32 0" stroke="#364fc7" stroke-width="1" fill="none"></path></g><g stroke-linecap="round" transform="translate(53.68991485205629 298.6511904888375) rotate(0 296.31893190494225 83.29237871583837)"><path d="M32 0 M32 0 C164.14 -2.19, 293.91 -2.09, 560.64 0 M32 0 C182.66 1.97, 332.92 1.5, 560.64 0 M560.64 0 C579.99 0.67, 593.54 11.35, 592.64 32 M560.64 0 C582.23 -0.67, 592.18 10.41, 592.64 32 M592.64 32 C593.4 59.99, 591.82 85.59, 592.64 134.58 M592.64 32 C593.87 68.64, 593.58 104.52, 592.64 134.58 M592.64 134.58 C593.33 154.44, 582.51 167.21, 560.64 166.58 M592.64 134.58 C591.4 154.05, 579.69 166.55, 560.64 166.58 M560.64 166.58 C431.43 167.5, 301.98 167.18, 32 166.58 M560.64 166.58 C395.28 167.83, 230.2 167.77, 32 166.58 M32 166.58 C11.8 167.53, 0.73 156.47, 0 134.58 M32 166.58 C11.59 165.99, -1.35 154.21, 0 134.58 M0 134.58 C1.13 97.76, 0.03 56.74, 0 32 M0 134.58 C-0.78 104.28, -0.08 75.75, 0 32 M0 32 C1.43 8.79, 9.82 -0.12, 32 0 M0 32 C-0.69 9.71, 10.31 0.68, 32 0" stroke="#364fc7" stroke-width="1" fill="none"></path></g><g stroke-linecap="round" transform="translate(59.70208763807409 519.2122879122821) rotate(0 296.31893190494225 83.29237871583837)"><path d="M32 0 M32 0 C232.39 0.44, 435.02 0.31, 560.64 0 M32 0 C238.48 1.28, 445.42 1.7, 560.64 0 M560.64 0 C583.47 -0.72, 590.97 12.29, 592.64 32 M560.64 0 C583.47 -0.84, 593.61 10.15, 592.64 32 M592.64 32 C594 71.27, 590.88 109.02, 592.64 134.58 M592.64 32 C591.07 54.8, 591.28 77.73, 592.64 134.58 M592.64 134.58 C593.05 157.26, 581.86 166.46, 560.64 166.58 M592.64 134.58 C594.01 156.8, 584.08 166.76, 560.64 166.58 M560.64 166.58 C409.25 167.14, 256.98 166.56, 32 166.58 M560.64 166.58 C403.13 168.33, 246.58 168.29, 32 166.58 M32 166.58 C9.14 164.79, 0.56 156.29, 0 134.58 M32 166.58 C12.43 167.99, -1.49 157.03, 0 134.58 M0 134.58 C-0.4 104.53, 1.09 71.12, 0 32 M0 134.58 C-0.29 98.8, -1.59 63.92, 0 32 M0 32 C1.47 8.72, 8.93 0.05, 32 0 M0 32 C0.69 8.46, 8.75 -0.37, 32 0" stroke="#364fc7" stroke-width="1" fill="none"></path></g><g transform="translate(468.25313965134615 409.13675159680315) rotate(0 72.48992919921875 12.5)"><text x="0" y="0" font-family="Virgil, Segoe UI Emoji" font-size="20px" fill="#364fc7" text-anchor="start" style="white-space: pre;" direction="ltr" dominant-baseline="text-before-edge">reverse second</text></g><g stroke-linecap="round"><g transform="translate(463.68539368729375 424.06698492070836) rotate(0 -44.8342683285307 -2.2504876270222667)"><path d="M-0.83 -0.8 C-15.8 -1.96, -75.79 -5.19, -90.61 -5.89 M0.94 1.39 C-13.59 0.86, -73.1 -4.09, -88.34 -4.96" stroke="#364fc7" stroke-width="1" fill="none"></path></g><g transform="translate(463.68539368729375 424.06698492070836) rotate(0 -44.8342683285307 -2.2504876270222667)"><path d="M-60.83 -14.59 C-68.21 -11.35, -73.63 -9.58, -86.87 -5.39 M-59.58 -12.99 C-69.12 -10.98, -77.51 -8.54, -87.52 -4.07" stroke="#364fc7" stroke-width="1" fill="none"></path></g><g transform="translate(463.68539368729375 424.06698492070836) rotate(0 -44.8342683285307 -2.2504876270222667)"><path d="M-62.29 5.88 C-69.5 4.26, -74.57 1.15, -86.87 -5.39 M-61.03 7.48 C-69.99 3.31, -77.95 -0.44, -87.52 -4.07" stroke="#364fc7" stroke-width="1" fill="none"></path></g></g><mask></mask><g transform="translate(101.13074072268296 551.1108874115016) rotate(0 18.60997772216797 12.5)"><text x="0" y="0" font-family="Virgil, Segoe UI Emoji" font-size="20px" fill="#364fc7" text-anchor="start" style="white-space: pre;" direction="ltr" dominant-baseline="text-before-edge">list1</text></g><g transform="translate(105.84085387752657 625.832216990771) rotate(0 23.019973754882812 12.5)"><text x="0" y="0" font-family="Virgil, Segoe UI Emoji" font-size="20px" fill="#364fc7" text-anchor="start" style="white-space: pre;" direction="ltr" dominant-baseline="text-before-edge">list2</text></g></svg>
